<?xml version="1.0" encoding="utf-8"?>
<!-- Generator: Adobe Illustrator 19.2.0, SVG Export Plug-In . SVG Version: 6.00 Build 0)  -->
<svg version="1.1" id="Layer_1" xmlns="http://www.w3.org/2000/svg" xmlns:xlink="http://www.w3.org/1999/xlink" x="0px" y="0px"
	 viewBox="0 0 194 51.5" style="enable-background:new 0 0 194 51.5;" xml:space="preserve">
<style type="text/css">
	.st0{opacity:0.6;fill:#FFFFFF;}
</style>
<g>
	<path class="st0" d="M193.1,32.9c-1.3-1.2-3-0.4-3.1-0.3c-0.1,0.1-1.9-2.6-3.9-1c-1.3,1-1.5,1.9-1.6,2.4c-0.1,0.6-0.4,1.3-0.9,1.7
		c-0.6,0.6-1.4,1.3-2.5,1.4c-2.2,0.2-2.3-2.3-0.5-3.7c1.8-1.4,6.6-5.4,8-7.5c0.9-1.3,1-2.6,0.9-2.9s-0.4-1.4-2.1-1.2
		c-1.7,0.2-2.6,0.1-2.4-1.9c0.2-2.6-0.9-4.3-0.9-4.3s-0.3-0.8-1.5-1s-1.6-0.2-2.1-0.6c-0.4-0.4-1.5,0.2-1.6,1.7
		c-0.2,1.4-1.1,2.3-2,2.2c-0.9,0-1.6-0.3-2-1.5c-0.4-1.1-2-1.3-3.2-0.1c-1.2,1.1-1.8,3.5-1.7,5.3c0.1,1.3,0.2,3.3,0.1,4.4
		c-0.1,0.6-0.4,1.3-0.9,1.7c-0.5,0.4-1.1,0.5-1.6-0.6c-0.3-0.6-0.3-1.3-0.2-2c0.2-1.2,0.5-3.3,0.4-4.4c-0.2-1.6,0-3.5-3.2-5
		c0,0-1.6,9.2-4.9,15.1c-2.9,5.1-7.7,14.4-22.2,15.6c0.3-0.1,0.6-0.2,0.9-0.3c0,0,16.8-7.9,13.2-21.5c0,0-0.7-3.8-4.1-3.6
		c0,0,4.6,4-0.3,12c1.2-2.1,3.4-7.8-2.1-13.4c-0.8-0.8-1.8-1.2-2.9-1.2H140c0,0-2.2-0.6-1.1-1.8c0,0-4-2.3-5.8,5.4
		c0,0,8.9,6.9-3.6,18.7c2.6-2.6,9.1-10.2,3.7-15.6c0,0-2.7-3.5-6.8,0.1c0,0-2.3,2.2-1.3,4.8c0,0,1.4-2.5,4.5-1.5
		c3.1,1.1,3.5,3.7,1.7,5.4c0,0,1.4-3-1.4-4c-2.8-0.9-3.7,0.1-4,1c0,0,3.5,3.4-1.7,8.1s-15.4-0.2-14.3-5.4c0.3-0.9,0.6-1.2,0.6-1.2
		s4.6,1.9,4.6-3c0-4.5-3.9-5.5-6.2-4.9c-1.3,0.4-3.6,1.7-4.7,4.1c-1.7-4.5-2-10.3,1.6-17.3c0,0,3.3,5.5,8.5,3.8
		c1.1-0.3,2.3-0.9,3.5-2.1c5.2-5.1,0.2-13.1-6.4-13c-3.8-0.2-5.5,0.7-7.5,2.1c-4.6,3.4-6.8,9-7,14.5c-0.3,7.9,2.2,15.6,6.2,20.2
		c0.2,0.2,0.4,0.5,0.7,0.7c3,2.9,5.3,7.7,19.2,12.8c7.1,2.5,16.6,0.3,21.3-1.1c0.9,0.6,2.2,1.3,3.9,1.4c0,0,1.6,0.6,1.5-1.7
		c0,0-0.3-1.4,2.6-0.5c2.2,0.6,4,0.7,4.9,0.6c0.4,0,0.8-0.1,1.1-0.3s0.6-0.6-0.2-1c-0.7-0.4-1.2-0.5-1.4-0.5s-0.5-0.1-0.6-0.3
		s-0.1-0.5,0.8-0.4l6.5,1.1c0,0,2.4,0.2,1.9-0.7c0,0,1.3-0.2,1.9,0c0.6,0.2,1.6-0.9-0.2-1.5c-1.2-0.4-1.9-0.4-2.3-0.4
		c-0.3,0-0.5-0.2-0.5-0.4s0.1-0.4,0.6-0.4c1-0.1,4.1,0.4,7.3,1.9c3.2,1.4,8.4,3.4,8.4,3.4s3.2,1,4.7-0.1c0.3-0.2,0.6-0.3,1-0.3
		c0.9,0.1,2.6,0.2,3.2,0.1c1-0.3,3-1.9,0.5-3.5c-1.5-0.9-2.5-1.3-3.1-1.3c-0.9,0-1.8-0.7-1.9-1.6c0-0.1,0-0.1,0-0.2
		c0-0.8,1-0.8,1.7-0.6s1.4,0.2,2.2,0.2c1,0,2.2-0.2,2.6-0.7c0.8-0.9,0.8-0.9,0.8-2.5c0-1.2,0.8-2.3,1.2-2.8c0.3-0.3,0.5-0.7,0.6-1.1
		C193.8,34.3,193.8,33.5,193.1,32.9z M183.2,40.5c-2.8,0.5-10.2,0.4-10.2,0.4s2.5,1.3,6,3.5s6.3,2.5,6.3,2.5
		c-5.5-0.4-9.9-3.8-9.9-3.8c-4.9-3.4-6.7-2.7-9.8-3.1c-2.3-0.3-3.5,0.3-4,0.6c-0.4,0.3-0.8,0.5-1.2,0.7c-4.9,2.4-9,3.6-9,3.6
		c5.3-0.2,8.7,0.6,9.4,0.9c-1.1-0.2-6.7-0.3-9.3-0.3c-0.8,0-1.5,0.1-2.3,0.2c-1.5,0.3-4.1,0.5-4.1,0.5c1.1-0.2,2.6-0.6,3.8-1
		c1.1-0.4,2.4-0.7,3.3-1.4c2.3-1.7,6.3-5.8,6.3-5.8c-0.4,1.1-5.7,6-5.7,6c0.7-0.2,5.7-2.5,8.2-3.7c2.4-1.1,2.9-4.4,2.7-7.3
		s0.7-8.7,0.7-8.7s-0.6,5.4,0,8.8s-0.6,5.6-0.6,5.6c1.1-0.1,6.6-5.1,8.3-6.7c1.7-1.6,1.9-10.8,1.9-10.8c0.8,5.6-0.5,9.8-0.5,9.8
		c6.3-6,7.8-13.6,7.8-13.6s0.3,4.9-4.1,10.7s-13,11.2-13,11.2c1.6-0.2,7,0.6,7,0.6s7.5,0.9,10.2-0.2c2.8-1.1,5.3-4.8,5.3-4.8
		c-1.2,3.5-4.2,5-4.2,5c3.8-0.5,6.3-3.3,6.3-3.3c-1,1.5-2.6,2.7-2.6,2.7c0.7-0.2,3.3,0.1,3.3,0.1S186,40,183.2,40.5z"/>
	<path class="st0" d="M30.6,47.6l6.5-1.1c0.9-0.1,0.9,0.2,0.8,0.4c-0.1,0.2-0.4,0.3-0.6,0.3c-0.2,0-0.7,0.1-1.4,0.5s-0.5,0.8-0.2,1
		s0.7,0.3,1.1,0.3c0.8,0,2.7,0,4.9-0.6c2.9-0.9,2.6,0.5,2.6,0.5c-0.1,2.3,1.5,1.7,1.5,1.7c1.7-0.1,3-0.8,3.9-1.4
		c4.7,1.4,14.2,3.6,21.3,1.1c13.9-5.1,16.2-9.9,19.2-12.8c0.2-0.2,0.5-0.4,0.7-0.7c4-4.6,6.5-12.4,6.2-20.2
		c-0.5-5.5-2.7-11.1-7.2-14.4c-2-1.4-3.7-2.3-7.5-2.1c-6.5,0-11.6,7.9-6.3,13c1.2,1.2,2.4,1.8,3.5,2.1c5.2,1.8,8.5-3.8,8.5-3.8
		c3.5,6.9,3.2,12.7,1.6,17.3c-1.2-2.4-3.4-3.7-4.7-4.1c-2.2-0.7-6.2,0.4-6.2,4.9c0,4.9,4.6,3,4.6,3s0.3,0.3,0.6,1.2
		c1,5.3-9.2,10.1-14.3,5.4C64.5,34.4,68,31,68,31c-0.3-0.9-1.2-2-4-1c-2.8,0.9-1.4,4-1.4,4c-1.7-1.7-1.4-4.3,1.7-5.4
		s4.5,1.5,4.5,1.5c0.9-2.6-1.3-4.8-1.3-4.8c-4.1-3.6-6.8-0.1-6.8-0.1c-5.4,5.5,1.1,13.1,3.7,15.6C51.9,29,60.7,22.1,60.7,22.1
		c-1.8-7.8-5.8-5.4-5.8-5.4c1.1,1.2-1.1,1.8-1.1,1.8h-2.2c-1.1,0-2.2,0.4-2.9,1.2c-5.5,5.6-3.2,11.2-2.1,13.4
		c-4.9-8.1-0.3-12-0.3-12c-3.3-0.2-4.1,3.6-4.1,3.6C38.6,38.1,55.4,46,55.4,46c0.3,0.1,0.6,0.2,0.9,0.3C41.8,45.2,37,35.8,34.1,30.7
		c-3.4-5.8-4.9-15.1-4.9-15.1c-3.2,1.6-3,3.4-3.2,5c-0.1,1.1,0.2,3.3,0.4,4.4c0.1,0.7,0.1,1.4-0.2,2c-0.5,1.2-1.1,1-1.6,0.6
		s-0.8-1-0.9-1.7c-0.1-1.1,0-3.1,0.1-4.4c0.1-1.8-0.5-4.2-1.7-5.3c-1.2-1.1-2.8-1-3.2,0.1c-0.4,1.2-1.1,1.5-2,1.5s-1.9-0.8-2-2.2
		c-0.2-1.4-1.2-2.1-1.6-1.7c-0.4,0.4-0.9,0.4-2.1,0.6s-1.5,1-1.5,1s-1.2,1.7-0.9,4.3c0.2,2-0.7,2.2-2.4,1.9c-1.7-0.2-2,0.9-2.1,1.2
		c-0.2,0.4,0,1.7,0.8,3c1.4,2,6.2,6.1,8,7.5c1.8,1.4,1.7,3.9-0.5,3.7c-1.1-0.1-2-0.8-2.5-1.4c-0.4-0.5-0.7-1.1-0.9-1.7
		c-0.1-0.4-0.3-1.4-1.6-2.4c-2.1-1.6-3.8,1.1-3.9,1c-0.1-0.1-1.9-1-3.1,0.3c-0.7,0.7-0.7,1.5-0.5,2.1c0.1,0.4,0.3,0.7,0.6,1.1
		c0.4,0.5,1.2,1.6,1.2,2.8c0,1.6,0.1,1.6,0.8,2.5c0.4,0.5,1.6,0.7,2.6,0.7c0.7,0,1.5-0.1,2.2-0.2c0.6-0.2,1.6-0.3,1.6,0.5
		c0,0.1,0,0.1,0,0.2c-0.1,0.9-1,1.6-1.9,1.6c-0.5,0-1.6,0.4-3.1,1.3c-2.5,1.6-0.5,3.3,0.5,3.5c0.6,0.2,2.3,0,3.2-0.1
		c0.3,0,0.7,0.1,1,0.3c1.5,1.1,4.7,0.1,4.7,0.1s5.2-2,8.4-3.4s6.2-2,7.3-1.9c0.5,0.1,0.6,0.2,0.6,0.4c0,0.3-0.2,0.5-0.5,0.4
		c-0.4,0-1.2,0-2.3,0.4c-1.8,0.6-0.7,1.7-0.2,1.5c0.6-0.2,1.9,0,1.9,0C28.2,47.7,30.6,47.6,30.6,47.6z M28,40
		c-3,0.4-4.9-0.3-9.8,3.1c0,0-4.4,3.4-9.9,3.8c0,0,2.8-0.3,6.3-2.5s6-3.5,6-3.5s-7.3,0.1-10.2-0.4s-6.6-1-6.6-1s2.6-0.3,3.3-0.1
		c0,0-1.7-1.3-2.6-2.7c0,0,2.6,2.8,6.3,3.3c0,0-3-1.5-4.2-5c0,0,2.5,3.7,5.3,4.8S22.1,40,22.1,40s5.4-0.8,7-0.6c0,0-8.5-5.4-13-11.2
		S12,17.5,12,17.5s1.5,7.6,7.8,13.6c0,0-1.3-4.2-0.5-9.8c0,0,0.2,9.2,1.9,10.8c1.7,1.6,7.2,6.6,8.3,6.7c0,0-1.2-2.2-0.6-5.6
		s0-8.8,0-8.8s0.9,5.8,0.7,8.7c-0.2,2.9,0.3,6.2,2.7,7.3s7.5,3.5,8.2,3.7c0,0-5.3-4.9-5.7-6c0,0,4,4.1,6.3,5.8c1,0.7,2.2,1,3.3,1.4
		c1.2,0.4,2.7,0.8,3.8,1c0,0-2.7-0.3-4.1-0.5c-0.8-0.1-1.5-0.2-2.3-0.2c-2.7,0-8.2,0-9.3,0.3c0.8-0.2,4.1-1.1,9.4-0.9
		c0,0-4.1-1.2-9-3.6c-0.4-0.2-0.8-0.4-1.2-0.7C31.5,40.3,30.3,39.7,28,40z"/>
</g>
</svg>
