<svg id="Слой_1" xmlns="http://www.w3.org/2000/svg" viewBox="0 0 30 47"><style>.st0{fill:#ad8e52}</style><path class="st0" d="M15.1 29.1c-.3 0-.6-.1-.8-.4L.8 14.3c-.7-.8-.9-1.9-.5-2.8.4-1 1.3-1.6 2.4-1.6h24.8c1.1 0 2 .6 2.4 1.6.4 1 .2 2-.5 2.8L15.9 28.7c-.2.3-.5.4-.8.4zm-12.4-17c-.2 0-.3.1-.4.2 0 .1-.1.3.1.4l12.7 13.6 12.7-13.6c.1-.1.1-.3.1-.4 0-.1-.1-.2-.4-.2H2.7zm0 0"/><path class="st0" d="M15.5 45.9c-.6 0-1.1-.5-1.1-1.1V27.7c0-.6.5-1.1 1.1-1.1.6 0 1.1.5 1.1 1.1v17.1c0 .6-.5 1.1-1.1 1.1zm0 0"/><path class="st0" d="M20.7 47H9.6c-.6 0-1.1-.5-1.1-1.1 0-.6.5-1.1 1.1-1.1h11.1c.6 0 1.1.5 1.1 1.1 0 .6-.5 1.1-1.1 1.1zm-3-29.3h-.3c-.6-.2-.9-.8-.8-1.4L20.4 2c.1-.4.5-.7.9-.8L28 0c.6-.1 1.2.3 1.3.9.1.6-.3 1.2-.9 1.3l-6.1 1-3.6 13.6c-.1.6-.5.9-1 .9zm0 0"/></svg>