<svg id="Слой_1" xmlns="http://www.w3.org/2000/svg" viewBox="0 0 40 38"><style>.st0{fill:#aa8c53}</style><path class="st0" d="M36.8 3.3C34.8 1.3 32 0 29 0c-1.8 0-3.4.4-5 1.2-1.6.8-2.9 2-3.9 3.4-1-1.4-2.3-2.6-3.9-3.4-1.6-.8-3.3-1.2-5-1.2-3 0-5.9 1.3-7.8 3.3-2 2-3.2 4.9-3.2 8 0 2.1.4 4.2 1 5.7.3.8.7 1.6 1.2 2.4.5.9 1 1.6 1.5 2.1.4.6 1 1.3 1.9 2.1.8.8 1.5 1.5 2 1.9.5.5 1.2 1.1 2.2 2 1.1 1 1.9 1.7 2.4 2.2.5.5 1.2 1.2 2.2 2.1 1.9 1.9 3.4 3.6 4.7 5.6.3.4.6.5 1 .5s.8-.2 1-.5c.9-1.3 1.9-2.7 3-4 1.2-1.3 2.2-2.4 2.9-3.1.8-.8 1.9-1.8 3.4-3.2.9-.8 1.6-1.5 2.1-1.9l1.9-1.9c.8-.8 1.4-1.5 1.9-2.1.5-.6.9-1.3 1.5-2.1 1.1-1.7 1.6-3.1 2-5 .2-1 .3-1.9.3-2.9-.3-3-1.6-5.9-3.5-7.9zm.6 10.2c-.4 2.4-1.6 4.8-3.7 7.1-.9 1-2.5 2.6-5 4.8-1.2 1.1-2.3 2.1-3 2.8-.8.7-1.7 1.7-2.8 2.9-1.1 1.2-2.1 2.4-2.9 3.6-.9-1.2-1.9-2.3-3-3.5-1.2-1.2-2-2.1-2.7-2.7-.7-.6-1.7-1.5-3-2.8l-1.5-1.3-1.3-1.2c-.6-.5-1-1-1.3-1.3-.3-.3-.7-.7-1.1-1.3-.5-.5-.8-1-1.1-1.3-.5-.8-1.3-1.9-1.6-2.8L2.9 15c-.4-1.1-.5-2.3-.5-3.6 0-2.4.9-4.5 2.6-6.2 1.7-1.7 3.8-2.6 6.2-2.6 1.7 0 3.2.5 4.7 1.4 1.3.7 2.3 2 3.1 3.5.2.5.6.7 1 .7.5 0 .9-.2 1.1-.7.7-1.5 1.7-2.8 3.2-3.7 1.4-.9 3-1.4 4.7-1.4 2.4 0 4.4.9 6.2 2.6 1.7 1.7 2.6 3.8 2.6 6.3-.2.7-.2 1.5-.4 2.2zm0 0"/></svg>