<svg id="Layer_1" xmlns="http://www.w3.org/2000/svg" xmlns:xlink="http://www.w3.org/1999/xlink" viewBox="0 0 150 130"><style>.st0{fill:#fff}.st1,.st2{clip-path:url(#XMLID_14_);fill:#fff}.st2{clip-path:url(#XMLID_15_)}.st3{font-family:&amp;apos;PTSans-Regular&amp;apos;}.st4{font-size:7.0782px}</style><g id="XMLID_338_"><path id="XMLID_339_" class="st0" d="M88.6 30.1c-4-.9-8.7-1.5-13.6-1.5-5 0-9.6.5-13.6 1.5.2.8.3 1.3.4 1.9 0 0 7.2-1.4 13.2-1.4 6 0 13.2 1.4 13.2 1.4 0-.6.2-1 .4-1.9z"/></g><g id="XMLID_334_"><defs><path id="XMLID_335_" d="M74 79.4s-3-3.8-7.4-2.1c0 0-.5-4.4-6.3-4.3-.1 0-.2.2-.1.3.5.4 1.4 1.3 1.3 2.4 0 0-4.8.6-4.4 5.9.1 1.1-.3 1.6-.9 2.1-.7.6-2.5.4-3.9-.7 0 0 4-1 2.1-4.3-.1-.1-.2-.1-.3 0-.4.8-1.6 2.7-3.9 1.4-.7-.4-1-1.1-1-1.9.1-.9 0-1.4.5-2.1 0 0 1.5 2.4 4 1.4 1.3-.6 1.5-1.3 1.5-2.3 0-1.4-.6-2.5-1.8-3.1-.7-.3-1.9-.1-3 .3 0 0-4.5 1.8-2.7 7.7 2 5.8 8.6 7.9 12.4 7 2.9-.7 5.9-3.5 7.1-4.8.5-.5 1-.9 1.6-1.3.2-.2.5-.3.7-.5.2-.1.4-.1.6-.1l-.7 1c-.1.1-.2.2-.4.2s-.5.1-.7.3c-.3.3-.1.4.1.5.2.1-.2.3-.2.3l-.5.3c-.1.1-.2.1-.3.2-.1.1 0 .2.1.3.1 0 .1.1.2.1.3 0 .2.1.2.1-.1.4-.7.5-.9.6-.1 0-.1 0-.2.1l-.1.1c0 .1 0 .2.1.3.2.1.1.2.1.3 0 .1-.1.1-.2.1-.3.1-.6.2-.7.2-.1 0-.2.1-.2.2-.1.1-.1.3 0 .5.3.4.8.2 1 .1.2 0 0 .2 0 .2s-.2.2-.2.4c-.1.2.1.4.3.4.1 0 .4.2.1.5-.1.2-.1.3-.1.4 0 .1.1.1.1.1.4.2.7-.6.9-.8.1-.2.2 0 .2 0l.1.4c.1.2.2.2.3.1.1-.1.2-.3.2-.6 0-.8-.2-1-.2-1.4 0-.1.1-.2.1-.1.1 0 .1.1.1.2l.1.3c.2.5.6.4.6.4s.5-.1.4-.7c-.1-.5-.5-.8-.5-.8s-.5-.4-.5-.7c0-.3.2-.1.2-.1l.2.4c.1.2.4.4.6.2.2-.3.2-.5-.2-1.1-.5-.5-.6-.9-.6-.9s-.1-.4.1-.2c.1.1.4.5.5.7l.1.1c.1.1.2 0 .3-.1.1-.1.1-.3 0-.5 0-.1-.1-.3-.3-.5-.4-.3-.4-.6-.4-.6.1.1.2.1.3 0 .2-.2 0-.4 0-.5-.1-.3 0-.4 0-.5.2-.3.4-.6.6-.8.5 0 1 0 1.5.2s.8 1.1 1.1 0c.3-1.1-.8-1.3-.8-1.3.7-.1 1.3.6 1.1 1.5-.2.9-1.2.3-.6 1.1s1.4-.2 1.4-.2c-.1.3-.6.9-1.4.6-.7-.3-.4-1.1-.4-1.1-1-.1-.6 1.2-.6 1.2-.7-.3-.2-1.4-.2-1.4-1.1.3-1.2 1.5-.6 2.4.6.9 2.2.8 2.6.4.4-.4 1.2-.8 1.3-2.8.1-.4-.2-.9-.6-1.3zm-4.7 3.2c.3.3.4.5.4.6 0-.1-.2-.3-.4-.5-.4-.3-.3-.8-.3-.8s-.6.7-.5 1.1c0 .3.1.5.3.7.2.2.5.5.5.6l-.5-.5c-.3-.3-.4-.6-.4-.6s-.3.9-.2 1.2c.1.3.3.6.3.7l.1.1c.1.1.4.4.5.6-.2-.1-.8-.6-1-1.2 0 .1-.3.9-.3 1.2.1.4.3 1 .4 1.2-.1-.2-.4-.8-.5-1.1-.1.5-.3 1-.5 1.4.2-.4.3-1 .3-1.1 0 0-.4.4-.7.4.2-.1.9-.6 1-1.6 0 0-1 .9-1.8.6.3 0 2-.2 2-1.5 0 0-.5.4-1 .4.3 0 .9-.2 1.1-1 0 0 .1-.5.2-.5 0 0-.4.3-.7.3.4-.1.7-.3.7-.5.1-.2.5-.8.5-.8s-.3.3-.6.1c0 0 .6-.1.8-.3 0 0 0 .4.3.8z"/></defs><use xlink:href="#XMLID_335_" overflow="visible" fill="#fff"/><clipPath id="XMLID_2_"><use xlink:href="#XMLID_335_" overflow="visible"/></clipPath></g><g id="XMLID_330_"><defs><path id="XMLID_331_" d="M43.1 60.1s.9 1.6 2.2 1.6c1.3 0 1.6-1.3 1.6-1.3s1.4.4 1.6-.7c.2-1.1-.2-1.5-.8-1.1 0 0-3.1-.4-.9-3.9 0 0 .7-1.4 2.4-2.6.9-.6 2-.8 3-.5 3.9 1.1 4.2 3.9 4.2 3.9s.5 2.2-1.4 3c-.5.2-1.2.3-1.6-.1-.2-.3-.3-1 .2-1.2 0 0 .3.3.7.3.6-.1 1-1 .3-1.7-1-1.3-2.4-.5-2.9.2s-.7 2.3.5 3.3c1.4 1.2 2.9 1.1 4.2.2 1.6-1 1.6-3.6 1.3-4.7-.3-1.1-1.4-3.2-4.4-4.1-3.9-.9-7.6-.3-9.8.5-2.1.7-6.3 3.6-8.3 6.4-2 2.8-4.4 7.2-7.6 7.6-3.3.5-3.5-3.1-2.8-3.8.3.2.6.4 1 .4.8 0 1.4-.5 1.4-1.1 0-.2-.1-.4-.2-.5h.1l-.2-.2c-.2-.2-.4-.3-.7-.3-.9-.3-2.5-.5-4 1.4-1.2 1.4-.8 3.3-.5 4.6.3 1 4.5 3.5 7.9.3-2.8 3.5-6.8 1.2-7.6.7 0 0 3 4.4 6.9 1.6 2.9-2.1 5.5-7.4 8.6-11.1l-.6 1.8c-.1.3-.3.5-.5.7-.3.2-.9.5-1.2 1-.3.7 0 .8.5.9.5.1-.2.7-.2.7l-.8.8c-.2.2-.3.4-.3.6 0 .3.1.4.3.5h.5c.5-.2.5 0 .5 0 .1.9-1 1.5-1.4 1.6-.2.1-.3.2-.3.3-.1.1-.1.2-.1.3 0 .2.1.4.4.5.4.1.4.3.3.5 0 .1-.1.3-.3.3-.5.3-1 .7-1.2.9-.2.1-.3.3-.3.5-.1.3 0 .6.4.9.8.5 1.6-.2 2-.5.4-.2.2.4.2.4s-.2.5-.2 1 .5.7.8.6c.3-.1.8.1.6 1-.1.4 0 .7 0 .8.1.1.2.2.3.2.8.1 1-1.6 1.1-2.1.1-.5.4-.1.4-.1l.5.6c.2.3.5.2.7-.1.1-.2.1-.7 0-1.1-.5-1.4-1-1.8-1.3-2.4-.1-.2 0-.4.2-.3.2 0 .3.2.4.3l.4.6c.6.8 1.3.3 1.3.3s.8-.5.3-1.5c-.5-.9-1.4-1.3-1.4-1.3s-1.3-.4-1.4-1c-.2-.6.3-.2.3-.2l.6.6c.3.3 1.1.5 1.3-.1.3-.7.1-1.1-1.1-1.9-1.2-.8-1.4-1.3-1.4-1.3s-.5-.7 0-.5c.3.2 1.1.8 1.3 1 .1.1.2.1.3.1.3.1.4-.2.5-.4.1-.3 0-.7-.3-.9-.2-.2-.5-.5-.9-.7-1-.4-1.1-.9-1.1-.9h.1c.2.1.5 0 .6-.2.2-.4-.2-.7-.3-.9-.3-.4-.3-.7-.2-.9.1-.8.4-1.5.7-2 .7-.8 1.5-1.5 2.3-2 3.1-1.9 5.8-3 7.5-3.2-.5.1-1.8.5-2.9 1l-.9.6c-2.5 2-3.9 4.9-2.8 6.7.3.4.7.7 1.2.8-.1.1.1 0 .2 0zm-5.2 1.3c.7.4 1.1.7 1.2.9 0 0 0 .1 0 0-.1-.1-.5-.5-1.1-.7-.9-.3-1.1-1.3-1.1-1.3s-.6 1.7-.3 2.4c.3.6.6.9 1.1 1.2.5.3 1.2.6 1.4.8 0 0 0 .1 0 0-.2-.1-.7-.3-1.3-.6-.7-.4-1.2-.9-1.2-.9s0 1.8.5 2.4c.3.5.8.9 1 1l.1.1 1.4.7s0 .1 0 0c-.6.1-2-.4-2.7-1.4 0 .2 0 1.8.3 2.5.4.7 1.3 1.7 1.5 2 0 0 0 .1 0 0-.3-.3-1.4-1.3-1.6-1.7 0 0-.1 0 0 0 .2 1 .1 2 .1 2.9h-.1c0-.9-.1-2.1-.2-2.3 0 .1-.4.9-1.1 1.2.3-.3 1.3-1.6.9-3.7 0 0-1.4 2.3-3 2.2.6-.3 3.5-1.7 2.8-4.1 0 0-.6 1-1.6 1.3.5-.3 1.6-1 1.5-2.5 0 0-.1-.9 0-1.1 0 0-.5.8-1.1.9 0 0-.1 0 0 0 .6-.5 1-1 1-1.4 0-.5.4-1.8.4-1.8s-.5.6-1.2.6c0 0 1-.6 1.2-1.2.2.3.3 1.1 1.2 1.6z"/></defs><use xlink:href="#XMLID_331_" overflow="visible" fill="#fff"/><clipPath id="XMLID_3_"><use xlink:href="#XMLID_331_" overflow="visible"/></clipPath></g><g id="XMLID_326_"><defs><path id="XMLID_327_" d="M15.9 56.7l2.2-.4c.3 0 .3.1.3.1 0 .1-.1.1-.2.1s-.2 0-.5.2c-.3.1-.2.3-.1.4.1.1.2.1.4.1.3 0 .9 0 1.7-.2 1-.3.9.2.9.2 0 .8.5.6.5.6.6-.1 1-.3 1.3-.5 1.6.5 4.8 1.2 7.3.4 4.7-1.7 5.5-3.4 6.5-4.4.1-.1.2-.1.2-.2 1.4-1.6 2.2-4.2 2.1-6.9-.1-1.9-.8-3.8-2.4-4.9-.7-.5-1.3-.8-2.6-.7-2.2 0-4 2.7-2.2 4.4.4.4.8.6 1.2.7 1.8.6 2.9-1.3 2.9-1.3 1.2 2.4 1.1 4.3.5 5.9-.4-.8-1.2-1.3-1.6-1.4-.8-.2-2.1.1-2.1 1.7 0 1.7 1.6 1 1.6 1s.1.1.2.4c.4 1.8-3.1 3.4-4.9 1.8-1.8-1.6-.6-2.7-.6-2.7-.1-.3-.4-.7-1.4-.3s-.5 1.4-.5 1.4c-.6-.6-.5-1.5.6-1.8 1.1-.4 1.5.5 1.5.5.3-.9-.5-1.6-.5-1.6-1.4-1.2-2.3 0-2.3 0-1.8 1.9.4 4.4 1.3 5.3-4.3-4-1.2-6.4-1.2-6.4-.6-2.6-2-1.8-2-1.8.4.4-.4.6-.4.6h-.8c-.4 0-.7.1-1 .4-1.9 1.9-1.1 3.8-.7 4.5-1.7-2.7-.1-4.1-.1-4.1-1.1-.1-1.4 1.2-1.4 1.2-1.2 4.6 4.5 7.3 4.5 7.3.1 0 .2.1.3.1-5-.4-6.6-3.6-7.6-5.3-1.1-2-1.7-5.1-1.7-5.1-1.1.5-1 1.2-1.1 1.7 0 .4.1 1.1.1 1.5 0 .2 0 .5-.1.7-.2.4-.4.3-.5.2-.2-.1-.3-.3-.3-.6V48c0-.6-.2-1.4-.6-1.8-.4-.4-1-.3-1.1 0-.1.4-.4.5-.7.5-.3 0-.6-.3-.7-.8-.1-.5-.4-.7-.6-.6-.1.1-.3.1-.7.2s-.5.3-.5.3-.4.6-.3 1.4c.5.8.2.9-.4.8-.6-.1-.7.3-.7.4 0 .1 0 .5.3 1 .5.7 2.1 2.1 2.7 2.5.6.5.6 1.3-.2 1.3-.4 0-.7-.3-.9-.5-.2-.2-.2-.4-.3-.6 0-.2-.1-.5-.5-.8-.7-.5-1.3.4-1.3.3 0 0-.6-.3-1.1.1-.2.2-.2.5-.2.7 0 .1.1.3.2.4.1.2.4.5.4 1s0 .5.3.9c.1.2.5.2.9.2.2 0 .5 0 .7-.1.2-.1.6-.1.6.2v.1c0 .3-.3.5-.6.6-.2 0-.5.1-1 .4-.8.5-.2 1.1.2 1.2.2.1.8 0 1.1 0 .1 0 .2 0 .3.1.5.4 1.6 0 1.6 0s1.8-.7 2.9-1.2c1.1-.5 2.1-.7 2.5-.6.2 0 .2.1.2.2s-.1.2-.2.1c-.1 0-.4 0-.8.1-.6.2-.3.6-.1.5.2-.1.6 0 .6 0-.1.3.7.2.7.2zm-.9-2.6c-1 .1-1.7-.1-3.3 1 0 0-1.5 1.2-3.4 1.3 0 0 .9-.1 2.2-.9s2-1.2 2-1.2-2.5 0-3.5-.1-2.2-.2-2.2-.2.9-.1 1.1 0c0 0-.6-.4-.9-.9 0 0 .9 1 2.1 1.1 0 0-1-.5-1.4-1.7 0 0 .9 1.3 1.8 1.6.9.4 3.5.1 3.5.1s1.8-.3 2.4-.2c0 0-2.9-1.8-4.4-3.8-1.5-2-1.4-3.6-1.4-3.6s.5 2.6 2.7 4.6c0 0-.4-1.4-.2-3.3 0 0 .1 3.1.6 3.7.6.6 2.5 2.2 2.8 2.3 0 0-.4-.7-.2-1.9s0-3 0-3 .3 2 .2 3c-.1 1 .1 2.1.9 2.5.8.4 2.5 1.2 2.8 1.2 0 0-1.8-1.7-1.9-2 0 0 1.4 1.4 2.2 2 .3.2.8.3 1.1.5.4.1.9.3 1.3.3 0 0-.9-.1-1.4-.2-.3 0-.5-.1-.8-.1-.9 0-2.8 0-3.2.1.3-.1 1.4-.4 3.2-.3 0 0-1.4-.4-3.1-1.2-.1-.1-.3-.1-.4-.2 0-.4-.4-.6-1.2-.5z"/></defs><use xlink:href="#XMLID_327_" overflow="visible" fill="#fff"/><clipPath id="XMLID_4_"><use xlink:href="#XMLID_327_" overflow="visible"/></clipPath></g><path id="XMLID_267_" class="st0" d="M55.8 38.4c-1.8-1.8-2.6-1.4-3.2-1.2-.6.1-1.5 1.2-.9 2.4.1.3.3.5.6.6.3.1.7.1 1-.4.5-.9-.5-1.4-.5-1.4s1-1.1 2.3.3c1.1 1.2 1.7 2.2 1.3 3.2 0-.1 1-1.7-.6-3.5z"/><g id="XMLID_263_"><defs><path id="XMLID_264_" d="M26.5 35.1c.6.1 1.2.2 1.8.1 1.3-.1 2.4-.7 3.3-1.6 2.1-2.2 4.1-4.4 4.1-4.4s-2.3 2.5-5.4 4.8c-.7.5-1.4.8-2.2.9-2.8.2-3.2-2.5-3.2-2.5l.1-.2c.2.1.5.2.9.1.5-.2.8-.6.7-1-.1-.3-.4-.5-.8-.5-.1 0-.2 0-.3.1-.1 0-.2.1-.3.2-.4.1-.8.3-1 .6-.6.4-.5 2.8 2.3 3.4z"/></defs><use xlink:href="#XMLID_264_" overflow="visible" fill="#fff"/><clipPath id="XMLID_5_"><use xlink:href="#XMLID_264_" overflow="visible"/></clipPath></g><g id="XMLID_261_"><defs><path id="XMLID_262_" d="M18.2 64.3c-.2-.2-.7-.1-.9.2-.2.2-.2.4-.2.6H17s-2.3-1.4-.2-4S22 59 22 59s-2.7-.5-4.8 1.3c-.9.7-1.4 1.7-1.6 2.8-.4 2.2 1.3 3 1.7 2.9.3-.1.5-.3.7-.6.1 0 .1-.1.2-.2s.1-.1.1-.2c.1-.2.1-.5-.1-.7z"/></defs><use xlink:href="#XMLID_262_" overflow="visible" fill="#fff"/><clipPath id="XMLID_6_"><use xlink:href="#XMLID_262_" overflow="visible"/></clipPath></g><g id="XMLID_259_"><path id="XMLID_260_" class="st0" d="M49.5 71.3c.5-.6.5-2.6-.7-3.3s-2.8-.4-3.1 1c0 0 1.3-.8 1.8.1 0 0-1.6-.4-1.5.9 0 0 1-.5 1.5.4.4.9-.3 1.7-.7 1.8 0 0 1.2-1 .2-1.8s-.3.5-1.4.9-2-.4-2-1.3c0 0 .4 1.4 1.7.9.9-.3.7-.6.3-.9-.3-.3-.5-.8-.4-1.2.1-.4.3-.8.5-1 .7-.7 1.6-.6 2.2-.4-.2-.4-.3-.7-.3-1-.1-.9.3-1.8 1-2.4 2.1-1.6 5.5-.6 5.5-.6-1.9-.2-3.2.2-3.9.6-.7.4-1.4 1-1.4 1.8 0 .2.1.5.2.7.3.4.8.7 1.2.6.7-.3 1.5-.9 1.5-.9-.3.8-.4 1.4-.4 1.8 0 .3.2.6.5.7.2.1.5 0 .7-.3.1-.1 0-.2-.1-.1-.3.1-.5-.2-.3-.5 4.3-4.7 10.4-.1 10.4-.1-5.1-2.5-8.2-.6-8.6.7-.2.7.6 1.6 1.3 1.7.5.1 1.7-.2 1.7-.2s.1.3.1.6c0 .5.6.9 1 .6.8-.4 2.1-.8 3.2-.8 1 0 2.3.3 3.2.7.7.3 1 .6 1.8.8 1.3.4 1.5.2 1.5.2s-5-9.9-14.5-10.7c-7.3-.6-10.2 3.3-10.7 5.4 0 0-.1.6-.1 1.3 0 1.2.2 2.4.9 3.4.5.9 1.4 1.7 2.7 1.6 2.6-.1 3.1-1.1 3.5-1.7z"/></g><g id="XMLID_254_"><defs><path id="XMLID_255_" d="M33.1 28.6c1.9-.8 6.2-2.1 6.2-2.1s1.3-.4 3.2-.6c-1.2.3-2.4.9-3.6 1.6-3.2 1.9-4.3 5.2-4.3 5.2s-1.1 3.1-1 4.7c.1 1.6.7 1.7.7 1.7 1.3.3 1.3-1.3 1.1-1.9-.1-.4-.2-1.1.3-.5.6.6 1.2.2 1.2.2s.5-.3 0-1.3.7-.4.7-.4 1.6.6 1.8-.5c.2-1-.9-2.3-1-2.4-.7-.8.5-.9.5-.9h.6c.9-.4.3-1.3.3-1.7s.1-.5.8-.4c.7.1 1.2-1.6 1.2-1.6s1.6-1.5 4.3-1.7c2.9 0 5.9 2.2 5.9 2.2.1.1.3.2.4.4-4.1-.4-9.2 3.1-5.7 7.4 0 0 .9 1.2 2.4-.1 0 0 .8-.8.5-1.7 0 0-.5.9-1.6.5s-1.2-1.3-.6-1.9c0 0-.5 1.1.5 1.4 1 .3 1.3 0 1.4-.4 0 0-1.2-1.2.6-2.9 1.8-1.7 5.5.1 5.1 1.9-.1.3-.2.4-.2.4s-1.6-.7-1.6 1.1c0 1.6 1.4 2 2.2 1.7.5-.2 1.5-.8 1.8-1.9.4.8.9 2.1 1 3.8v.7c0 1.2-.3 3.7-3 4.9-3.8 1.7-3.3-.2-3.3-.2s-.8-.9-1.6.2c0 0-.3-1-1.5-.9 0 0-1.4-.3-.7-2.2 0 0-2.4.4-1.8 3.4 0 0-.7.7.5 1.8 1.3 1.2 4.7 1.9 7.7.5-1.2.8-2.7 1.3-5.7 1.4-1.6 0-3.2-.4-4.5-1.2-1.2-.7-2.4-1.8-3.1-3.6 0 0 3.6 1.4 4.9-1.8 1.3-3.2-2.2-4.8-2.2-4.8s-3.1-1.3-4.8 2.8c-.9 2.3.3 4.4 1.8 6.2 1.4 1.6 3.1 2.8 5.1 3.4 1.6.5 4 .7 6.2.1 5.8-1.5 7.3-5.2 7.3-8.3 0-1.7-.5-7.7-4.4-11.1-.6-.5-1.1-1-1.6-1.4 0 0-1.5-1.4-2.7-2.7-.1-.1-.3-.3-.3-.7 0-.2 0-.5-.2-.7-.1-.1-.3-.1-.3 0v.1s-.1-.4.3-1c.2-.2.3-.5.3-.7.1-.2.1-.4 0-.7 0-.2-.1-.3-.3-.2-.1 0-.1.1-.1.1-.1.2-.4.8-.6 1-.2.3-.1-.4-.1-.4s0-.5.7-1.2c.6-.6.7-.8.7-1.3 0-.4-.5-.4-.7-.2-.2.2-.4.5-.4.5s-.3.3-.2-.2c.2-.5.9-.7.9-.7s.5-.1 1-.6.3-.9.3-.9-.2-.5-.7-.2c-.1.1-.3.2-.4.3-.1.1-.2.1-.3.1-.1 0-.1-.1 0-.3.4-.3.7-.5 1.6-1.1.3-.2.3-.2.3-.4 0-.1-.1-.3-.2-.3h-.2s-.3.1-.1-.2c.2-.3 1.1-.7 1-1 0-.1 0 0-.2-.2-.1-.1-.1-.3-.7.1s-.8.5-.9.3c-.1-.1-.4-.2-.8.1-.3.4-.5.8-.5.8s-.3.7-.4.5c-.1-.3.4-1.6-.3-1.4-.4.1-.7.5-.9.8-.2.3-.3.8-.3 1 0 .2.1.5.3.9v.4c0 .2-.1.4-.3.5-.2.1-.3.3-.4.5v.3c0 .1.1.2.1.3.2.2.7.7.7 1.6 0 0 0 .1-.2 0h-.2c-.1.1-.2.3-.1.6 0 .2.1.4.2.6l.6.6s.5.4.3.6c-.2.2-.3.5.1 1 .3.3.7.4.9.4.2 0 .4.1.5.3.2.2.4.5.6.8-1.2-.8-2.2-1.2-3.4-1.6-1.1-.4-2.3-.7-3.6-1.2-4.3-2.4-3-2.9-3-2.9.7-.3.8-1.4-.2-1.4s-1 .8-1 .8c-.9-.2-.8.7-.8.7-.1.8.5 1.5 1.6 2.1 0 .4-.3.6-1.4.4 0 0-2.1.2-4-1.7 0 0 2.6-.9 1.6-3.3s-3.7-2-5.1-.3c-1.2 1.9.2 3.9 1.1 4.6.8.6 1.5 2 10.6 2.3 0 0-11.3 2.2-13-4.1 0 0-1.7.6-1 2.8 0 0-3.2.6-2.8 3.5.6 3.6 4.7 3.2 6.6 2.3zm16.7-4c.1 0 0 0 0 0-.3-.3-1-.5-1-.5.3-.3.7.2.7.2s-.6-1-.7-1.4c-.1-.3-.4-.8-.8-1.1.3.1.7.7.7.7-.1-.2-.1-1-.1-1 0-1.4-.4-2.1-.6-2.4 0 0 0-.1 0 0 .5.4.7 1.3.7 1.3.7-2.3-1-2.5 0-4.5-.6 1.3.4 2.8.4 2.8.8-1.7 1.2-2.9 1.2-3.2.1.4-.2 1.2-.2 1.2.5-.7.9-.7 1.5-1.3-.5.5-1.2.9-1.7 1.8.3-.3 1.3-.6 1.6-.6-.3.1-1.2.5-1.7.9s-.9 1.9-.9 2c.5-.8 1.5-.9 1.8-.9-.3.1-.8.3-.9.3 0 0-.1 0-.1.1-.1.1-.5.3-.8.8-.4.6-.3 2.2-.3 2.2s.2-.6.6-.9c.3-.3.6-.4.7-.5-.1.2-.5.4-.8.7-.3.3-.4.6-.5 1.2-.1.7.7 2 .8 1.9 0 0-.2-.9.2-1.3.2-.3.4-.6.5-.7 0 .2-.2.4-.4.9-.1.4.1 1.1.1 1.3zM44.1 26c-.5.1-3.1.8-3.1 2.5 0 0-.3-.9.3-1.4 0 0-3 .9-2.2 3.4 0 0-.6-.8-.1-2 0 0-2.9 2.8-.8 5.3 0 0-1.7-.9-.6-4 0 0-2.3 2.3-1.5 5.8 0 0 0 .1-.1.1-.2-.1-.6-1.5-.4-2.7 0 0-.8 2-1.1 4.7.1-.1-.6-9.6 9.6-11.7z"/></defs><use xlink:href="#XMLID_255_" overflow="visible" fill="#fff"/><clipPath id="XMLID_7_"><use xlink:href="#XMLID_255_" overflow="visible"/></clipPath></g><g id="XMLID_230_"><g id="XMLID_250_"><defs><path id="XMLID_251_" d="M76 79.4c-.4.4-.7.9-.6 1.5.1 2 .8 2.4 1.3 2.8.4.4 2 .5 2.6-.4.6-.9.4-2.1-.6-2.4 0 0 .6 1.1-.2 1.4 0 0 .4-1.2-.6-1.2 0 0 .3.8-.4 1.1-.7.3-1.3-.3-1.4-.6 0 0 .7.9 1.4.2.6-.8-.4-.2-.6-1.1-.2-.9.4-1.6 1.1-1.5 0 0-1.1.3-.8 1.3.3 1.1.6.2 1.1 0 .6-.2 1.1-.3 1.5-.2.2.2.4.5.6.8.1.1.1.2 0 .5 0 .1-.1.3 0 .5.1.1.2.1.3 0 0 0 0 .3-.4.6-.2 0-.3.2-.3.3-.1.2 0 .3 0 .5.1.1.1.2.3.1l.1-.1c.1-.1.3-.6.5-.7.2-.2.1.2.1.2s0 .3-.5.9c-.4.6-.4.8-.2 1.1.2.3.6 0 .6-.2l.2-.4s.2-.3.2.1c0 .3-.5.7-.5.7s-.4.3-.5.8c-.1.6.4.7.4.7s.4.1.6-.4l.1-.3c0-.1.1-.2.1-.2.1-.1.2 0 .1.1 0 .3-.2.6-.2 1.4 0 .2.1.5.2.6.1.1.3.1.3-.1l.1-.4s.1-.2.2 0 .5 1 .9.8c.1 0 .1-.1.1-.1 0-.1 0-.2-.1-.4-.2-.4 0-.5.1-.5s.4-.2.3-.4l-.2-.4s-.2-.2 0-.2.7.3 1-.1c.2-.2.1-.4 0-.5-.1-.1-.1-.2-.2-.2-.1-.3-.4-.4-.7-.4-.1 0-.1-.1-.2-.1-.1-.1-.1-.2.1-.3.1-.1.1-.2.1-.3 0 0 0-.1-.1-.1 0 0-.1-.1-.2-.1-.2 0-.8-.1-.9-.6 0 0 0-.1.2-.1.1 0 .2 0 .2-.1.1-.1.1-.2.1-.3-.1-.1-.1-.2-.3-.2l-.4-.2s-.4-.2-.2-.3c.2-.1.3-.3.1-.5-.2-.2-.5-.2-.7-.3-.1 0-.3-.1-.4-.2l-.7-1c.2 0 .4.1.6.1.3.2.5.3.7.5.6.4 1.1.8 1.6 1.3 1.2 1.3 4.2 4.1 7.1 4.8 3.8 1 10.3-1.2 12.4-7 1.7-5.8-2.7-7.7-2.7-7.7-1.1-.4-2.3-.6-3-.3-1.3.5-1.8 1.7-1.8 3.1 0 1 .2 1.7 1.5 2.3 2.5 1 4-1.4 4-1.4.6.8.5 1.2.5 2.1 0 .8-.3 1.5-1 1.9-2.3 1.3-3.5-.6-3.9-1.4-.1-.1-.2-.1-.3 0-2 3.3 2.1 4.3 2.1 4.3-1.4 1.1-3.1 1.3-3.9.7-.6-.5-1-1-.9-2.1.4-5.3-4.4-5.9-4.4-5.9-.2-1.1.7-2 1.3-2.4.1-.1.1-.3-.1-.3-5.8-.2-6.3 4.3-6.3 4.3-4.6-1.6-7.6 2.2-7.6 2.2zm5 2.3s0-.1 0 0c.2.2.8.3.8.3-.3.1-.6-.1-.6-.1s.4.6.5.8c.1.2.4.4.7.5-.3 0-.7-.3-.7-.3 0 .1.2.5.2.5.2.7.8.9 1.1 1-.5 0-1-.4-1-.4.1 1.2 1.7 1.5 2 1.5-.7.3-1.8-.6-1.8-.6.1 1.1.8 1.5 1 1.6-.3 0-.7-.4-.7-.4 0 .1.1.7.3 1.1-.2-.4-.4-.9-.5-1.4-.1.2-.4.9-.5 1.1.1-.2.3-.8.4-1.2.1-.4-.2-1.2-.3-1.2-.2.6-.8 1-1 1.2.1-.2.4-.5.5-.6l.1-.1c.1-.1.3-.4.3-.7.1-.4-.2-1.2-.2-1.2s-.1.3-.4.6l-.5.5c.1-.2.3-.4.5-.6.2-.2.3-.4.3-.7 0-.3-.5-1.1-.5-1.1s0 .5-.3.8c-.2.2-.4.4-.4.5 0-.1.1-.3.4-.6.3-.3.3-.7.3-.8z"/></defs><use xlink:href="#XMLID_251_" overflow="visible" fill="#fff"/><clipPath id="XMLID_8_"><use xlink:href="#XMLID_251_" overflow="visible"/></clipPath></g><g id="XMLID_246_"><defs><path id="XMLID_247_" d="M107.4 60.2c.5 0 .9-.3 1.2-.8 1.1-1.9-.2-4.7-2.8-6.7l-.9-.6c-1.2-.6-2.5-.9-2.9-1 1.6.2 4.3 1.2 7.5 3.2.8.5 1.6 1.2 2.3 2 .3.5.5 1.2.7 2 .1.2.1.5-.2.9-.1.2-.5.5-.3.9.1.2.4.3.6.2h.1s-.2.5-1.1.9c-.5.2-.7.4-.9.7-.2.3-.3.6-.3.9 0 .2.2.5.5.4.1 0 .2-.1.3-.1.3-.2 1-.8 1.3-1 .4-.2 0 .5 0 .5s-.3.5-1.4 1.3c-1.2.8-1.3 1.2-1.1 1.9.2.6 1 .4 1.3.1.3-.4.6-.6.6-.6s.5-.4.3.2c-.2.6-1.4 1-1.4 1s-.9.3-1.4 1.3c-.5 1 .3 1.5.3 1.5s.7.5 1.3-.3l.4-.6c.1-.1.2-.2.4-.3.2-.1.3.1.2.3-.3.6-.8 1-1.3 2.4-.2.5-.2.9 0 1.1.2.3.5.4.7.1l.5-.6s.3-.3.4.1c.1.4.3 2.2 1.1 2.1.1 0 .2-.1.3-.2.1-.1.1-.4 0-.8-.2-.8.3-1 .6-1 .3.1.8-.1.8-.6s-.2-1-.2-1-.2-.6.2-.4c.4.2 1.2 1 2 .5.4-.3.5-.6.4-.9-.1-.2-.2-.4-.3-.5-.2-.2-.6-.6-1.2-.9l-.3-.3c-.1-.2 0-.3.3-.5.3-.1.4-.3.4-.5 0-.1 0-.2-.1-.3-.1-.1-.2-.2-.3-.2-.4-.1-1.5-.7-1.4-1.6 0 0 0-.2.5 0 .2.1.3.1.5 0s.3-.2.3-.5c0-.2-.2-.4-.3-.6l-.8-.8s-.7-.6-.2-.7.8-.3.5-.9c-.2-.5-.8-.8-1.2-1-.3-.2-.5-.4-.5-.7l-.5-1.8c3.1 3.7 5.6 9 8.6 11.1 3.9 2.7 6.9-1.6 6.9-1.6-.8.5-4.8 2.8-7.6-.7 3.4 3.3 7.6.7 7.9-.3.3-1.3.7-3.2-.5-4.6-1.6-1.9-3.1-1.7-4-1.4-.3.1-.5.2-.7.3l-.2.2h.1c-.1.2-.2.3-.2.5 0 .6.6 1.1 1.4 1.1.4 0 .8-.1 1-.4.6.7.4 4.2-2.8 3.8-3.2-.5-5.6-4.8-7.6-7.6s-6.2-5.6-8.3-6.4c-2.2-.8-5.9-1.4-9.8-.5-3 .8-4.1 2.9-4.4 4.1-.3 1.1-.3 3.7 1.3 4.7 1.3.8 2.8.9 4.2-.2 1.2-1 .9-2.6.5-3.3-.5-.7-1.8-1.5-2.9-.2-.7.7-.4 1.7.3 1.7.4.1.7-.3.7-.3.5.2.4.9.2 1.2-.4.4-1.1.3-1.6.1-1.9-.7-1.4-3-1.4-3s.4-2.9 4.2-3.9c1-.3 2.1-.1 3 .5 1.7 1.2 2.4 2.6 2.4 2.6 2.2 3.5-.9 3.9-.9 3.9-.6-.4-1.1 0-.8 1.1.2 1.1 1.6.7 1.6.7s.2 1.3 1.6 1.3c1.3 0 2.2-1.6 2.2-1.6-.3-.2-.1-.1.1-.1zm5.8-.3c0-.1 0-.1 0 0 .3.5 1.3 1.1 1.3 1.1-.7 0-1.1-.7-1.1-.7s.4 1.3.4 1.8c0 .4.5 1 1 1.4-.6-.2-1.1-.9-1.1-.9v1.1c-.1 1.5 1 2.3 1.5 2.5 0 0 0 .1 0 0-1-.3-1.6-1.3-1.6-1.3-.7 2.4 2.3 3.8 2.8 4.1-1.6.1-3-2.2-3-2.2-.4 2.1.6 3.4.9 3.7 0 0 0 .1 0 0-.6-.3-1-1.1-1.1-1.2-.1.2-.3 1.4-.2 2.3h-.1c-.1-.9-.2-1.9.1-2.9-.3.4-1.3 1.4-1.6 1.7 0 0-.1 0 0 0 .3-.4 1.2-1.4 1.5-2 .3-.6.4-2.3.3-2.5-.7 1-2.1 1.4-2.6 1.6.4-.2 1.1-.6 1.4-.7.1 0 .1-.1.1-.1.2-.1.7-.5 1-1 .4-.7.5-2.4.5-2.4s-.5.5-1.2.9c-.6.3-1.1.5-1.3.6.2-.2.9-.6 1.4-.8.6-.3.8-.5 1.1-1.2.3-.6-.3-2.4-.3-2.4s-.2 1-1.1 1.3c-.6.2-1 .5-1.1.7 0 0-.1 0 0 0 .1-.2.4-.5 1.2-.9.7-.6.8-1.4.9-1.6z"/></defs><use xlink:href="#XMLID_247_" overflow="visible" fill="#fff"/><clipPath id="XMLID_9_"><use xlink:href="#XMLID_247_" overflow="visible"/></clipPath></g><g id="XMLID_242_"><defs><path id="XMLID_243_" d="M134.7 56.5s.5-.1.6 0c.2.1.5-.3-.1-.5-.4-.1-.7-.1-.8-.1-.1 0-.2-.1-.2-.1 0-.1 0-.1.2-.2.4 0 1.4.1 2.5.6s2.9 1.2 2.9 1.2 1.1.4 1.6 0c.1-.1.2-.1.3-.1.3 0 .9.1 1.1 0 .3-.1 1-.7.2-1.2-.5-.3-.9-.4-1-.4-.3 0-.6-.2-.6-.6V55c0-.3.3-.3.6-.2.2.1.5.1.7.1.3 0 .7-.1.9-.2.3-.3.3-.3.3-.9 0-.4.3-.8.4-1 .1-.1.2-.2.2-.4.1-.2.1-.5-.2-.7-.4-.4-1-.1-1.1-.1 0 0-.6-.9-1.3-.3-.4.3-.5.7-.5.8 0 .2-.1.4-.3.6-.2.2-.5.4-.9.5-.8.1-.8-.8-.2-1.3.6-.5 2.3-1.8 2.7-2.5.3-.4.3-.9.3-1 0-.1-.1-.5-.7-.4-.6.1-.9 0-.8-.7.1-.9-.3-1.4-.3-1.4s-.1-.3-.5-.3c-.4-.1-.6-.1-.7-.2-.1-.1-.5.1-.6.6-.1.5-.4.8-.7.8-.3 0-.5-.1-.7-.5-.1-.4-.7-.4-1.1 0-.4.4-.6 1.2-.6 1.8 0 .4.1 1.1 0 1.5 0 .2-.1.4-.3.6-.2.1-.4.2-.5-.2-.1-.2-.1-.5-.1-.7.1-.4.2-1.1.1-1.5-.1-.6 0-1.2-1.1-1.7 0 0-.5 3.1-1.7 5.1-1 1.7-2.6 4.9-7.6 5.3.1 0 .2-.1.3-.1 0 0 5.7-2.7 4.5-7.3 0 0-.2-1.3-1.4-1.2 0 0 1.6 1.3-.1 4.1.4-.7 1.2-2.6-.7-4.5-.3-.3-.6-.4-1-.4h-.8s-.8-.2-.4-.6c0 0-1.4-.8-2 1.8 0 0 3 2.3-1.2 6.4.9-.9 3.1-3.5 1.3-5.3 0 0-.9-1.2-2.3 0 0 0-.8.8-.5 1.6 0 0 .5-.9 1.5-.5 1.1.4 1.2 1.3.6 1.8 0 0 .5-1-.5-1.4s-1.3 0-1.4.3c0 0 1.2 1.2-.6 2.7-1.8 1.6-5.2-.1-4.9-1.8.1-.3.2-.4.2-.4s1.6.7 1.6-1c0-1.5-1.3-1.9-2.1-1.7-.4.1-1.2.6-1.6 1.4-.6-1.5-.7-3.5.5-5.9 0 0 1.1 1.9 2.9 1.3.4-.1.8-.3 1.2-.7 1.8-1.7.1-4.5-2.2-4.4-1.3-.1-1.9.2-2.6.7-1.5 1.1-2.3 3-2.4 4.9-.1 2.7.8 5.3 2.1 6.9.1.1.1.2.2.2 1 1 1.8 2.6 6.5 4.4 2.4.9 5.7.1 7.3-.4.3.2.8.4 1.3.5 0 0 .5.2.5-.6 0 0-.1-.5.9-.2.7.2 1.4.2 1.7.2.1 0 .3 0 .4-.1.1-.1.2-.2-.1-.4-.3-.1-.4-.2-.5-.2-.1 0-.2 0-.2-.1s0-.2.3-.1l2.2.4c.5-.1 1.3 0 1.1-.3zm-1.1-2.1c-.1.1-.3.2-.4.2-1.7.8-3.1 1.2-3.1 1.2 1.8-.1 2.9.2 3.2.3-.4-.1-2.3-.1-3.2-.1-.3 0-.5 0-.8.1-.5.1-1.4.2-1.4.2.4-.1.9-.2 1.3-.3.4-.1.8-.2 1.1-.5.8-.6 2.2-2 2.2-2-.1.4-1.9 2-1.9 2 .2-.1 2-.9 2.8-1.2.8-.4 1-1.5.9-2.5-.1-1 .2-3 .2-3s-.2 1.8 0 3-.2 1.9-.2 1.9c.4 0 2.3-1.7 2.8-2.3.6-.6.6-3.7.6-3.7.3 1.9-.2 3.3-.2 3.3 2.2-2 2.7-4.6 2.7-4.6s.1 1.7-1.4 3.6c-1.5 2-4.4 3.8-4.4 3.8.5-.1 2.4.2 2.4.2s2.5.3 3.5-.1c.9-.4 1.8-1.6 1.8-1.6-.4 1.2-1.4 1.7-1.4 1.7 1.3-.2 2.1-1.1 2.1-1.1-.3.5-.9.9-.9.9.2-.1 1.1 0 1.1 0s-1.3.2-2.2.3-3.5.1-3.5.1.8.4 2 1.2c1.2.8 2.2.9 2.2.9-1.9-.1-3.4-1.3-3.4-1.3-1.7-1.2-2.3-.9-3.3-1-.6 0-1 .2-1.2.4z"/></defs><use xlink:href="#XMLID_243_" overflow="visible" fill="#fff"/><clipPath id="XMLID_10_"><use xlink:href="#XMLID_243_" overflow="visible"/></clipPath></g><g id="XMLID_240_"><defs><path id="XMLID_241_" d="M123.5 35.1c-.6.1-1.2.2-1.8.1-1.3-.1-2.4-.7-3.3-1.6-2.1-2.2-4.1-4.4-4.1-4.4s2.3 2.5 5.4 4.8c.7.5 1.4.8 2.2.9 2.8.2 3.2-2.5 3.2-2.5l-.1-.2c-.2.1-.5.2-.9.1-.5-.2-.8-.6-.7-1 .1-.3.4-.5.8-.5.1 0 .2 0 .3.1.1 0 .2.1.3.2.4.1.8.3 1 .6.6.4.5 2.8-2.3 3.4z"/></defs><use xlink:href="#XMLID_241_" overflow="visible" fill="#fff"/><clipPath id="XMLID_11_"><use xlink:href="#XMLID_241_" overflow="visible"/></clipPath></g><g id="XMLID_238_"><defs><path id="XMLID_239_" d="M131.8 64.3c.2-.2.7-.1.9.2.2.2.2.4.2.6h.1s2.3-1.4.2-4S128 59 128 59s2.7-.5 4.8 1.3c.9.7 1.4 1.7 1.6 2.8.4 2.2-1.3 3-1.7 2.9-.3-.1-.5-.3-.7-.6-.1 0-.1-.1-.2-.2s-.1-.1-.1-.2c-.1-.2-.1-.5.1-.7z"/></defs><use xlink:href="#XMLID_239_" overflow="visible" fill="#fff"/><clipPath id="XMLID_12_"><use xlink:href="#XMLID_239_" overflow="visible"/></clipPath></g><g id="XMLID_236_"><path id="XMLID_237_" class="st0" d="M100.5 71.3c-.5-.6-.5-2.6.7-3.3s2.8-.4 3.1.9c0 0-1.3-.8-1.8.1 0 0 1.6-.4 1.5.9 0 0-1-.5-1.5.4-.4.9.3 1.7.7 1.8 0 0-1.2-1-.2-1.8s.3.5 1.4.9 2-.4 2-1.3c0 0-.4 1.4-1.7.9-.9-.3-.7-.6-.3-.9.3-.3.5-.8.4-1.2-.1-.4-.3-.8-.5-1-.7-.7-1.6-.6-2.2-.4.2-.4.3-.7.3-1 .1-.9-.3-1.8-1-2.4-2.1-1.6-5.5-.6-5.5-.6 1.9-.2 3.2.2 3.9.6.7.4 1.4 1 1.4 1.8 0 .2-.1.5-.2.7-.3.4-.8.7-1.2.6-.7-.3-1.5-.9-1.5-.9.3.8.4 1.4.4 1.8 0 .3-.2.6-.5.7-.2.1-.5 0-.7-.3-.1-.1 0-.2.1-.1.3.1.5-.2.3-.5-4.3-4.7-10.4-.1-10.4-.1 5.1-2.5 8.2-.6 8.6.7.2.7-.6 1.6-1.3 1.7-.5.1-1.7-.2-1.7-.2s.1.2.1.6c0 .5-.6.9-1 .6-.8-.4-2.1-.8-3.2-.8-1 0-2.3.3-3.2.7-.7.3-1 .6-1.8.8-1.3.4-1.5.2-1.5.2s5-9.9 14.5-10.7c7.3-.6 10.2 3.3 10.7 5.4 0 0 .1.6.1 1.3 0 1.2-.2 2.4-.9 3.4-.5.9-1.4 1.7-2.7 1.6-2.8 0-3.3-1-3.7-1.6z"/></g><g id="XMLID_231_"><defs><path id="XMLID_232_" d="M123.5 26.7c.5-2.9-2.8-3.5-2.8-3.5.7-2.2-1-2.8-1-2.8-1.7 6.3-13 4.1-13 4.1 9.1-.3 9.8-1.7 10.6-2.3.8-.6 2.3-2.7 1.1-4.6-1.4-1.7-4.1-2.1-5.1.3s1.6 3.3 1.6 3.3c-1.9 1.9-4 1.7-4 1.7-1.1.2-1.4-.1-1.4-.4 1-.6 1.7-1.3 1.6-2.1 0 0 .1-.9-.8-.7 0 0-.1-.8-1-.8-1 0-.9 1.2-.2 1.4 0 0 1.3.5-3 2.9-1.2.4-2.5.8-3.6 1.2-1.2.4-2.2.8-3.4 1.6.2-.3.4-.6.6-.8.2-.2.3-.3.5-.3s.6-.1.9-.4c.4-.5.3-.8.1-1-.2-.2.3-.6.3-.6l.6-.6c.1-.1.2-.4.2-.6 0-.3 0-.5-.1-.6-.1-.1-.2-.1-.2 0-.3.1-.2 0-.2 0-.1-.9.5-1.4.7-1.6.1-.1.1-.2.1-.3v-.3c0-.2-.1-.4-.4-.5-.2-.1-.3-.3-.3-.5v-.4c.2-.4.2-.7.3-.9 0-.2-.1-.7-.3-1-.2-.3-.5-.7-.9-.8-.7-.2-.2 1.1-.3 1.4-.1.3-.4-.5-.4-.5s-.2-.4-.5-.8-.7-.3-.8-.1c-.1.1-.3.1-.9-.3-.6-.4-.7-.1-.7-.1l-.2.2c-.1.3.8.7 1 1 .2.3-.1.2-.1.2h-.2c-.1.1-.3.2-.2.3 0 .2 0 .2.3.4.9.6 1.3.8 1.6 1.1.1.1.1.3 0 .3s-.2-.1-.3-.1c-.1-.1-.3-.2-.4-.3-.6-.3-.7.2-.7.2s-.2.5.3.9c.5.5 1 .6 1 .6s.8.2.9.7c.1.5-.2.2-.2.2s-.2-.2-.4-.5c-.2-.2-.6-.2-.7.2-.1.5 0 .7.7 1.3.6.6.7 1.2.7 1.2s.1.7-.1.4c-.1-.2-.4-.8-.6-1 0-.1-.1-.1-.1-.1-.2-.1-.2.1-.3.2-.1.2-.1.5 0 .7.1.2.1.4.3.7.4.5.3 1 .3 1v-.1c-.1-.2-.2-.2-.3 0-.2.2-.2.5-.2.7 0 .4-.2.6-.3.7-1.3 1.2-2.8 2.6-2.7 2.7-.5.4-1 .9-1.6 1.4-3.9 3.4-4.4 9.5-4.4 11.1 0 3.1 1.4 6.8 7.3 8.3 2.2.6 4.6.4 6.2-.1 2-.6 3.8-1.8 5.1-3.4 1.5-1.8 2.7-4 1.8-6.2-1.6-4.1-4.8-2.8-4.8-2.8s-3.5 1.6-2.2 4.8c1.3 3.2 4.9 1.8 4.9 1.8-.7 1.8-1.9 2.9-3.1 3.6-1.4.8-2.9 1.2-4.5 1.2-2.9 0-4.5-.5-5.7-1.4 3.1 1.4 6.5.7 7.7-.5 1.2-1.1.5-1.8.5-1.8.6-3-1.8-3.4-1.8-3.4.7 1.8-.7 2.2-.7 2.2-1.1-.1-1.5.9-1.5.9-.8-1.1-1.6-.2-1.6-.2s.5 1.9-3.3.2c-2.7-1.2-3-3.7-3-4.9v-.7c.1-1.8.6-3 1-3.8.3 1.1 1.3 1.7 1.8 1.9.8.2 2.2-.1 2.2-1.7 0-1.8-1.6-1.1-1.6-1.1s-.1-.1-.2-.4c-.4-1.9 3.3-3.6 5.1-1.9 1.8 1.7.6 2.9.6 2.9.1.3.4.7 1.4.4 1-.3.5-1.4.5-1.4.6.6.5 1.5-.6 1.9-1.1.4-1.6-.5-1.6-.5-.3.9.5 1.7.5 1.7 1.5 1.3 2.4.1 2.4.1 3.6-4.3-1.5-7.8-5.7-7.4l.4-.4s3-2.3 5.7-2.1c2.7.1 4.3 1.7 4.3 1.7s.5 1.7 1.2 1.6c.7-.1.8-.1.8.4s-.5 1.3.3 1.7h.6s1.2.1.5.9c-.1.1-1.2 1.3-1 2.4.2 1 1.8.5 1.8.5s1.2-.6.7.4 0 1.3 0 1.3.6.4 1.2-.2c.6-.6.4.1.3.5-.1.6-.1 2.2 1.1 1.9 0 0 .6-.1.7-1.7.1-1.6-1-4.7-1-4.7s-1.1-3.3-4.3-5.2c-1.2-.7-2.4-1.3-3.6-1.6 1.9.2 3.2.6 3.2.6s4.4 1.3 6.2 2.1c2.1.4 6.2.8 6.8-2.4zm-23.4-3.6c-.3-.5-.4-.7-.4-.9.1.1.2.4.5.7.4.4.2 1.3.2 1.3s.8-1.3.8-1.9c-.1-.6-.2-.9-.5-1.2-.3-.3-.6-.5-.8-.7.1.1.4.3.7.5.4.3.6.9.6.9s.1-1.7-.3-2.2c-.3-.4-.6-.7-.8-.8 0 0-.1 0-.1-.1-.2-.1-.7-.2-.9-.3.3 0 1.2.1 1.8.9 0-.1-.4-1.6-.9-2-.4-.5-1.4-.8-1.7-.9.3 0 1.3.4 1.6.6-.5-.9-1.2-1.3-1.7-1.8.6.5 1 .6 1.5 1.3 0-.1-.3-.8-.2-1.2.1.4.4 1.5 1.2 3.2 0 .1 1.1-1.5.4-2.8.9 2-.7 2.2 0 4.5 0 0 .2-.9.7-1.3-.2.3-.6 1.1-.6 2.4 0 0 0 .9-.1 1 0 0 .4-.6.7-.7-.4.4-.7.8-.8 1.1-.1.4-.7 1.4-.7 1.4s.4-.4.7-.2c0 0-.7.2-1 .5.2 0 .4-.7.1-1.3zm15.3 14.5c-.3-2.7-1.1-4.7-1.1-4.7.2 1.3-.2 2.6-.4 2.7 0 0-.1 0-.1-.1.8-3.6-1.5-5.8-1.5-5.8 1.1 3-.6 4-.6 4 2.2-2.4-.8-5.3-.8-5.3.5 1.2-.1 2-.1 2 .7-2.4-2.2-3.4-2.2-3.4.6.4.3 1.4.3 1.4-.1-1.6-2.6-2.3-3.1-2.5 10.3 2.2 9.6 11.7 9.6 11.7z"/></defs><use xlink:href="#XMLID_232_" overflow="visible" fill="#fff"/><clipPath id="XMLID_13_"><use xlink:href="#XMLID_232_" overflow="visible"/></clipPath></g></g><path id="XMLID_171_" class="st0" d="M96.6 39.8c.3.5.7.5 1 .4.3-.1.5-.3.6-.6.6-1.2-.3-2.3-.9-2.4-.6-.1-1.4-.6-3.2 1.2-1.7 1.7-.6 3.4-.6 3.4-.5-1.1.1-2.1 1.3-3.2 1.3-1.4 2.3-.3 2.3-.3s-1 .5-.5 1.5z"/><g id="XMLID_108_"><g id="XMLID_109_"><defs><path id="XMLID_110_" d="M124.2 32.3c.3.1.6.1.9-.1l.1.2s-.4 2.6-3.2 2.5c-.8 0-1.6-.4-2.2-.9-3.1-2.3-5.4-4.8-5.4-4.8s1.9 2.3 4.1 4.4c.9.9 2.1 1.5 3.3 1.6.6 0 1.2 0 1.8-.1 2.8-.7 2.9-3 2.5-3.5-.2-.3-.7-.5-1-.6-.1-.1-.2-.1-.3-.2-.1 0-.2 0-.3-.1-.4 0-.7.2-.8.5-.4.5 0 1 .5 1.1z"/></defs><use xlink:href="#XMLID_110_" overflow="visible" fill="#fff"/><clipPath id="XMLID_14_"><use xlink:href="#XMLID_110_" overflow="visible"/></clipPath><path id="XMLID_167_" class="st1" d="M114.5 29.2l-.3.3v-.3z"/><path id="XMLID_166_" class="st1" d="M114.8 29.2l-.6.7v-.4l.3-.3z"/><path id="XMLID_165_" class="st1" d="M115.1 29.2l-.9 1v-.3l.6-.7z"/><path id="XMLID_164_" class="st1" d="M115.3 29.2l-1.1 1.3v-.3l.9-1z"/><path id="XMLID_163_" class="st1" d="M115.6 29.2l-1.4 1.6v-.3l1.1-1.3z"/><path id="XMLID_162_" class="st1" d="M115.9 29.2l-1.7 1.9v-.3l1.4-1.6z"/><path id="XMLID_161_" class="st1" d="M116.1 29.2l-1.9 2.3v-.4l1.7-1.9z"/><path id="XMLID_160_" class="st1" d="M116.4 29.2l-2.2 2.6v-.3l1.9-2.3z"/><path id="XMLID_159_" class="st1" d="M116.7 29.2l-2.5 2.9v-.3l2.2-2.6z"/><path id="XMLID_158_" class="st1" d="M117 29.2l-2.8 3.2v-.3l2.5-2.9z"/><path id="XMLID_157_" class="st1" d="M117.2 29.2l-2.9 3.5h-.1v-.3l2.8-3.2z"/><path id="XMLID_156_" class="st1" d="M117.5 29.2l-3.1 3.7-.1-.2 2.9-3.5z"/><path id="XMLID_155_" class="st1" d="M117.8 29.2l-3.2 3.8-.2-.1 3.1-3.7z"/><path id="XMLID_154_" class="st1" d="M118.1 29.2l-3.3 3.9-.2-.1 3.2-3.8z"/><path id="XMLID_153_" class="st1" d="M118.3 29.2l-3.4 4.1-.1-.2 3.3-3.9z"/><path id="XMLID_152_" class="st1" d="M118.6 29.2l-3.5 4.2-.2-.1 3.4-4.1z"/><path id="XMLID_151_" class="st1" d="M118.9 29.2l-3.7 4.3-.1-.1 3.5-4.2z"/><path id="XMLID_150_" class="st1" d="M119.1 29.2l-3.7 4.5-.2-.2 3.7-4.3z"/><path id="XMLID_149_" class="st1" d="M119.4 29.2l-3.8 4.6-.2-.1 3.7-4.5z"/><path id="XMLID_148_" class="st1" d="M119.7 29.2l-4 4.7-.1-.1 3.8-4.6z"/><path id="XMLID_147_" class="st1" d="M120 29.2l-4.1 4.9-.2-.2 4-4.7z"/><path id="XMLID_146_" class="st1" d="M120.2 29.2l-4.2 5-.1-.1 4.1-4.9z"/><path id="XMLID_145_" class="st1" d="M120.5 29.2l-4.3 5.1-.2-.1 4.2-5z"/><path id="XMLID_144_" class="st1" d="M120.8 29.2l-4.4 5.3-.2-.2 4.3-5.1z"/><path id="XMLID_143_" class="st1" d="M121 29.2l-4.5 5.4-.1-.1 4.4-5.3z"/><path id="XMLID_142_" class="st1" d="M121.3 29.2l-4.6 5.5-.2-.1 4.5-5.4z"/><path id="XMLID_141_" class="st1" d="M121.6 29.2l-4.8 5.7-.1-.2 4.6-5.5z"/><path id="XMLID_140_" class="st1" d="M121.9 29.2L117 35l-.2-.1 4.8-5.7z"/><path id="XMLID_139_" class="st1" d="M122.1 29.2l-4.9 5.9-.2-.1 4.9-5.8z"/><path id="XMLID_138_" class="st1" d="M122.4 29.2l-5.1 6.1-.1-.2 4.9-5.9z"/><path id="XMLID_137_" class="st1" d="M122.7 29.2l-5.2 6.1h-.2l5.1-6.1z"/><path id="XMLID_136_" class="st1" d="M123 29.2l-5.2 6.1h-.3l5.2-6.1z"/><path id="XMLID_135_" class="st1" d="M123.2 29.2l-5.1 6.1h-.3l5.2-6.1z"/><path id="XMLID_134_" class="st1" d="M123.5 29.2l-5.1 6.1h-.3l5.1-6.1z"/><path id="XMLID_133_" class="st1" d="M123.8 29.2l-5.2 6.1h-.2l5.1-6.1z"/><path id="XMLID_132_" class="st1" d="M124 29.2l-5.1 6.1h-.3l5.2-6.1z"/><path id="XMLID_131_" class="st1" d="M124.3 29.2l-5.1 6.1h-.3l5.1-6.1z"/><path id="XMLID_130_" class="st1" d="M124.6 29.2l-5.1 6.1h-.3l5.1-6.1z"/><path id="XMLID_129_" class="st1" d="M124.9 29.2l-5.2 6.1h-.2l5.1-6.1z"/><path id="XMLID_128_" class="st1" d="M125.1 29.2l-5.1 6.1h-.3l5.2-6.1z"/><path id="XMLID_127_" class="st1" d="M125.4 29.2l-5.1 6.1h-.3l5.1-6.1z"/><path id="XMLID_126_" class="st1" d="M125.7 29.2l-5.2 6.1h-.2l5.1-6.1z"/><path id="XMLID_125_" class="st1" d="M125.8 29.2l.1.1-5.1 6h-.3l5.2-6.1z"/><path id="XMLID_124_" class="st1" d="M125.9 29.3l.1.1-4.9 5.9h-.3z"/><path id="XMLID_123_" class="st1" d="M126 29.4l.2.1-4.8 5.8h-.3z"/><path id="XMLID_122_" class="st1" d="M126.2 29.5l.1.2-4.7 5.6h-.2z"/><path id="XMLID_121_" class="st1" d="M126.3 30l-4.4 5.3h-.3l4.7-5.6z"/><path id="XMLID_120_" class="st1" d="M126.3 30.4l-4.1 4.9h-.3l4.4-5.3z"/><path id="XMLID_119_" class="st1" d="M126.3 30.7l-3.9 4.6h-.2l4.1-4.9z"/><path id="XMLID_118_" class="st1" d="M126.3 31l-3.6 4.3h-.3l3.9-4.6z"/><path id="XMLID_117_" class="st1" d="M126.3 31.3l-3.3 4h-.3l3.6-4.3z"/><path id="XMLID_116_" class="st1" d="M126.3 31.7l-3 3.6h-.3l3.3-4z"/><path id="XMLID_115_" class="st1" d="M126.3 32l-2.8 3.3h-.2l3-3.6z"/><path id="XMLID_114_" class="st1" d="M126.3 32.3l-2.5 3h-.3l2.8-3.3z"/><path id="XMLID_113_" class="st1" d="M126.3 32.6l-2.2 2.7h-.3l2.5-3z"/><path id="XMLID_112_" class="st1" d="M126.3 33l-1.9 2.3h-.3l2.2-2.7z"/><path id="XMLID_111_" class="st1" d="M124.4 35.3l1.9-2.3v2.3z"/></g></g><g id="XMLID_47_"><g id="XMLID_48_"><defs><path id="XMLID_49_" d="M132.8 60.3c-2.1-1.7-4.8-1.3-4.8-1.3s3-.4 5.2 2.1-.2 4-.2 4h-.1c0-.2 0-.4-.2-.6-.3-.3-.7-.4-.9-.2-.2.2-.2.4-.1.7 0 .1.1.2.1.2l.2.2c.2.2.5.5.7.6.4.2 2.1-.6 1.7-2.9-.2-1-.8-2-1.6-2.8z"/></defs><use xlink:href="#XMLID_49_" overflow="visible" fill="#fff"/><clipPath id="XMLID_15_"><use xlink:href="#XMLID_49_" overflow="visible"/></clipPath><path id="XMLID_107_" class="st2" d="M128.4 58.6l-.4.5v-.5z"/><path id="XMLID_106_" class="st2" d="M128.6 58.6l-.6.7v-.2l.4-.5z"/><path id="XMLID_105_" class="st2" d="M128.8 58.6l-.8 1v-.3l.6-.7z"/><path id="XMLID_104_" class="st2" d="M129 58.6l-1 1.2v-.2l.8-1z"/><path id="XMLID_103_" class="st2" d="M129.2 58.6L128 60v-.2l1-1.2z"/><path id="XMLID_102_" class="st2" d="M129.4 58.6l-1.4 1.7V60l1.2-1.4z"/><path id="XMLID_101_" class="st2" d="M129.6 58.6l-1.6 1.9v-.2l1.4-1.7z"/><path id="XMLID_100_" class="st2" d="M129.8 58.6l-1.8 2.2v-.3l1.6-1.9z"/><path id="XMLID_99_" class="st2" d="M130 58.6l-2 2.4v-.2l1.8-2.2z"/><path id="XMLID_98_" class="st2" d="M130.2 58.6l-2.2 2.6V61l2-2.4z"/><path id="XMLID_97_" class="st2" d="M130.4 58.6l-2.4 2.9v-.3l2.2-2.6z"/><path id="XMLID_96_" class="st2" d="M130.6 58.6l-2.6 3.1v-.2l2.4-2.9z"/><path id="XMLID_95_" class="st2" d="M130.8 58.6L128 62v-.3l2.6-3.1z"/><path id="XMLID_94_" class="st2" d="M131 58.6l-3 3.6V62l2.8-3.4z"/><path id="XMLID_93_" class="st2" d="M131.2 58.6l-3.2 3.8v-.2l3-3.6z"/><path id="XMLID_92_" class="st2" d="M131.4 58.6l-3.4 4.1v-.3l3.2-3.8z"/><path id="XMLID_91_" class="st2" d="M131.6 58.6l-3.6 4.3v-.2l3.4-4.1z"/><path id="XMLID_90_" class="st2" d="M131.8 58.6l-3.8 4.6v-.3l3.6-4.3z"/><path id="XMLID_89_" class="st2" d="M132 58.6l-4 4.8v-.2l3.8-4.6z"/><path id="XMLID_88_" class="st2" d="M132.2 58.6l-4.2 5v-.2l4-4.8z"/><path id="XMLID_87_" class="st2" d="M132.4 58.6l-4.4 5.3v-.3l4.2-5z"/><path id="XMLID_86_" class="st2" d="M132.6 58.6l-4.6 5.5v-.2l4.4-5.3z"/><path id="XMLID_85_" class="st2" d="M132.8 58.6l-4.8 5.8v-.3l4.6-5.5z"/><path id="XMLID_84_" class="st2" d="M133 58.6l-5 5.9v-.1l4.8-5.8z"/><path id="XMLID_83_" class="st2" d="M133.2 58.6l-5.1 6-.1-.1 5-5.9z"/><path id="XMLID_82_" class="st2" d="M133.4 58.6l-5.1 6.1-.2-.1 5.1-6z"/><path id="XMLID_81_" class="st2" d="M133.6 58.6l-5.2 6.2-.1-.1 5.1-6.1z"/><path id="XMLID_80_" class="st2" d="M133.7 58.6l.1.1-5.3 6.2-.1-.1 5.2-6.2z"/><path id="XMLID_79_" transform="rotate(-49.998 131.195 61.835)" class="st2" d="M127.1 61.8h8.2v.2h-8.2z"/><path id="XMLID_78_" transform="rotate(-49.998 131.313 61.934)" class="st2" d="M127.2 61.9h8.2v.2h-8.2z"/><path id="XMLID_77_" transform="rotate(-49.998 131.432 62.033)" class="st2" d="M127.3 62h8.2v.2h-8.2z"/><path id="XMLID_76_" transform="rotate(-49.998 131.55 62.133)" class="st2" d="M127.5 62.1h8.2v.2h-8.2z"/><path id="XMLID_75_" transform="rotate(-49.998 131.668 62.232)" class="st2" d="M127.6 62.2h8.2v.2h-8.2z"/><path id="XMLID_74_" transform="rotate(-49.998 131.786 62.33)" class="st2" d="M127.7 62.3h8.2v.2h-8.2z"/><path id="XMLID_73_" transform="rotate(-49.998 131.905 62.43)" class="st2" d="M127.8 62.4h8.2v.2h-8.2z"/><path id="XMLID_72_" transform="rotate(-49.998 132.023 62.53)" class="st2" d="M127.9 62.5h8.2v.2h-8.2z"/><path id="XMLID_71_" transform="rotate(-49.998 132.141 62.629)" class="st2" d="M128 62.5h8.2v.2H128z"/><path id="XMLID_70_" transform="rotate(-49.998 132.26 62.728)" class="st2" d="M128.2 62.6h8.2v.2h-8.2z"/><path id="XMLID_69_" transform="rotate(-49.998 132.378 62.827)" class="st2" d="M128.3 62.7h8.2v.2h-8.2z"/><path id="XMLID_68_" transform="rotate(-49.998 132.496 62.926)" class="st2" d="M128.4 62.8h8.2v.2h-8.2z"/><path id="XMLID_67_" class="st2" d="M135.2 59.8l.1.1-5.2 6.3h-.1l-.1-.1z"/><path id="XMLID_66_" class="st2" d="M135.3 59.9v.3l-5 6h-.2z"/><path id="XMLID_65_" class="st2" d="M135.3 60.4l-4.8 5.8h-.2l5-6z"/><path id="XMLID_64_" class="st2" d="M135.3 60.6l-4.6 5.6h-.2l4.8-5.8z"/><path id="XMLID_63_" class="st2" d="M135.3 60.9l-4.4 5.3h-.2l4.6-5.6z"/><path id="XMLID_62_" class="st2" d="M135.3 61.1l-4.2 5.1h-.2l4.4-5.3z"/><path id="XMLID_61_" class="st2" d="M135.3 61.4l-4 4.8h-.2l4.2-5.1z"/><path id="XMLID_60_" class="st2" d="M135.3 61.6l-3.8 4.6h-.2l4-4.8z"/><path id="XMLID_59_" class="st2" d="M135.3 61.8l-3.6 4.4h-.2l3.8-4.6z"/><path id="XMLID_58_" class="st2" d="M135.3 62.1l-3.4 4.1h-.2l3.6-4.4z"/><path id="XMLID_57_" class="st2" d="M135.3 62.3l-3.2 3.9h-.2l3.4-4.1z"/><path id="XMLID_56_" class="st2" d="M135.3 62.6l-3 3.6h-.2l3.2-3.9z"/><path id="XMLID_55_" class="st2" d="M135.3 62.8l-2.8 3.4h-.2l3-3.6z"/><path id="XMLID_54_" class="st2" d="M135.3 63.1l-2.6 3.1h-.2l2.8-3.4z"/><path id="XMLID_53_" class="st2" d="M135.3 63.3l-2.4 2.9h-.2l2.6-3.1z"/><path id="XMLID_52_" class="st2" d="M135.3 63.5l-2.2 2.7h-.2l2.4-2.9z"/><path id="XMLID_51_" class="st2" d="M135.3 63.8l-2 2.4h-.2l2.2-2.7z"/><path id="XMLID_50_" class="st2" d="M133.3 66.2l2-2.4v2.4z"/></g></g><path id="XMLID_44_" class="st0" d="M23.1 108.4h-1.8c-.3 0-.6 0-.9-.1-.5-.1-.8-.3-1.1-.7l-.2-.2c-.3-.4-.6-.7-.8-1.1-.3-.5-.7-1-1-1.6-.7-1.1-1.3-2.1-1.4-2.3h-2v5.7c0 .2.1.3.2.4l-1.8-1.1v-10c0-.1 0-.2-.1-.3 0-.1-.1-.3-.2-.4-.4-.6-1.3-.5-1.3-.5V96h4.7s4.4-.2 4.4 3.1c0 1.9-1.3 2.8-2.5 3.3.1.2.2.3.3.5.3.5.6.9.9 1.4.3.5.6.9.9 1.4.2.4.5.7.8 1.1l.3.4.3.3.3.3c.2.2.4.4.6.5 0 0 .1.1.2.1l.3.1c.3.1.7.2 1.1.2 0-.6.3-.4-.2-.3zm-5-9.3c0-.3.1-3.1-2.7-3.1-.2 0-1-.1-1.4.5-.1.2-.2.4-.2.7v4.8h1.7c.1 0 2.6 0 2.6-2.9z"/><path id="XMLID_42_" class="st0" d="M35.5 108.4h-9.3v-.2s1.4.1 1.5-1.1v-9.8c-.1-1.3-1.5-1.2-1.5-1.2v-.2H35v3.2h-.4c0-1.6-.3-2.9-2.4-2.9h-1.5s-1.4-.1-1.5 1.1v4.7h1.2c1.5-.1 1.7-1.2 1.7-2.3h.3v5h-.3c0-1.1-.2-2.2-1.6-2.3h-1.3v4.8c.1 1.1 1.4 1.1 1.5 1.1h1.9c2.1 0 2.4-1.6 2.4-3.2h.4v3.3z"/><path id="XMLID_40_" class="st0" d="M49.3 102.9v.4c-.2 0-.3 0-.4.1-.2.1-.4.3-.4.7v2.1l.1 2.3h-.5c0-.4-.2-1-.5-1-.1 0-.2 0-.6.3-.7.6-1.5.9-2.5 1H44c-1.5 0-2.7-.5-3.6-1.2-1.1-.8-1.7-2.1-2-3.7-.1-.5-.1-1-.1-1.5 0-3.5 1.5-5.2 2.9-6.1.6-.3 1.2-.6 1.9-.7h1c1.5 0 2.3.6 3.2 1.2.1.1.3.2.4.1.1 0 .1-.1.1-.1.1-.1.1-.3.2-.5l.1-.3v-.1h.4c-.1.9-.1 2-.1 4v.1H48v-.3c-.1-.6-.2-1.2-.5-1.7-.1-.3-.3-.5-.5-.7-.2-.2-.3-.4-.6-.5-.7-.5-1.6-.7-2.4-.7-.3 0-.5 0-.8.1-.7.2-1.4.6-1.9 1.3-.6.8-1.1 2-1.2 3.9-.1 1.3 0 2.6.4 3.9.5 1.4 1.3 2.9 2.9 3.3.3.1.6.1.9.1h.2c.6-.1 1.1-.2 1.7-.5h.1c.2-.1.3-.3.4-.4.1-.1.1-.2.1-.4V105c0-.6-.2-1-.6-1.1-.3-.1-.7-.1-1.2-.2v-.4l1.3.1h2c.4-.4.8-.4 1-.5z"/><path id="XMLID_38_" class="st0" d="M61.4 108.4h-9.3v-.2s1.4.1 1.5-1.1v-9.8c-.1-1.3-1.5-1.2-1.5-1.2v-.2H61v3.2h-.4c0-1.6-.3-2.9-2.4-2.9h-1.5s-1.4-.1-1.5 1.1v4.7h1.2c1.5-.1 1.7-1.2 1.7-2.3h.3v5h-.3c0-1.1-.2-2.2-1.6-2.3h-1.3v4.8c.1 1.1 1.4 1.1 1.5 1.1h1.9c2.1 0 2.4-1.6 2.4-3.2h.4v3.3z"/><path id="XMLID_36_" class="st0" d="M75.5 95.7v.2s-1.4-.1-1.5 1.2v11.2h-.4L66 96.7v10.5c.2 1 1.5 1 1.5 1v.2h-3.3v-.2s1.2.1 1.5-1V97.1c-.1-1.2-1.5-1.1-1.5-1.1v-.3h3l6.4 9.9v-8.4c-.1-1.3-1.6-1.3-1.6-1.3v-.2h3.5z"/><path id="XMLID_34_" class="st0" d="M88.2 95.7v3.8h-.4c0-1.6-.3-3.4-2.4-3.4H84v12c.1.2.1.3.2.4l-1.8-1.1V96H81c-2.1 0-2.4 1.8-2.4 3.4h-.4v-3.8h10z"/><path id="XMLID_32_" class="st0" d="M108.3 108.1v.2h-4.5v-.2s1.3.1 1.5-1v-4.9h-6v4.7c.1 1.3 1.5 1.2 1.5 1.2v.2h-4.5v-.2s1.2.1 1.4-.9V95.9l1.8 1.1v5h6v-6l1.8 1.1v10.1c0 .1 0 .2.1.3-.3.7.9.6.9.6z"/><path id="XMLID_30_" class="st0" d="M115.4 108.1v.2h-4.5v-.2s1.2.1 1.4-.9c0-.1.1-.2.1-.3V96.1c-.1-.2-.1-.3-.2-.4l1.8 1.1v10.1c0 1.3 1.4 1.2 1.4 1.2z"/><path id="XMLID_28_" class="st0" d="M127.2 104.6v3.8H118v-.2s.8 0 1.3-.5c.1-.2.2-.4.2-.7V96.2c0-.2-.1-.3-.2-.4l1.8 1.1v10.3c0 .2.1.4.2.5.3.4.9.4 1.2.4h1.9c2.1 0 2.4-1.8 2.4-3.4h.4z"/><path id="XMLID_26_" class="st0" d="M139.2 104.6v3.8H130v-.2s.8 0 1.3-.5c.1-.2.2-.4.2-.7V96.2c0-.2-.1-.3-.2-.4l1.8 1.1v10.3c0 .2.1.4.2.5.3.4.9.4 1.2.4h1.9c2.1 0 2.4-1.8 2.4-3.4h.4z"/><path class="st0" d="M90.8 16.6s-.2-1.1-1.3-.7c-1.1.4-.8 2.1-.8 2.1-.9-.7-1.4 0-1.4 0s1.8 1.6.1 3.8-3.5 1.2-3.5 1.2-1.8-1.4-.2-2.4 2.6.6 2.6.6c1.7-3-1.8-3.3-1.8-3.3 1-1.5.3-2.8-.1-3.5.6 0 1.1-.5 1.1-1.1 0-.6-.5-1.1-1.1-1.1-.6 0-1.1.5-1.1 1.1 0 .3.1.6.3.8-2.4 1.2-2.1 3.1-2.1 3.1-3.3-1.7-3.2 1.9-3.2 1.9.9-.7 1.9 0 1.9 0s1.4 1.3.2 2.5-2.4.3-2.4.3-1-.1-1.2-2.6c-.2-2.5 1.9-3.7 1.9-3.7-.3-.2-1-.6-1-.6.7-.2 1.6-1.1 1.1-2.1s-2.1-.6-2.1-.6c.9-1.3-.7-3-1.5-3.7.3-.1.6-.4.6-.8 0-.5-.4-.9-.9-.9s-.9.4-.9.9c0 .4.2.7.6.8-.7.6-2.4 2.4-1.5 3.7 0 0-1.6-.4-2.1.6s.4 2 1.1 2.1c0 0-.7.3-1 .6 0 0 2.1 1.3 1.9 3.7-.2 2.5-1.2 2.6-1.2 2.6s-1.3.9-2.4-.3c-1.2-1.2.2-2.5.2-2.5s1-.7 1.9 0c0 0 .1-3.6-3.2-1.9 0 0 .3-1.8-2-3 .2-.2.4-.5.4-.8 0-.6-.5-1.1-1.1-1.1-.6 0-1.1.5-1.1 1.1 0 .6.4 1 1 1.1-.5.7-1.1 2-.1 3.5 0 0-3.5.4-1.8 3.3 0 0 1-1.6 2.6-.6s-.2 2.4-.2 2.4-1.8 1-3.5-1.2c-1.8-2.2.1-3.8.1-3.8s-.6-.7-1.4 0c0 0 .3-1.7-.8-2.1-1-.4-1.3.7-1.3.7s-.3-1.4-3-1.3c0 0 2.1 1.6 4.8 13 4.1-1 8.9-1.5 14-1.5s9.9.6 14 1.5c3-12.8 4.9-13 4.9-13-2.7-.2-3 1.2-3 1.2zM62.1 26.7c-.1.1-.2.1-.3.1-.1 0-.2 0-.3-.1-.1-.1-.1-.2-.1-.3 0-.1 0-.2.1-.3.2-.2.5-.2.6 0 .1.1.1.2.1.3 0 .1 0 .2-.1.3zm3-.3c-.3 0-.5-.1-.5-.4 0-.2.1-.5.4-.5.2 0 .5.1.5.4 0 .2-.1.4-.4.5zm3.3-.4c-.3 0-.5-.2-.5-.4s.1-.5.4-.5c.2 0 .5.1.5.4 0 .2-.2.4-.4.5zm3.3-.4c-.3 0-.5-.2-.5-.4s.2-.4.4-.5c.2 0 .4.2.5.4s-.2.5-.4.5zm3.3-.1c-.2 0-.4-.2-.4-.4s.2-.4.4-.4.4.2.4.4-.2.4-.4.4zm3.3.2s-.1 0 0 0c-.3 0-.5-.2-.4-.5 0-.2.2-.4.5-.4.2 0 .4.2.4.5-.1.2-.3.4-.5.4zm3.3.4s-.1 0 0 0c-.3 0-.5-.3-.4-.5 0-.2.2-.4.5-.4.2 0 .4.2.4.5-.1.2-.3.4-.5.4zm3.3.4c-.1 0-.1 0 0 0-.3 0-.5-.3-.4-.5 0-.2.3-.4.5-.4s.4.3.4.5c-.2.2-.3.4-.5.4zm3.6.3c-.1.1-.2.1-.3.1-.1 0-.2 0-.3-.1-.1-.1-.1-.2-.1-.3 0-.1.1-.2.1-.3.2-.2.5-.2.6 0 .1.1.1.2.1.3 0 .1-.1.3-.1.3zM73 57.1V46.2l-2.7-1.5H70v.2h.2l-.1.1c0 .2-.1.5-.1.7v9.2s.1.2.1 1.9-1.3 2-1.6 2h6c-.3.2-1.5-.1-1.5-1.7z"/><path class="st0" d="M84.9 59c-.3 0-1.5-.2-1.9-1.4V43.4l-2.6-1.7.4.7.1.1c0 .2.1.5.1.7V50h-4.9l.3 1H81v5.8s-.4-.1-.5-.1l-.4-.4c-.2 0-.4-.4-.4-.4-.3 0-.6-.2-.9-.4-.2-.1-.3-.2-.4-.4-.1-.1-.3-.2-.4-.4l-.4-.5c-.4-.4-.7-.9-1-1.4-.4-.6-.8-1.2-1.2-1.9-.4-.6-.8-1.3-1.2-1.9-.1-.2-.3-.4-.4-.6 1.6-.6 3.4-1.8 3.4-4.4 0-4-4.8-4.1-5.8-4.1H65v.3s1 .1 1.5.7c.1.1.3.3.3.5s.2.3.2.5v13.7l2.3 1.5c-.1-.2-.2-.4-.2-.6V49h1v-1h-1v-6c0-.4.1-.7.2-1 .5-.6 1.3-.6 1.7-.6h.2c3.9 0 3.5 3.9 3.5 4.3 0 1.7-.6 2.7-1.6 3.2v4.2l.2.1c.4.7 1 1.4 1.5 2.1l1.2 1.5.3.3c.4.5 1 .7 1.6.8.4.1.8 0 1.3 0h1.6c-.3 2-1.7 2-1.9 2h6.3c-.2.1-.3.1-.3.1z"/><path class="st0" d="M74.9 48.8c.1.1.2.3.2.4l.8-1c-.3.2-.6.4-1 .6zm-1.8 4.7c.1 0 0 0 0 0zm-2.5-21l.3-.3c-.2 0-.4.1-.5.1l-.4.2-5 6.5h.5l5.1-6.5zM64 40.9l-1.3 1.5-.8 1c-.2.5-.5 1.1-.7 1.6l1-1.4 2-2.4H64v-.3zm-5.7 8.8l-.3.4.3.3.2-.3 6.8-8.8c-.1-.1-.3-.1-.4-.1l-6.6 8.5zM72 32.3l.2-.3c-.2 0-.4 0-.5.1l-.2.2-5.1 6.7h.5l5.1-6.7zm-11.3 25l-.7.8c-.3.8-.7 1.5-1.3 2.4l-.2.2 1.8-2.4L66 51v-.7l-5.3 7zm19.4-24.6l.2-.3h-.5l-.2.3-5.3 7c.1 0 .3.1.4.1l5.4-7.1zm-7.4 8.9l-2 2.6.3.2 1.9-2.5c0-.1-.1-.2-.2-.3zm-9.5-8.4c-.2 0-.4.1-.6.1l-.5.7c0 .1.1.3.1.5l1-1.3zm-.7 2.7l2.3-3c-.2 0-.4.1-.6.1l-1.8 2.3c0 .3.1.4.1.6zm.1 1v.6l.4-.5 3.1-4 .2-.3c-.2 0-.4.1-.6.1l-.2.3-2.5 3.3-.4.5zm.1 1.7v.7l.4-.6 4.5-5.9.3-.3c-.2 0-.4 0-.6.1l-.3.3-4 5.2-.3.5zm1.4.4l4.9-6.4.3-.3c-.2 0-.4.1-.6.1l-.3.4L63 40l-.5.6c0 .3-.1.6-.2.9l.7-.7 1-1.1V39h.1zm-6.6 10.2l-.2.2.2.2.8-1.1c-.2.2-.5.5-.8.7zm16-17l.2-.2h-.5l-.2.2-5.3 6.8h.5l5.3-6.8zm-7.6 9.5L59 50.6l-.2.3c.1.1.2.2.2.3l.2-.3L66 42c0-.1-.1-.2-.1-.3zm9.1-9.6c0-.1-.1 0-.1 0h-.3l-.1.1-5.4 6.8h.5l5.4-6.9zM59.6 51.6l-.2.3c.1.1.1.3.2.4l.2-.3 6.2-8.1v-.7l-6.4 8.4zm.5 1l-.2.4c.1.1.1.3.2.4l.2-.3 5.7-7.5v-.7l-5.9 7.7zm16.2-20.4l.2-.2H76l-.1.1-5.4 6.9h.5l5.3-6.8zm1.2.2l.2-.3h-.5l-.2.2-5.2 6.8h.5l5.2-6.7zM60.6 53.9l-.3.4c0 .2.1.4.1.5l.3-.4 5.3-7v-.7l-5.4 7.2zm9.7-12.7l-.7.9v.7l1.2-1.6h-.5zm8.5-8.7l.2-.3h-.5l-.2.3-5.2 6.8c.1 0 .3.1.4.1l5.3-6.9zm-7.2 8.7l-1.8 2.3.3.2 1.9-2.5c-.1.1-.2 0-.4 0zM60.8 55.3l-.4.5v.7l.4-.6 5.2-6.8v-.7l-5.2 6.9zm20.6-22.5l.2-.3c-.2 0-.3 0-.5-.1l-.2.3-5.6 7.3c.1.1.2.1.4.2l5.7-7.4zm-7.9 9.6l-1.8 2.3.3.3 1.7-2.2c-.1-.2-.1-.3-.2-.4zm-14 18.2l-.3.4c.1 0 .2.1.4.2l.2-.3 6.2-8.1v-.7l-6.5 8.5zm23.1-27.7l.2-.3c-.2 0-.3 0-.5-.1l-.2.3-5.9 7.7.3.3 6.1-7.9zm-8.7 10.8l-1.3 1.7.3.2.1.1 1-1.3c-.1-.3-.1-.5-.1-.7zM60.5 61.1l-.2.3c.1.1.2.1.4.2l.2-.3 5.2-6.8v-.7l-5.6 7.3zM83.9 33l.2-.2c-.2 0-.3 0-.5-.1l-.2.3-6.4 8.3c.1.1.2.2.2.4l6.7-8.7zM66 55.7l-4.6 6-.2.3c.1.1.2.1.4.2l.2-.3 4.3-5.7-.1-.1v-.4zm13.5-15.1v-.2l.1.1 5.6-7.3.1-.2c-.1 0-.3 0-.5-.1l-.1.2-7.1 9.3c.1.2.1.3.2.5l1.7-2.3zM62.4 62.3l-.2.3c.1.1.2.2.3.2l.2-.3 4.4-5.7-.3-.2-4.4 5.7zm17.1-20.6l-1.6 2.1v.7l1.7-2.2c0-.2-.1-.4-.1-.6zm7-8.4c-.1-.1-.2-.1-.4-.2l-.1.1-5.8 7.6.4.2 5.9-7.7zM63.2 62.9l-.2.3c.1.1.2.2.3.2l.2-.3 4.4-5.8-.3-.2-4.4 5.8zm5.6-5l-.2-.1-.1.2h.1c-.1-.1 0-.1.2-.1zm18.6-24l.4-.5c-.1 0-.2 0-.4-.1l-6.1 8 .3.2 5.8-7.6zM80 44v-.6L77.8 46c-.3.9-1 1.6-1.7 2.2l-.8.9V49h.4l4.3-5zM68 58.7l-3.9 4.8-.3.3.3.3.3-.3 3.5-4.4v-.7zm5.2-5.2v.7l.3-.4c-.2-.1-.3-.2-.3-.3zm13.7-17.2l.5-.7c.1-.3.1-.6.2-.9l-.6.7-5 6.5.3.2 4.6-5.8zM80 45.8v-.7L76.5 49h.5zM68.3 60l-3.4 4.4-.2.3c.1.1.2.2.3.2l.2-.2 3.6-4.6h-.5V60zm10.1-11l1.6-1.4v-.7L77.9 49zm-4.5 5.4l-.7 1v.6l1-1.3-.3-.3zm9.4-11.7l3.5-4.5.4-.5V37l-.4.6-3.8 5 .3.1zm-6.8 8.9zM65.7 65.1l-.2.3.3.3.2-.2 4.2-5.4h-.5l-4 5zm13.9-15.9v-.5l-.4.5zM84 44l3-4.1.3-.5c0-.2-.1-.4-.1-.6l-.2.5-3 4v.7zm-9.5 11.3l-1.4 1.8c0 .2.1.3.2.4l1.4-1.9s-.1-.1-.2-.3zm2.7-2.8l.7-.9h-.5l-.4.6c0 .1.1.2.2.3zM66.5 65.9l-.2.3.3.3.2-.2 4.8-6.2h-.5l-4.6 5.8zm11.4-12.6l1.4-1.9h-.5L77.6 53l.3.3zm9.3-11.9l.3-.4c0-.2-.1-.4-.1-.6l-.2.5-3.2 4.2v.7l3.2-4.4zm-12 14.8l-1.3 1.7c.2 0 .3.1.5.1l1.1-1.4c-.1-.2-.2-.3-.3-.4zm-7.9 10.4l-.2.3.3.3.2-.2 5.4-7h-.5l-5.2 6.6zM76 57l-.7.9h.2v.4l.8-1.1s-.2-.1-.3-.2zm11.6-14.3l.2-.4c0-.2-.1-.3-.2-.5l-.2.4-3.4 4.7v.7l3.6-4.9zm-8.8 11.6l1.2-1.4v-.7L78.6 54c.1.1.1.2.2.3zM68.1 67.4l-.2.3.3.3.2-.2 6-7.8h-.5l-5.8 7.4zM88 44l.2-.4c-.1-.2-.1-.3-.2-.5l-.2.4-3.8 5.2v.7l4-5.4zm-9 10.9l.3.3.4-.5V54l-.7.9zm-3 4.5v.6h-.8l-6.4 8.3-.3.3.3.3.3-.3 8.2-10.7c-.1 0 0-.1-.1-.2L76 59.4zm1.9-1.2L69.6 69l-.3.3.3.3.3-.3L78 58.8v-.1l-.1-.5zm10.6-13.1l.2-.4c-.1-.1-.2-.3-.2-.4l-.2.4-4.3 5.8v.7l4.5-6.1zm.6 1l.2-.3c-.1-.1-.2-.2-.3-.4l-.2.3-4.8 6.6v.7l5.1-6.9zM70.2 70l-.2.3.3.3.3-.3 8-10.3h-.5l-7.9 10zm19.6-23l.2-.3-.3-.3-.1.3L84 54v.7l5.8-7.7zM70.9 70.9l-.3.3.3.3.3-.3L79.8 60h-.5l-8.4 10.9zm.7.9l-.3.3c.1.1.2.2.2.3l.3-.3L81.2 60h-.5l-9.1 11.8zm18.9-23.9l.2-.3-.3-.3-.1.3-6.3 8.2v.7l6.5-8.6zm-6.3 9.8l7-9.1.3-.3-.3-.3-.2.3-7 9.1c-.1.2 0 .3.2.3zm-12 15l-.2.3c.1.1.2.2.2.3l.3-.3 10.1-13h-.5l-9.9 12.7zm18.1-21.1l1.9-2.5-.3-.3-.2.3-6.8 8.8h.5l4.9-6.3zM72.9 73.7l-.3.3c.1.1.2.2.2.3l.3-.3 10.8-14h-.5L72.9 73.7zM86 59.6l3.3-4.6.4-.6c.1-.4.1-.8.3-1.1l-.5.7-3.5 4.9v.7zm-1.2.4L73.5 74.7l-.3.3c.1.1.2.2.2.3l.3-.3 11.6-15h-.5zm4.6-3.7v-.6l-.4.4-14.9 19.5-.3.3c.1.1.2.2.2.4l.3-.3L89 56.8l.4-.5zm.3 1.4s-.1-.3-.1-.5L77.1 73.5l-2.4 3.1-.3.3c.1.1.2.2.2.4l.1-.1.4-.4 2.2-2.8 12.4-16.3zm.4 1.2c-.1-.1-.1-.3-.2-.4l-.3.4-3.3 4.3-1 1.4c.5-.4.9-.8 1.3-1.1l.8-1.1 2.3-3 .4-.5zm.1 1l-1.1 1.4-.7.9c.3-.2.6-.4.9-.5l.6-.8.4-.6.3-.3c-.1-.1-.2-.2-.2-.4l-.2.3zm1 .6l-.3.4.2-.1.3-.1-.2-.2z"/><text transform="translate(52.58 121.47)" class="st0 st3 st4">БАНКЕТ ХОЛЛ</text></svg>