<svg id="Layer_1" xmlns="http://www.w3.org/2000/svg" xmlns:xlink="http://www.w3.org/1999/xlink" viewBox="0 0 58 47.9"><style>.st0{fill:#43241e}.st1{fill:url(#XMLID_392_)}.st2{fill:url(#XMLID_399_)}.st3{fill:url(#XMLID_404_)}.st4{fill:url(#XMLID_417_)}.st5{fill:url(#XMLID_420_)}.st6{fill:url(#XMLID_423_)}.st6,.st7,.st8{clip-path:url(#XMLID_422_)}.st7{fill:url(#XMLID_424_)}.st8{fill:url(#XMLID_425_)}.st10,.st11,.st12,.st13,.st9{clip-path:url(#XMLID_422_)}.st9{fill:url(#XMLID_426_)}.st10{fill:url(#XMLID_427_)}.st11{fill:url(#XMLID_428_)}.st12{fill:url(#XMLID_429_)}.st13{fill:url(#XMLID_430_)}.st14{fill:url(#XMLID_431_)}.st14,.st15,.st16,.st17,.st18{clip-path:url(#XMLID_422_)}.st15{fill:url(#XMLID_432_)}.st16{fill:url(#XMLID_433_)}.st17{fill:url(#XMLID_434_)}.st18{fill:url(#XMLID_435_)}.st19{fill:url(#XMLID_436_)}.st19,.st20,.st21,.st22,.st23{clip-path:url(#XMLID_422_)}.st20{fill:url(#XMLID_437_)}.st21{fill:url(#XMLID_438_)}.st22{fill:url(#XMLID_439_)}.st23{fill:url(#XMLID_440_)}.st24{fill:url(#XMLID_441_)}.st24,.st25,.st26,.st27,.st28{clip-path:url(#XMLID_422_)}.st25{fill:url(#XMLID_442_)}.st26{fill:url(#XMLID_443_)}.st27{fill:url(#XMLID_444_)}.st28{fill:url(#XMLID_445_)}.st29{fill:url(#XMLID_446_)}.st29,.st30,.st31,.st32,.st33{clip-path:url(#XMLID_422_)}.st30{fill:url(#XMLID_447_)}.st31{fill:url(#XMLID_448_)}.st32{fill:url(#XMLID_449_)}.st33{fill:url(#XMLID_450_)}.st34{fill:url(#XMLID_451_)}.st34,.st35,.st36,.st37,.st38{clip-path:url(#XMLID_422_)}.st35{fill:url(#XMLID_452_)}.st36{fill:url(#XMLID_453_)}.st37{fill:url(#XMLID_454_)}.st38{fill:url(#XMLID_455_)}.st39{fill:url(#XMLID_456_)}.st39,.st40,.st41,.st42,.st43{clip-path:url(#XMLID_422_)}.st40{fill:url(#XMLID_457_)}.st41{fill:url(#XMLID_458_)}.st42{fill:url(#XMLID_459_)}.st43{fill:url(#XMLID_460_)}.st44{fill:url(#XMLID_461_)}.st44,.st45,.st46,.st47,.st48{clip-path:url(#XMLID_422_)}.st45{fill:url(#XMLID_462_)}.st46{fill:url(#XMLID_463_)}.st47{fill:url(#XMLID_464_)}.st48{fill:url(#XMLID_465_)}.st49{fill:url(#XMLID_466_)}.st49,.st50,.st51,.st52,.st53{clip-path:url(#XMLID_422_)}.st50{fill:url(#XMLID_467_)}.st51{fill:url(#XMLID_468_)}.st52{fill:url(#XMLID_469_)}.st53{fill:url(#XMLID_470_)}.st54{fill:url(#XMLID_471_)}.st54,.st55,.st56,.st57,.st58{clip-path:url(#XMLID_422_)}.st55{fill:url(#XMLID_472_)}.st56{fill:url(#XMLID_473_)}.st57{fill:url(#XMLID_474_)}.st58{fill:url(#XMLID_475_)}.st59{fill:url(#XMLID_476_)}.st59,.st60,.st61,.st62,.st63{clip-path:url(#XMLID_422_)}.st60{fill:url(#XMLID_477_)}.st61{fill:url(#XMLID_478_)}.st62{fill:url(#XMLID_479_)}.st63{fill:url(#XMLID_480_)}.st64{fill:url(#XMLID_483_)}.st64,.st65,.st66{clip-path:url(#XMLID_482_)}.st65{fill:url(#XMLID_484_)}.st66{fill:url(#XMLID_485_)}.st67{fill:url(#XMLID_486_)}.st67,.st68,.st69,.st70,.st71{clip-path:url(#XMLID_482_)}.st68{fill:url(#XMLID_487_)}.st69{fill:url(#XMLID_488_)}.st70{fill:url(#XMLID_489_)}.st71{fill:url(#XMLID_490_)}.st72{fill:url(#XMLID_491_)}.st72,.st73,.st74,.st75,.st76{clip-path:url(#XMLID_482_)}.st73{fill:url(#XMLID_492_)}.st74{fill:url(#XMLID_493_)}.st75{fill:url(#XMLID_494_)}.st76{fill:url(#XMLID_495_)}.st77{fill:url(#XMLID_496_)}.st77,.st78,.st79,.st80,.st81{clip-path:url(#XMLID_482_)}.st78{fill:url(#XMLID_497_)}.st79{fill:url(#XMLID_498_)}.st80{fill:url(#XMLID_499_)}.st81{fill:url(#XMLID_500_)}.st82{fill:url(#XMLID_501_)}.st82,.st83,.st84,.st85,.st86{clip-path:url(#XMLID_482_)}.st83{fill:url(#XMLID_502_)}.st84{fill:url(#XMLID_503_)}.st85{fill:url(#XMLID_504_)}.st86{fill:url(#XMLID_505_)}.st87{fill:url(#XMLID_506_)}.st87,.st88,.st89,.st90,.st91{clip-path:url(#XMLID_482_)}.st88{fill:url(#XMLID_507_)}.st89{fill:url(#XMLID_508_)}.st90{fill:url(#XMLID_509_)}.st91{fill:url(#XMLID_510_)}.st92{fill:url(#XMLID_511_)}.st92,.st93,.st94,.st95,.st96{clip-path:url(#XMLID_482_)}.st93{fill:url(#XMLID_512_)}.st94{fill:url(#XMLID_513_)}.st95{fill:url(#XMLID_514_)}.st96{fill:url(#XMLID_515_)}.st100,.st101{clip-path:url(#XMLID_482_)}.st97{fill:url(#XMLID_516_)}.st97,.st98,.st99{clip-path:url(#XMLID_482_)}.st98{fill:url(#XMLID_517_)}.st99{fill:url(#XMLID_518_)}.st100{fill:url(#XMLID_519_)}.st101{fill:url(#XMLID_520_)}.st102{fill:url(#XMLID_521_)}.st102,.st103,.st104,.st105{clip-path:url(#XMLID_482_)}.st103{fill:url(#XMLID_522_)}.st104{fill:url(#XMLID_523_)}.st105{fill:url(#XMLID_524_)}.st106{fill:url(#XMLID_525_)}.st106,.st107,.st108,.st109{clip-path:url(#XMLID_482_)}.st107{fill:url(#XMLID_526_)}.st108{fill:url(#XMLID_527_)}.st109{fill:url(#XMLID_528_)}.st110{fill:url(#XMLID_529_)}.st110,.st111,.st112,.st113{clip-path:url(#XMLID_482_)}.st111{fill:url(#XMLID_530_)}.st112{fill:url(#XMLID_531_)}.st113{fill:url(#XMLID_532_)}.st114{fill:url(#XMLID_533_)}.st114,.st115,.st116,.st117{clip-path:url(#XMLID_482_)}.st115{fill:url(#XMLID_534_)}.st116{fill:url(#XMLID_535_)}.st117{fill:url(#XMLID_536_)}.st118{fill:url(#XMLID_537_)}.st118,.st119,.st120,.st121{clip-path:url(#XMLID_482_)}.st119{fill:url(#XMLID_538_)}.st120{fill:url(#XMLID_539_)}.st121{fill:url(#XMLID_540_)}.st122{fill:url(#XMLID_541_)}.st123{fill:url(#XMLID_542_)}.st124{fill:url(#XMLID_543_)}.st125{fill:url(#XMLID_544_)}.st126{fill:url(#XMLID_545_)}.st127{fill:url(#XMLID_546_)}.st128{fill:url(#XMLID_547_)}.st129{fill:url(#XMLID_548_)}.st130{fill:url(#XMLID_549_)}.st131{fill:url(#XMLID_550_)}.st132{fill:url(#SVGID_1_)}.st133{fill:url(#SVGID_2_)}.st134{fill:url(#SVGID_3_)}.st135{fill:url(#SVGID_4_)}.st136{fill:url(#SVGID_5_)}.st137{fill:url(#SVGID_6_)}.st138{fill:url(#SVGID_7_)}.st139{fill:url(#SVGID_8_)}.st140{fill:url(#SVGID_9_)}.st141{fill:url(#SVGID_10_)}.st142{fill:url(#SVGID_11_)}.st143{fill:url(#SVGID_12_)}.st144{fill:url(#SVGID_13_)}.st145{fill:url(#SVGID_14_)}.st146{fill:url(#SVGID_15_)}.st147{fill:url(#SVGID_16_)}.st148{fill:url(#SVGID_17_)}.st149{fill:url(#SVGID_18_)}.st150{fill:url(#SVGID_19_)}.st151{fill:url(#SVGID_20_)}.st152{fill:url(#SVGID_21_)}.st153{fill:url(#SVGID_22_)}.st154{fill:url(#SVGID_23_)}.st155{fill:url(#SVGID_24_)}.st156{fill:url(#SVGID_25_)}.st157{fill:url(#SVGID_26_)}.st158{fill:url(#SVGID_27_)}.st159{fill:url(#SVGID_28_)}.st160{fill:url(#SVGID_29_)}.st161{fill:url(#SVGID_30_)}.st162{fill:url(#SVGID_31_)}.st163{fill:url(#SVGID_32_)}.st164{fill:url(#SVGID_33_)}.st165{fill:url(#SVGID_34_)}.st166{fill:url(#SVGID_35_)}.st167{fill:url(#SVGID_36_)}.st168{fill:url(#SVGID_37_)}.st169{fill:url(#SVGID_38_)}.st170{fill:url(#SVGID_39_)}.st171{fill:url(#SVGID_40_)}.st172{fill:url(#SVGID_41_)}.st173{fill:url(#SVGID_42_)}.st174{fill:url(#SVGID_43_)}.st175{fill:url(#SVGID_44_)}.st176{fill:url(#SVGID_45_)}.st177{fill:url(#SVGID_46_)}.st178{fill:url(#SVGID_47_)}.st179{fill:url(#SVGID_48_)}.st180{fill:url(#SVGID_49_)}.st181{fill:url(#SVGID_50_)}.st182{fill:url(#SVGID_51_)}.st183{fill:url(#SVGID_52_)}.st184{fill:url(#SVGID_53_)}.st185{fill:url(#SVGID_54_)}.st186{fill:url(#SVGID_55_)}.st187{fill:url(#SVGID_56_)}.st188{fill:url(#SVGID_57_)}.st189{fill:url(#SVGID_58_)}.st190{fill:url(#SVGID_59_)}.st191{fill:url(#SVGID_60_)}.st192{fill:url(#SVGID_61_)}.st193{fill:url(#SVGID_62_)}.st194{fill:url(#SVGID_63_)}.st195{fill:url(#SVGID_64_)}.st196{fill:url(#SVGID_65_)}.st197{fill:url(#SVGID_66_)}.st198{fill:url(#SVGID_67_)}.st199{fill:url(#SVGID_68_)}.st200{fill:url(#SVGID_69_)}.st201{fill:url(#SVGID_70_)}.st202{fill:url(#SVGID_71_)}.st203{fill:url(#SVGID_72_)}.st204{fill:url(#SVGID_73_)}.st205{fill:url(#SVGID_74_)}.st206{fill:url(#SVGID_75_)}.st207{fill:url(#SVGID_76_)}.st208{fill:url(#SVGID_77_)}.st209{fill:url(#SVGID_78_)}.st210{fill:url(#SVGID_79_)}.st211{fill:url(#SVGID_80_)}.st212{fill:url(#SVGID_81_)}.st213{fill:url(#SVGID_82_)}.st214{fill:url(#SVGID_83_)}.st215{fill:url(#SVGID_84_)}.st216{fill:url(#SVGID_85_)}.st217{fill:url(#SVGID_86_)}.st218{fill:url(#SVGID_87_)}.st219{fill:url(#SVGID_88_)}.st220{fill:url(#SVGID_89_)}.st221{fill:url(#SVGID_90_)}.st222{fill:url(#SVGID_91_)}.st223{fill:url(#SVGID_92_)}.st224{fill:url(#SVGID_93_)}.st225{fill:url(#SVGID_94_)}.st226{fill:url(#SVGID_95_)}.st227{fill:url(#SVGID_96_)}.st228{fill:url(#SVGID_97_)}.st229{fill:url(#SVGID_98_)}.st230{fill:url(#SVGID_99_)}.st231{fill:url(#SVGID_100_)}.st232{fill:url(#SVGID_101_)}.st233{fill:#fff}.st234,.st235{clip-path:url(#XMLID_563_);fill:#fff}.st235{clip-path:url(#XMLID_564_)}</style><g id="XMLID_389_"><path id="XMLID_390_" class="st233" d="M34.7 9.7c-1.7-.4-3.6-.6-5.7-.6s-4 .2-5.7.6c.1.3.1.5.2.8 0 0 3-.6 5.5-.6s5.5.6 5.5.6c0-.2.1-.4.2-.8z"/></g><g id="XMLID_385_"><defs><path id="XMLID_386_" d="M28.6 30.3s-1.3-1.6-3.1-.9c0 0-.2-1.9-2.6-1.8-.1 0-.1.1 0 .1.2.2.6.5.5 1 0 0-2 .2-1.8 2.5 0 .5-.1.7-.4.9-.3.2-1 .2-1.6-.3 0 0 1.7-.4.9-1.8 0-.1-.1 0-.1 0-.2.3-.7 1.1-1.6.6-.3-.2-.4-.5-.4-.8 0-.4 0-.6.2-.9 0 0 .6 1 1.7.6.6-.2.6-.6.6-1 0-.6-.2-1.1-.8-1.3-.3-.1-.8-.1-1.2.1 0 0-1.9.8-1.1 3.2.8 2.4 3.6 3.3 5.2 2.9 1.2-.3 2.5-1.5 3-2 .2-.2.4-.4.7-.6.1-.1.2-.1.3-.2.1 0 .2 0 .2-.1l-.3.4c0 .1-.1.1-.2.1s-.2 0-.3.1c-.1.1-.1.2 0 .2.1.1-.1.1-.1.1l-.2.1-.1.1v.1h.2c0 .2-.3.2-.4.2h-.1v.1c.1 0 .1.1 0 .1h-.1c-.1 0-.2.1-.3.1 0 0-.1 0-.1.1 0 0-.1.1 0 .2.1.2.3.1.4 0 .1 0 0 .1 0 .1s-.1.1-.1.2.1.2.1.2.2.1.1.2-.1.1-.1.2v.1c.1.1.3-.3.4-.3.1-.1.1 0 .1 0v.2c0 .1.1.1.1 0 0 0 .1-.1.1-.2 0-.3-.1-.4-.1-.6 0-.1 0-.1.1 0 0 0 0 .1.1.1v.1c.1.2.2.1.2.1s.2 0 .2-.3c0-.2-.2-.3-.2-.3s-.2-.2-.2-.3c0-.1.1 0 .1 0s0 .1.1.2c0 .1.2.2.3.1.1-.1.1-.2-.1-.4s-.2-.4-.2-.4v-.1c.1.1.2.2.2.3h.1v-.2c0-.1-.1-.1-.1-.2-.2-.1-.2-.3-.2-.3h.1c.1-.1 0-.2 0-.2v-.2c.1-.1.2-.3.2-.3.2 0 .4 0 .6.1.2.1.3.4.5 0 .1-.4-.3-.5-.3-.5.3 0 .5.3.4.6-.1.4-.5.1-.3.4.3.3.6-.1.6-.1 0 .1-.3.4-.6.3-.3-.1-.2-.5-.2-.5-.4 0-.3.5-.3.5-.3-.1-.1-.6-.1-.6-.4.1-.5.6-.3 1s.9.3 1.1.2c.2-.2.5-.3.5-1.2.4.2.3 0 .1-.2zm-2 1.3l.2.2-.2-.2c-.2-.1-.1-.3-.1-.3s-.2.3-.2.5c0 .1.1.2.1.3.1.1.2.2.2.3l-.2-.2c-.1-.1-.2-.3-.2-.3s-.1.4-.1.5c0 .1.1.2.1.3l.2.2c-.1-.1-.3-.3-.4-.5 0 0-.1.4-.1.5 0 .2.1.4.2.5 0-.1-.2-.4-.2-.5 0 .2-.1.4-.2.6.1-.2.1-.4.1-.5 0 0-.2.2-.3.2.1 0 .4-.2.4-.7 0 0-.4.4-.7.2.1 0 .8-.1.8-.6 0 0-.2.2-.4.1.1 0 .4-.1.5-.4 0 0 0-.2.1-.2 0 0-.2.1-.3.1.1-.1.3-.1.3-.2s.2-.3.2-.3-.1.1-.3.1c0 0 .2-.1.3-.1.1.1.1.3.2.4z"/></defs><use xlink:href="#XMLID_386_" overflow="visible" fill="#fff"/><clipPath id="XMLID_392_"><use xlink:href="#XMLID_386_" overflow="visible"/></clipPath></g><g id="XMLID_381_"><defs><path id="XMLID_382_" d="M15.7 22.2s.4.7.9.7c.6 0 .7-.5.7-.5s.6.2.7-.3c.1-.4-.1-.6-.3-.5 0 0-1.3-.2-.4-1.6 0 0 .3-.6 1-1.1.4-.3.8-.3 1.2-.2 1.6.4 1.8 1.6 1.8 1.6s.2.9-.6 1.2c-.2.1-.5.1-.7 0-.1-.1-.1-.4.1-.5 0 0 .1.1.3.1.3 0 .4-.4.1-.7-.4-.5-1-.2-1.2.1-.2.3-.3 1 .2 1.4.6.5 1.2.4 1.8.1.7-.4.7-1.5.5-2-.1-.5-.6-1.4-1.8-1.7-1.6-.4-3.2-.1-4.1.2-.9.3-2.6 1.5-3.5 2.7-.8 1.2-1.9 3-3.2 3.2-1.4.2-1.5-1.3-1.2-1.6.1.1.3.2.4.2.3 0 .6-.2.6-.5 0-.1 0-.2-.1-.2s0 0-.1-.1-.2-.1-.3-.1c-.4-.1-1-.2-1.7.6-.5.6-.3 1.4-.2 1.9.1.4 1.9 1.5 3.3.1-1.2 1.5-2.8.5-3.2.3 0 0 1.3 1.8 2.9.7 1.2-.9 2.3-3.1 3.6-4.6l-.2.8c0 .1-.1.2-.2.3-.1.1-.4.2-.5.4-.1.3 0 .3.2.4.2 0-.1.3-.1.3l-.3.4c-.1.1-.1.2-.1.3 0 .1 0 .2.1.2h.2c.2-.1.2 0 .2 0 .1.4-.4.6-.6.7-.1 0-.1.1-.1.1v.1c0 .1 0 .2.2.2s.2.1.1.2c0 .1-.1.1-.1.1-.2.1-.4.3-.5.4-.1.1-.1.1-.1.2s0 .3.2.4c.3.2.7-.1.8-.2.2-.1.1.2.1.2s-.1.2-.1.4.2.3.3.3c.1 0 .3 0 .2.4v.4l.1.1c.3 0 .4-.7.5-.9.1-.2.2-.1.2-.1l.2.3c.1.1.2.1.3 0 .1-.1.1-.3 0-.5-.2-.6-.4-.8-.5-1 0-.1 0-.1.1-.1s.1.1.2.1l.2.2c.3.3.6.1.6.1s.4-.2.1-.6c-.2-.4-.6-.5-.6-.5s-.5-.2-.6-.4c-.1-.3.1-.1.1-.1s.1.1.2.3c.1.1.4.2.5-.1.1-.3 0-.5-.4-.8-.5-.3-.6-.5-.6-.5s-.2-.3 0-.2c.1.1.4.3.6.4l.1.1c.1 0 .2-.1.2-.2s0-.3-.1-.4c-.1-.1-.2-.2-.4-.3-.4-.2-.5-.4-.5-.4.1 0 .2 0 .2-.1.1-.2-.1-.3-.1-.4-.1-.2-.1-.3-.1-.4.1-.3.2-.6.3-.8.3-.3.6-.6 1-.8 1.3-.8 2.4-1.2 3.1-1.3-.2 0-.7.2-1.2.4-.1.1-.3.1-.4.2-1.1.8-1.6 2-1.2 2.8.1.2.3.3.5.3.1-.2.1-.2.2-.3zm-2.2.6c.3.2.4.3.5.4-.1-.1-.2-.3-.5-.4-.4 0-.5-.4-.5-.4s-.2.7-.1 1c.1.3.2.4.5.5.2.1.5.3.6.4-.1 0-.3-.1-.5-.3-.3-.1-.5-.4-.5-.4s0 .7.2 1c.1.2.4.4.4.4h.1c.1 0 .4.2.6.3-.2-.1-.8-.3-1.1-.7 0 .1 0 .8.1 1 .1.3.5.7.6.9-.1-.1-.6-.5-.7-.7.1.4.1.8 0 1.2 0-.4 0-.9-.1-1 0 0-.2.4-.4.5.1-.1.5-.7.4-1.5 0 0-.6.9-1.2.9.2-.1 1.5-.7 1.2-1.7 0 0-.3.4-.7.5.2-.1.7-.4.6-1.1v-.5s-.2.3-.5.4c.2-.2.4-.4.4-.6 0-.2.2-.8.2-.8s-.2.3-.5.3c0 0 .4-.3.5-.5 0 .3.1.7.4.9z"/></defs><use xlink:href="#XMLID_382_" overflow="visible" fill="#fff"/><clipPath id="XMLID_393_"><use xlink:href="#XMLID_382_" overflow="visible"/></clipPath></g><g id="XMLID_377_"><defs><path id="XMLID_378_" d="M4.3 20.8l.9-.2c.1 0 .1 0 .1.1h-.1s-.1 0-.2.1c0 .1 0 .2.1.2h.2c.1 0 .4 0 .7-.1.3-.1.3.1.3.1 0 .3.2.2.2.2.2 0 .4-.1.6-.2.7.2 2 .5 3 .2 2-.7 2.3-1.4 2.7-1.8l.1-.1c.6-.7.9-1.8.9-2.9 0-.8-.3-1.6-1-2-.3-.2-.5-.3-1.1-.3-.9 0-1.6 1.1-.9 1.9.2.2.3.3.5.3.7.2 1.2-.5 1.2-.5.5 1 .5 1.8.2 2.4-.2-.3-.5-.5-.7-.6-.3-.1-.9.1-.9.7 0 .7.7.4.7.4l.1.2c.1.7-1.3 1.4-2 .8-.7-.7-.2-1.1-.2-1.1 0-.1-.2-.3-.6-.1s-.2.6-.2.6c-.2-.2-.2-.6.2-.8.4-.2.6.2.6.2.1-.4-.2-.7-.2-.7-.6-.5-1 0-1 0-.8.8.2 1.9.5 2.2-1.8-1.7-.5-2.7-.5-2.7-.3-1.1-.8-.8-.8-.8.2.2-.2.3-.2.3h-.3c-.2 0-.3.1-.4.2-.8.8-.5 1.6-.3 1.9-.7-1.1 0-1.7 0-1.7-.4-.2-.5.4-.5.4-.5 1.9 1.9 3 1.9 3H8c-2.1-.2-2.7-1.5-3.2-2.2-.5-.8-.7-2.1-.7-2.1-.5.2-.4.5-.5.7 0 .2 0 .5.1.6v.3c-.1.2-.2.1-.2.1-.1-.1-.1-.1-.1-.2v-.6c0-.3-.1-.6-.2-.8-.2-.2-.4-.1-.5 0-.1.2-.2.2-.3.2-.1 0-.3-.1-.3-.3 0-.2-.2-.3-.2-.2s-.1.1-.3.1-.2.1-.2.1-.2.2-.1.6c0 .3-.1.3-.3.3s-.3.1-.3.2c0 0 0 .2.1.4.2.3.9.9 1.1 1.1.3.2.2.6-.1.5-.2 0-.3-.1-.4-.2-.1-.1-.1-.2-.1-.2 0-.1 0-.2-.2-.3-.3-.2-.5.2-.6.1 0 0-.3-.1-.4 0-.1 0-.1.1-.1.2s0 .1.1.2.2.2.2.4 0 .2.1.4H1c.1 0 .2 0 .2.1s-.1.2-.3.2c-.1 0-.2 0-.4.2-.3.3 0 .5.2.5h.6c.2.2.7 0 .7 0s.7-.3 1.2-.5.9-.3 1-.3c.1 0 .1 0 .1.1 0 0 0 .1-.1.1s-.2 0-.3.1c-.3.1-.1.2 0 .2h.3c-.2.2.1.1.1.1zm-.3-1c-.4.1-.7 0-1.4.4 0 0-.6.5-1.4.5 0 0 .4 0 .9-.4.5-.3.9-.5.9-.5s-1 0-1.4-.1-.9-.1-.9-.1h.5l-.4-.4s.4.4.9.5c0 0-.4-.2-.6-.7 0 0 .4.5.8.7.4.2 1.5 0 1.5 0s.8-.1 1-.1c0 0-1.2-.8-1.8-1.6S2 16.5 2 16.5s.2 1.1 1.1 1.9c0 0-.2-.6-.1-1.4 0 0 0 1.3.3 1.5.2.2 1 .9 1.2 1 0 0-.2-.3-.1-.8s0-1.2 0-1.2.1.8.1 1.2c0 .4 0 .9.4 1 .1.3.8.6.9.6 0 0-.7-.7-.8-.9 0 0 .6.6.9.8.1.1.3.1.5.2s.4.1.5.1c0 0-.4 0-.6-.1H4.7c.1 0 .6-.2 1.3-.1 0 0-.6-.2-1.3-.5-.1 0-.1-.1-.2-.1 0 .1-.2 0-.5.1z"/></defs><use xlink:href="#XMLID_378_" overflow="visible" fill="#fff"/><clipPath id="XMLID_394_"><use xlink:href="#XMLID_378_" overflow="visible"/></clipPath></g><path id="XMLID_376_" class="st233" d="M21 13.2c-.7-.8-1.1-.6-1.3-.5-.3.1-.6.5-.4 1 .1.1.1.2.3.2.1 0 .3.1.4-.2.2-.4-.2-.6-.2-.6s.4-.5 1 .1c.5.5.7.9.5 1.4-.1 0 .4-.7-.3-1.4z"/><g id="XMLID_374_"><defs><path id="XMLID_375_" d="M8.8 11.8c.2.1.5.1.8.1.5 0 1-.3 1.4-.7.9-.9 1.7-1.8 1.7-1.8s-1 1-2.3 2c-.3.2-.6.3-.9.4-1.2.1-1.3-1-1.3-1v-.1c.1.1.2.1.4 0s.3-.2.3-.4c0-.1-.2-.2-.3-.2h-.1c-.1 0-.1 0-.1.1-.1.1-.3.1-.4.2-.5.2-.4 1.2.8 1.4z"/></defs><use xlink:href="#XMLID_375_" overflow="visible" fill="#fff"/><clipPath id="XMLID_395_"><use xlink:href="#XMLID_375_" overflow="visible"/></clipPath></g><g id="XMLID_372_"><defs><path id="XMLID_373_" d="M5.3 24c-.1-.1-.3 0-.4.1-.1.1-.1.2-.1.3h-.1s-1-.6-.1-1.7 2.2-.9 2.2-.9-1.1-.2-2 .5c-.4.3-.6.7-.7 1.2-.2.9.5 1.3.7 1.2.1 0 .2-.1.3-.2 0 0 .1 0 .1-.1 0 0 0-.1.1-.1.1-.1.1-.2 0-.3z"/></defs><use xlink:href="#XMLID_373_" overflow="visible" fill="#fff"/><clipPath id="XMLID_396_"><use xlink:href="#XMLID_373_" overflow="visible"/></clipPath></g><g id="XMLID_370_"><path id="XMLID_371_" class="st233" d="M18.4 26.9c.2-.2.2-1.1-.3-1.4-.5-.3-1.2-.2-1.3.4 0 0 .6-.3.8 0 0 0-.7-.2-.6.4 0 0 .4-.2.6.2.2.4-.1.7-.3.7 0 0 .5-.4.1-.7-.4-.3-.1.2-.6.4-.5.1-.9-.2-.8-.5 0 0 .2.6.7.4.4-.1.3-.2.1-.4-.1-.1-.2-.3-.2-.5s.1-.3.2-.4c.3-.3.7-.2.9-.2-.1-.2-.1-.3-.1-.4 0-.4.1-.8.4-1 .9-.7 2.3-.2 2.3-.2-.8-.1-1.3.1-1.6.3-.3.2-.6.4-.6.8 0 .1 0 .2.1.3.1.2.3.3.5.2.3-.1.6-.4.6-.4-.1.3-.2.6-.2.8 0 .1.1.2.2.3.1 0 .2 0 .3-.1v-.1c-.1 0-.2-.1-.1-.2 1.8-2 4.4-.1 4.4-.1-2.1-1-3.4-.2-3.6.3-.1.3.2.7.5.7.2 0 .7-.1.7-.1v.3c0 .2.2.4.4.3.4-.2.9-.3 1.4-.3.4 0 1 .1 1.3.3.3.1.4.2.7.3.5.2.6.1.6.1s-2.1-4.1-6.1-4.5c-3.1-.3-4.2 1.4-4.4 2.3 0 0 0 .2-.1.5 0 .5.1 1 .4 1.4.2.4.6.7 1.1.7 1.2-.2 1.4-.6 1.6-.9z"/></g><g id="XMLID_365_"><defs><path id="XMLID_366_" d="M11.5 9.1c.8-.4 2.6-.9 2.6-.9s.5-.2 1.3-.3c-.5.1-1 .4-1.5.7-1.3.8-1.8 2.2-1.8 2.2s-.4 1.3-.4 2 .3.7.3.7c.5.1.5-.6.5-.8 0-.2-.1-.5.1-.2.3.3.5.1.5.1s.2-.1 0-.6c-.2-.4.3-.2.3-.2s.7.2.8-.2c.1-.4-.4-.9-.4-1-.3-.3.2-.4.2-.4h.3c.4-.2.1-.5.1-.7 0-.2 0-.2.3-.2s.5-.7.5-.7.7-.6 1.8-.7C18.2 8 19.4 9 19.4 9c.1 0 .1.1.2.2-1.7-.2-3.9 1.3-2.4 3.1 0 0 .4.5 1 0 0 0 .3-.3.2-.7 0 0-.2.4-.7.2-.5-.2-.5-.6-.3-.8 0 0-.2.5.2.6.4.1.6 0 .6-.1 0 0-.5-.5.3-1.2s2.3 0 2.1.8c0 .1-.1.2-.1.2s-.7-.3-.7.4.6.8.9.7c.2-.1.6-.3.8-.8.2.3.4.9.4 1.6v.3c0 .5-.1 1.6-1.3 2.1-1.6.7-1.4-.1-1.4-.1s-.2-.5-.5 0c0 0-.1-.4-.6-.4 0 0-.6-.1-.3-.9 0 0-1 .2-.8 1.4 0 0-.3.3.2.8s2 .8 3.2.2c-.5.3-1.1.5-2.4.6-.7 0-1.3-.2-1.9-.5-.5-.3-1-.8-1.3-1.5 0 0 1.5.6 2-.7.5-1.3-.9-2-.9-2s-1.3-.5-2 1.2c-.4.9.1 1.8.8 2.6.6.7 1.3 1.2 2.1 1.4.7.2 1.7.3 2.6 0 2.4-.6 3-2.2 3-3.5 0-.7-.2-3.2-1.8-4.6-.2-.2-.5-.4-.7-.6l-1.1-1.1c-.1 0-.1-.1-.1-.3 0-.1 0-.2-.1-.3h-.1s0-.2.1-.4c.1-.1.1-.2.1-.3v-.3c0-.1-.1-.1-.1-.1l-.1.1c-.1.1-.2.3-.2.4-.1.1 0-.2 0-.2s0-.2.3-.5.3-.3.3-.5-.2-.2-.3-.1l-.2.2s-.1.1-.1-.1c.1-.2.4-.3.4-.3l.4-.2c.2-.2.1-.4.1-.4s-.1-.2-.3-.1c-.1 0-.1.1-.2.1 0 0-.1 0-.1.1 0 0-.1 0 0-.1.2-.1.3-.2.7-.5.3-.1.3-.1.3-.2s0-.1-.1-.1h-.1s-.1 0 0-.1.5-.3.4-.4l-.1-.1s-.1-.1-.3 0c-.3.2-.4.2-.4.1s-.2-.1-.3.1c-.1.2-.2.3-.2.3s-.1.3-.2.2c-.1-.1.2-.7-.1-.6-.2 0-.3.2-.4.3-.1.1-.1.3-.1.4 0 .1 0 .2.1.4v.2c0 .1 0 .1-.1.2-.1 0-.1.1-.1.2v.1s0 .1.1.1c.1.1.3.3.3.7 0 0 0 .1-.1 0h-.1s-.1.1-.1.2.1.2.1.2c.1.1.2.2.2.3 0 0 .2.2.1.3-.1.1-.1.2 0 .4.1.1.3.2.4.2.1 0 .1.1.2.1.1.1.2.2.3.4-.5-.3-.9-.5-1.4-.7-.4-.2-1-.3-1.5-.5-1.8-1-1.2-1.2-1.2-1.2.3-.1.3-.6-.1-.6s-.4.3-.4.3c-.5 0-.4.4-.4.4 0 .3.2.6.7.9 0 .1-.1.3-.6.2 0 0-.9.1-1.7-.7 0 0 1.1-.4.7-1.4-.4-1-1.6-.8-2.1-.1-.5.8.1 1.6.5 1.9s.6.8 4.4 1c0 0-4.7.9-5.4-1.7 0 0-.7.2-.4 1.2 0 0-1.4.2-1.2 1.5.1 1.2 1.8 1 2.6.6zm7-1.7c-.1-.1-.4-.2-.4-.2.1-.1.3.1.3.1s-.3-.4-.3-.6c0-.1-.2-.3-.3-.5.1 0 .3.3.3.3v-.4c0-.6-.2-.9-.3-1 .2.1.2.5.3.5.3-1-.4-1.1 0-1.9-.3.6.2 1.2.2 1.2.3-.7.5-1.2.5-1.4 0 .2-.1.5-.1.5.2-.3.4-.3.6-.5-.2.2-.5.4-.7.7.1-.1.5-.2.7-.2-.1 0-.5.2-.7.4-.2.2-.4.8-.4.8.2-.3.6-.4.7-.4-.1 0-.3.1-.4.1-.1 0-.2.1-.3.3-.2.2-.1.9-.1.9l.2-.4c.1-.1.2-.2.3-.2l-.3.3c-.1.1-.2.2-.2.5s.3.8.3.8-.1-.4.1-.5c.1-.1.2-.2.2-.3 0 .1-.1.2-.2.4-.1.3 0 .6 0 .7zm-2.4.6c-.2.1-1.3.3-1.3 1 0 0-.1-.4.1-.6 0 0-1.2.4-.9 1.4 0 0-.2-.3 0-.8 0 0-1.2 1.2-.3 2.2 0 0-.7-.4-.3-1.7 0 0-1 1-.6 2.4-.1 0-.2-.6-.2-1.1 0 0-.3.8-.5 1.9 0 .2-.2-3.8 4-4.7z"/></defs><use xlink:href="#XMLID_366_" overflow="visible" fill="#fff"/><clipPath id="XMLID_397_"><use xlink:href="#XMLID_366_" overflow="visible"/></clipPath></g><g id="XMLID_341_"><g id="XMLID_361_"><defs><path id="XMLID_362_" d="M29.4 30.3c-.2.2-.3.4-.3.6 0 .8.3 1 .5 1.2.2.2.8.2 1.1-.2.2-.4.2-.9-.3-1 0 0 .2.4-.1.6 0 0 .1-.5-.3-.5 0 0 .1.3-.2.5-.3.1-.5-.1-.6-.3 0 0 .3.4.6.1.3-.3-.2-.1-.3-.4-.1-.4.2-.7.4-.6 0 0-.5.1-.3.5.1.4.3.1.5 0s.4-.1.6-.1c.1.1.2.2.2.3 0 0 .1.1 0 .2 0 0-.1.1 0 .2h.1s0 .1-.2.3c-.1.1-.1.1-.1.2v.2s.1.1.1 0 .1-.2.2-.3c.1-.1 0 .1 0 .1s0 .1-.2.4c-.2.2-.2.3-.1.4.1.1.2 0 .3-.1 0-.1.1-.2.1-.2s.1-.1.1 0-.2.3-.2.3-.2.1-.2.3c0 .2.2.3.2.3s.2 0 .2-.1v-.1s0-.1.1-.1h.1c0 .1-.1.2-.1.6 0 .1 0 .2.1.2.1.1.1 0 .1 0v-.2s0-.1.1 0 .2.4.4.3v-.1s0-.1-.1-.2c-.1-.2 0-.2.1-.2s.1-.1.1-.2-.1-.2-.1-.2-.1-.1 0-.1.3.1.4 0c.1-.1.1-.2 0-.2l-.1-.1c-.1 0-.2-.1-.3-.1h-.1v-.1c.1 0 .1-.1 0-.1h-.1c-.1 0-.4 0-.4-.2h.2s.1-.1 0-.1l-.1-.1-.2-.1s-.2-.1-.1-.1c.1-.1.1-.1 0-.2s-.2-.1-.3-.1c-.1 0-.1 0-.2-.1l-.3-.4c.1 0 .2 0 .2.1.1.1.2.1.3.2.2.2.5.3.7.6.5.5 1.8 1.7 3 2 1.6.4 4.3-.5 5.2-2.9.7-2.4-1.1-3.2-1.1-3.2-.5-.2-1-.2-1.2-.1-.5.2-.8.7-.8 1.3 0 .4.1.7.6 1 1 .4 1.7-.6 1.7-.6.2.3.2.5.2.9 0 .3-.1.6-.4.8-1 .6-1.5-.2-1.6-.6 0-.1-.1-.1-.1 0-.8 1.4.9 1.8.9 1.8-.6.5-1.3.5-1.6.3-.3-.2-.4-.4-.4-.9.2-2.2-1.8-2.5-1.8-2.5-.1-.5.3-.8.5-1V28c-2.4-.1-2.6 1.8-2.6 1.8-1.4-1.1-2.7.5-2.7.5zm2.1.9c.1.1.3.1.3.1-.1.1-.2 0-.3-.1.1.1.2.3.3.4 0 .1.2.2.3.2-.1 0-.3-.1-.3-.1l.1.2c.1.3.4.4.5.4-.2 0-.4-.1-.4-.1 0 .5.7.6.8.6-.3.2-.8-.1-.8-.1.1.4.4.6.4.7-.1 0-.3-.2-.3-.2s0 .3.1.5c-.1-.2-.2-.4-.2-.6 0 .1-.2.4-.2.5 0-.1.1-.4.2-.5 0-.2-.1-.5-.1-.5-.1.2-.3.4-.4.5l.2-.2s.1-.2.1-.3c0-.2-.1-.5-.1-.5s-.1.1-.2.3l-.2.2c0-.1.1-.2.2-.3.1-.1.1-.2.1-.3.2-.4-.1-.7-.1-.8 0 .1.1.3-.1.4l-.2.2.2-.2c.1-.1.1-.3.1-.4z"/></defs><use xlink:href="#XMLID_362_" overflow="visible" fill="#fff"/><clipPath id="XMLID_398_"><use xlink:href="#XMLID_362_" overflow="visible"/></clipPath></g><g id="XMLID_357_"><defs><path id="XMLID_358_" d="M42.5 22.3c.2 0 .4-.1.5-.3.5-.8-.1-2-1.2-2.8-.1-.1-.3-.2-.4-.2-.5-.2-1-.4-1.2-.4.7.1 1.8.5 3.1 1.3.3.2.7.5 1 .8.1.2.2.5.3.8 0 .1 0 .2-.1.4-.1.1-.2.2-.1.4 0 .1.2.1.2.1s-.1.2-.5.4c-.2.1-.3.2-.4.3-.1.1-.1.3-.1.4 0 .1.1.2.2.2 0 0 .1 0 .1-.1.1-.1.4-.3.6-.4.2-.1 0 .2 0 .2s-.1.2-.6.5-.6.5-.4.8c.1.3.4.2.5.1.1-.1.2-.3.2-.3s.2-.2.1.1c-.1.3-.6.4-.6.4s-.4.1-.6.5c-.1.3.3.5.3.5s.3.2.6-.1l.2-.2c0-.1.1-.1.2-.1s.1 0 .1.1c-.1.2-.3.4-.5 1-.1.2-.1.4 0 .5.1.1.2.2.3 0l.2-.3s.1-.1.2.1.1.9.5.9c.1 0 .1 0 .1-.1s.1-.2 0-.4c-.4-.4-.2-.4 0-.4.1 0 .3-.1.3-.3 0-.2-.1-.4-.1-.4s-.1-.2.1-.2c.2.1.5.4.8.2.2-.1.2-.3.2-.4 0-.1-.1-.2-.1-.2-.1-.1-.3-.2-.5-.4-.1 0-.1-.1-.1-.1 0-.1 0-.1.1-.2.1 0 .2-.1.2-.2v-.1l-.1-.1c-.1-.1-.6-.3-.6-.7 0 0 0-.1.2 0h.2c.1 0 .1-.1.1-.2s-.1-.2-.1-.3l-.3-.4s-.3-.3-.1-.3c.2 0 .3-.1.2-.4-.1-.2-.3-.3-.5-.4-.1-.1-.2-.2-.2-.3l-.3-.6c1.3 1.5 2.4 3.8 3.6 4.6 1.6 1.1 2.9-.7 2.9-.7-.3.2-2 1.2-3.2-.3 1.4 1.4 3.2.3 3.3-.1.1-.5.3-1.3-.2-1.9-.7-.8-1.3-.7-1.7-.6-.1 0-.2.1-.3.1-.1 0-.1.1-.1.1 0 .1-.1.1-.1.2 0 .2.3.5.6.5.2 0 .3-.1.4-.2.3.3.2 1.8-1.2 1.6-1.3-.2-2.3-2-3.2-3.2-.8-1.2-2.6-2.4-3.5-2.7-.9-.3-2.4-.6-4.1-.2-1.2.3-1.7 1.2-1.8 1.7-.1.5-.1 1.5.5 2 .5.4 1.2.4 1.8-.1.5-.4.4-1.1.2-1.4-.2-.3-.8-.6-1.2-.1-.3.3-.2.7.1.7.2 0 .3-.1.3-.1.2.1.2.4.1.5-.2.2-.4.1-.7 0-.8-.3-.6-1.2-.6-1.2s.2-1.2 1.8-1.6c.4-.1.9 0 1.2.2.7.5 1 1.1 1 1.1.9 1.5-.4 1.6-.4 1.6-.3-.2-.4 0-.3.5.1.4.7.3.7.3s.1.5.7.5.9-.7.9-.7c.2.2.2.2.3.2zm2.4-.2c.1.2.5.5.5.5-.3 0-.5-.3-.5-.3s.2.6.2.8c0 .2.2.4.4.6-.2-.1-.5-.4-.5-.4v.5c0 .6.4.9.6 1.1-.4-.1-.7-.5-.7-.5-.3 1 .9 1.6 1.2 1.7-.7 0-1.2-.9-1.2-.9-.2.9.2 1.4.4 1.5-.3-.1-.4-.5-.4-.5-.1.1-.1.6-.1 1 0-.4-.1-.8 0-1.2-.1.2-.5.6-.7.7.1-.2.5-.6.6-.9.1-.3.2-1 .1-1-.3.4-.9.6-1.1.7.2-.1.5-.3.6-.3h.1c.1-.1.3-.2.4-.4.2-.3.2-1 .2-1s-.2.2-.5.4c-.2.1-.4.2-.5.3.1-.1.4-.2.6-.4.2-.1.4-.2.5-.5.1-.3-.1-1-.1-1s-.1.4-.5.5c-.2.1-.4.2-.5.3 0-.1.2-.2.5-.4.3-.4.4-.8.4-.9z"/></defs><use xlink:href="#XMLID_358_" overflow="visible" fill="#fff"/><clipPath id="XMLID_399_"><use xlink:href="#XMLID_358_" overflow="visible"/></clipPath></g><g id="XMLID_353_"><defs><path id="XMLID_354_" d="M53.9 20.7h.3c.1 0 .2-.1 0-.2s-.3-.1-.3-.1-.1 0-.1-.1c0 0 0-.1.1-.1s.6.1 1 .3c.5.2 1.2.5 1.2.5s.5.1.7 0h.6c.1 0 .4-.3.1-.5l-.4-.2c-.1 0-.2-.1-.3-.2 0-.1.1-.1.2-.1h.3c.1 0 .3 0 .4-.1.1-.1.1-.1.1-.4 0-.2.1-.3.2-.4 0 0 .1-.1.1-.2s0-.2-.1-.3c-.2-.2-.4-.1-.4 0 0 0-.3-.4-.6-.1-.2.1-.2.3-.2.3 0 .1-.1.2-.1.2-.1.1-.2.2-.4.2-.3 0-.3-.3-.1-.5.3-.2.9-.8 1.1-1.1.1-.2.1-.4.1-.4s-.1-.2-.3-.2-.4 0-.3-.3c0-.4-.1-.6-.1-.6s0-.1-.2-.1-.2 0-.3-.1c-.1-.1-.2 0-.2.2s-.2.3-.3.3c-.1 0-.2 0-.3-.2-.1-.2-.3-.2-.5 0s-.2.5-.2.8v.6c0 .1-.1.2-.1.2-.1.1-.2.1-.2-.1v-.3c0-.2.1-.5.1-.6 0-.2 0-.5-.5-.7 0 0-.2 1.3-.7 2.1-.4.7-1.1 2.1-3.2 2.2h.1s2.4-1.1 1.9-3c0 0-.1-.5-.6-.5 0 0 .7.6 0 1.7.2-.3.5-1.1-.3-1.9-.1-.1-.3-.2-.4-.2h-.3s-.3-.1-.2-.3c0 0-.6-.3-.8.8 0 0 1.3 1-.5 2.7.4-.4 1.3-1.4.5-2.2 0 0-.4-.5-1 0 0 0-.3.3-.2.7 0 0 .2-.4.6-.2.4.2.5.5.2.8 0 0 .2-.4-.2-.6s-.5 0-.6.1c0 0 .5.5-.2 1.1-.7.7-2.2 0-2-.8 0-.1.1-.2.1-.2s.7.3.7-.4c0-.6-.6-.8-.9-.7-.2.1-.5.2-.7.6-.2-.6-.3-1.5.2-2.4 0 0 .5.8 1.2.5.2 0 .3-.1.5-.3.7-.7 0-1.9-.9-1.9-.5 0-.8.1-1.1.3-.6.5-1 1.3-1 2 0 1.1.3 2.2.9 2.9l.1.1c.4.4.7 1.1 2.7 1.8 1 .4 2.4 0 3-.2.1.1.3.2.6.2 0 0 .2.1.2-.2 0 0 0-.2.4-.1.3.1.6.1.7.1h.2s.1-.1 0-.1c-.1-.1-.2-.1-.2-.1h-.1s0-.1.1-.1l.9.2c0 .2.3.3.2.1zm-.4-.9c-.1 0-.1.1-.2.1-.7.3-1.3.5-1.3.5.8 0 1.2.1 1.3.1h-1.6c-.2 0-.6.1-.6.1.2 0 .4-.1.5-.1.2-.1.3-.1.5-.2.3-.2.9-.8.9-.8-.1.2-.8.9-.8.9.1-.1.8-.4 1.3-.6.3-.2.3-.7.3-1.1 0-.4.1-1.2.1-1.2s-.1.8 0 1.2c.1.5-.1.8-.1.8.2 0 .9-.7 1.2-1 .2-.2.3-1.5.3-1.5.1.8-.1 1.4-.1 1.4.9-.9 1.1-1.9 1.1-1.9s0 .7-.6 1.5-1.8 1.6-1.8 1.6c.2 0 1 .1 1 .1s1.1.1 1.5 0c.3-.2.6-.7.6-.7-.2.5-.6.7-.6.7.5-.1.9-.5.9-.5-.1.2-.4.4-.4.4h.5s-.5.1-.9.1-1.4.1-1.4.1.3.2.9.5c.5.3.9.4.9.4-.8-.1-1.4-.5-1.4-.5-.7-.5-1-.4-1.4-.4-.4-.1-.6 0-.6 0z"/></defs><use xlink:href="#XMLID_354_" overflow="visible" fill="#fff"/><clipPath id="XMLID_400_"><use xlink:href="#XMLID_354_" overflow="visible"/></clipPath></g><g id="XMLID_351_"><defs><path id="XMLID_352_" d="M49.2 11.8c-.2.1-.5.1-.8.1-.5 0-1-.3-1.4-.7-.9-.9-1.7-1.8-1.7-1.8s1 1 2.3 2c.3.2.6.3.9.4 1.2.1 1.3-1 1.3-1v-.1c-.1.1-.2.1-.4 0s-.3-.2-.3-.4c0-.1.2-.2.3-.2h.1c.1 0 .1 0 .1.1.1.1.3.1.4.2.5.2.4 1.2-.8 1.4z"/></defs><use xlink:href="#XMLID_352_" overflow="visible" fill="#fff"/><clipPath id="XMLID_401_"><use xlink:href="#XMLID_352_" overflow="visible"/></clipPath></g><g id="XMLID_349_"><defs><path id="XMLID_350_" d="M52.7 24c.1-.1.3 0 .4.1.1.1.1.2.1.3h.1s1-.6.1-1.7-2.2-.9-2.2-.9 1.1-.2 2 .5c.4.3.6.7.7 1.2.2.9-.5 1.3-.7 1.2-.1 0-.2-.1-.3-.2 0 0-.1 0-.1-.1 0 0 0-.1-.1-.1-.1-.1-.1-.2 0-.3z"/></defs><use xlink:href="#XMLID_350_" overflow="visible" fill="#fff"/><clipPath id="XMLID_402_"><use xlink:href="#XMLID_350_" overflow="visible"/></clipPath></g><g id="XMLID_347_"><path id="XMLID_348_" class="st233" d="M39.6 26.9c-.2-.2-.2-1.1.3-1.4.5-.3 1.2-.2 1.3.4 0 0-.6-.3-.8 0 0 0 .7-.2.6.4 0 0-.4-.2-.6.2-.2.4.1.7.3.7 0 0-.5-.4-.1-.7.4-.3.1.2.6.4s.9-.2.8-.5c0 0-.2.6-.7.4-.4-.1-.3-.2-.1-.4.1-.1.2-.3.2-.5s-.1-.3-.2-.4c-.3-.3-.7-.2-.9-.2.1-.2.1-.3.1-.4 0-.4-.1-.8-.4-1-.9-.7-2.3-.2-2.3-.2.8-.1 1.3.1 1.6.3.3.2.6.4.6.8 0 .1 0 .2-.1.3-.1.2-.3.3-.5.2-.3-.1-.6-.4-.6-.4.1.3.2.6.2.8 0 .1-.1.2-.2.3-.1 0-.2 0-.3-.1v-.1c.1 0 .2-.1.1-.2-1.8-2-4.4-.1-4.4-.1 2.1-1 3.4-.2 3.6.3.1.3-.2.7-.5.7-.2 0-.7-.1-.7-.1v.3c0 .2-.2.4-.4.3-.4-.2-.9-.3-1.4-.3-.4 0-1 .1-1.3.3-.3.1-.4.2-.7.3-.5.2-.6.1-.6.1s2.1-4.1 6.1-4.5c3.1-.3 4.2 1.4 4.4 2.3 0 0 0 .2.1.5 0 .5-.1 1-.4 1.4-.2.4-.6.7-1.1.7-1.2-.2-1.4-.6-1.6-.9z"/></g><g id="XMLID_342_"><defs><path id="XMLID_343_" d="M49.2 8.3c.2-1.2-1.2-1.5-1.2-1.5.3-.9-.4-1.2-.4-1.2-.7 2.6-5.4 1.7-5.4 1.7 3.8-.1 4.1-.7 4.4-1 .4-.3 1-1.1.5-1.9-.6-.7-1.7-.9-2.1.1-.4 1 .7 1.4.7 1.4-.8.9-1.7.8-1.7.8-.5.1-.6 0-.6-.2.4-.2.7-.5.6-.8 0 0 .1-.4-.3-.3 0 0 0-.3-.4-.3s-.4.5-.1.6c0 0 .5.2-1.2 1.2-.5.2-1 .3-1.5.5-.5.1-1 .3-1.4.6.1-.1.2-.3.3-.4.1-.1.1-.1.2-.1s.3 0 .4-.2c.2-.2.1-.3 0-.4-.1-.1.1-.3.1-.3.1-.1.2-.2.2-.3 0-.1.1-.1.1-.2s0-.2-.1-.2h-.1c-.1.1-.1 0-.1 0 0-.4.2-.6.3-.7 0 0 0-.1.1-.1V5c0-.1-.1-.2-.1-.2-.1 0-.1-.1-.1-.2v-.2c.1-.2.1-.3.1-.4 0-.1-.1-.3-.1-.4-.1-.1-.2-.3-.4-.3-.3-.1-.1.5-.1.6 0 .1-.2-.2-.2-.2s-.1-.2-.2-.3c-.2-.2-.4-.1-.4-.1 0 .1-.1.1-.4-.1-.3-.2-.3-.1-.3 0l-.1.1c0 .1.3.3.4.4.1.1 0 .1 0 .1h-.1c-.1 0-.1.1-.1.1 0 .1 0 .1.1.2.4.3.5.3.7.5.1.1 0 .1 0 .1s-.1 0-.1-.1c-.1 0-.1-.1-.2-.1-.2-.1-.3.1-.3.1s-.1.2.1.4.4.2.4.2.3.1.4.3c.1.2-.1.1-.1.1l-.2-.2c-.1-.1-.3-.1-.3.1s0 .3.3.5c.3.3.3.5.3.5v.2c-.1-.1-.2-.3-.2-.4l-.1-.1c-.1 0-.1 0-.1.1v.3c0 .1.1.2.1.3.2.2.1.4.1.4 0-.1-.1-.1-.1 0-.1.1-.1.2-.1.3 0 .2-.1.2-.1.3-.5.5-1.2 1.1-1.1 1.1-.2.2-.4.4-.7.6-1.6 1.4-1.8 3.9-1.8 4.6 0 1.3.6 2.8 3 3.5.9.2 1.9.1 2.6 0 .8-.2 1.6-.7 2.1-1.4.6-.8 1.1-1.7.8-2.6-.7-1.7-2-1.2-2-1.2s-1.5.7-.9 2c.5 1.3 2 .7 2 .7-.3.7-.8 1.2-1.3 1.5-.6.3-1.2.5-1.9.5-1.2 0-1.9-.2-2.4-.6 1.3.6 2.7.3 3.2-.2s.2-.8.2-.8c.2-1.3-.8-1.4-.8-1.4.3.8-.3.9-.3.9-.5 0-.6.4-.6.4-.3-.5-.7-.1-.7-.1s.2.8-1.4.1c-1.1-.5-1.3-1.6-1.3-2.1v-.3c0-.7.2-1.3.4-1.6.1.5.5.7.8.8.3.1.9-.1.9-.7 0-.7-.7-.4-.7-.4L37 11c-.2-.8 1.4-1.5 2.1-.8.8.7.3 1.2.3 1.2 0 .1.2.3.6.1.4-.1.2-.6.2-.6.3.3.2.6-.3.8-.5.2-.7-.2-.7-.2-.1.4.2.7.2.7.6.5 1 0 1 0 1.5-1.8-.6-3.3-2.4-3.1.5-.1.5-.1.6-.2 0 0 1.3-1 2.4-.9 1.1.1 1.8.7 1.8.7s.2.7.5.7.3 0 .3.2-.2.5.1.7h.3s.5 0 .2.4c0 0-.5.6-.4 1 .1.4.8.2.8.2s.5-.3.3.2c-.2.4 0 .6 0 .6s.2.2.5-.1c.2-.3.2.1.1.2-.1.3-.1.9.5.8 0 0 .3 0 .3-.7s-.4-2-.4-2-.5-1.4-1.8-2.2c-.5-.3-1-.5-1.5-.7.8.1 1.3.3 1.3.3s1.8.5 2.6.9c.8.3 2.5.5 2.7-.9zm-9.7-1.5c-.1-.2-.2-.3-.2-.4 0 .1.1.2.2.4.2.1.1.5.1.5s.4-.5.3-.8c0-.3-.1-.4-.2-.5-.1-.1-.3-.2-.3-.3 0 0 .2.1.3.2.2.1.3.4.2.4 0 0 0-.7-.1-.9-.1-.2-.3-.4-.3-.4-.1 0-.3-.1-.4-.1.1 0 .5 0 .7.4 0-.1-.2-.7-.4-.8-.2-.3-.5-.5-.7-.5.1 0 .5.2.7.3-.2-.4-.5-.5-.7-.7.2.2.4.3.6.5 0 0-.1-.3-.1-.5 0 .2.2.6.5 1.4 0 0 .4-.6.2-1.2.4.8-.3.9 0 1.9 0 0 .1-.4.3-.5-.1.1-.3.4-.3 1v.4s.2-.3.3-.3c-.1.2-.3.3-.3.5s-.3.6-.3.6.2-.2.3-.1c0 0-.3.1-.4.2 0-.2.1-.5 0-.7zm6.4 6.1c-.1-1.1-.5-1.9-.5-1.9.1.5-.1 1.1-.2 1.1.3-1.5-.6-2.4-.6-2.4.5 1.3-.3 1.7-.3 1.7.9-1-.3-2.2-.3-2.2.2.5 0 .8 0 .8.3-1-.9-1.4-.9-1.4.2.2.1.6.1.6 0-.7-1.1-1-1.3-1 4.2.7 4 4.7 4 4.7z"/></defs><use xlink:href="#XMLID_343_" overflow="visible" fill="#fff"/><clipPath id="XMLID_403_"><use xlink:href="#XMLID_343_" overflow="visible"/></clipPath></g></g><path id="XMLID_340_" class="st233" d="M38 13.8c.1.2.3.2.4.2.1 0 .2-.1.3-.2.3-.5-.1-1-.4-1-.2 0-.6-.2-1.3.5-.7.7-.3 1.4-.3 1.4-.2-.4 0-.9.5-1.4.6-.6 1-.1 1-.1s-.4.2-.2.6z"/><g id="XMLID_229_"><g id="XMLID_265_"><defs><path id="XMLID_266_" d="M49.5 10.7h.4v.1s-.2 1.1-1.3 1c-.3 0-.7-.2-.9-.4-1.3-1-2.3-2-2.3-2s.8.9 1.7 1.8c.4.4.9.6 1.4.7.3 0 .5 0 .8-.1 1.2-.3 1.2-1.3 1-1.5-.1-.1-.3-.2-.4-.2 0 0-.1 0-.1-.1h-.1c-.2 0-.3.1-.3.2-.2.2-.1.4.1.5z"/></defs><use xlink:href="#XMLID_266_" overflow="visible" fill="#fff"/><clipPath id="XMLID_404_"><use xlink:href="#XMLID_266_" overflow="visible"/></clipPath><path id="XMLID_324_" clip-path="url(#XMLID_404_)" fill="#fff" d="M45.5 9.3l-.1.2v-.2z"/><path id="XMLID_323_" clip-path="url(#XMLID_404_)" fill="#fff" d="M45.6 9.3l-.2.3v-.1l.1-.2z"/><path id="XMLID_322_" clip-path="url(#XMLID_404_)" fill="#fff" d="M45.7 9.3l-.3.5v-.2l.2-.3z"/><path id="XMLID_321_" clip-path="url(#XMLID_404_)" fill="#fff" d="M45.8 9.3l-.4.6v-.1l.3-.5z"/><path id="XMLID_320_" clip-path="url(#XMLID_404_)" fill="#fff" d="M45.9 9.3l-.5.7v-.1l.4-.6z"/><path id="XMLID_319_" clip-path="url(#XMLID_404_)" fill="#fff" d="M46.1 9.3l-.7.9V10l.5-.7z"/><path id="XMLID_318_" clip-path="url(#XMLID_404_)" fill="#fff" d="M46.2 9.3l-.8 1v-.1l.7-.9z"/><path id="XMLID_317_" clip-path="url(#XMLID_404_)" fill="#fff" d="M46.3 9.3l-.9 1.1v-.1l.8-1z"/><path id="XMLID_316_" clip-path="url(#XMLID_404_)" fill="#fff" d="M46.4 9.3l-1 1.3v-.2l.9-1.1z"/><path id="XMLID_315_" clip-path="url(#XMLID_404_)" fill="#fff" d="M46.5 9.3l-1.1 1.4v-.1l1-1.3z"/><path id="XMLID_314_" clip-path="url(#XMLID_404_)" fill="#fff" d="M46.6 9.3l-1.2 1.5v-.1l1.1-1.4z"/><path id="XMLID_313_" clip-path="url(#XMLID_404_)" fill="#fff" d="M46.7 9.3l-1.2 1.6-.1-.1 1.2-1.5z"/><path id="XMLID_312_" clip-path="url(#XMLID_404_)" fill="#fff" d="M46.9 9.3l-1.4 1.6 1.2-1.6z"/><path id="XMLID_311_" clip-path="url(#XMLID_404_)" fill="#fff" d="M47 9.3L45.6 11l-.1-.1 1.4-1.6z"/><path id="XMLID_310_" clip-path="url(#XMLID_404_)" fill="#fff" d="M47.1 9.3L45.7 11h-.1L47 9.3z"/><path id="XMLID_309_" clip-path="url(#XMLID_404_)" fill="#fff" d="M47.2 9.3l-1.5 1.8V11l1.4-1.7z"/><path id="XMLID_308_" clip-path="url(#XMLID_404_)" fill="#fff" d="M47.3 9.3l-1.5 1.9-.1-.1 1.5-1.8z"/><path id="XMLID_307_" clip-path="url(#XMLID_404_)" fill="#fff" d="M47.4 9.3l-1.5 1.9h-.1l1.5-1.9z"/><path id="XMLID_306_" clip-path="url(#XMLID_404_)" fill="#fff" d="M47.5 9.3l-1.6 2v-.1l1.5-1.9z"/><path id="XMLID_305_" clip-path="url(#XMLID_404_)" fill="#fff" d="M47.6 9.3l-1.6 2h-.1l1.6-2z"/><path id="XMLID_304_" clip-path="url(#XMLID_404_)" fill="#fff" d="M47.8 9.3l-1.7 2.1-.1-.1 1.6-2z"/><path id="XMLID_303_" clip-path="url(#XMLID_404_)" fill="#fff" d="M47.9 9.3l-1.8 2.1 1.7-2.1z"/><path id="XMLID_302_" clip-path="url(#XMLID_404_)" fill="#fff" d="M48 9.3l-1.8 2.2-.1-.1 1.8-2.1z"/><path id="XMLID_301_" clip-path="url(#XMLID_404_)" fill="#fff" d="M48.1 9.3l-1.8 2.2h-.1L48 9.3z"/><path id="XMLID_300_" clip-path="url(#XMLID_404_)" fill="#fff" d="M48.2 9.3l-1.9 2.3v-.1l1.8-2.2z"/><path id="XMLID_299_" clip-path="url(#XMLID_404_)" fill="#fff" d="M48.3 9.3l-1.9 2.4-.1-.1 1.9-2.3z"/><path id="XMLID_298_" clip-path="url(#XMLID_404_)" fill="#fff" d="M48.4 9.3l-1.9 2.4h-.1l1.9-2.4z"/><path id="XMLID_297_" clip-path="url(#XMLID_404_)" fill="#fff" d="M48.6 9.3l-2.1 2.5v-.1l1.9-2.4z"/><path id="XMLID_296_" clip-path="url(#XMLID_404_)" fill="#fff" d="M48.7 9.3l-2.1 2.5h-.1l2.1-2.5z"/><path id="XMLID_295_" clip-path="url(#XMLID_404_)" fill="#fff" d="M48.8 9.3l-2.1 2.6-.1-.1 2.1-2.5z"/><path id="XMLID_294_" clip-path="url(#XMLID_404_)" fill="#fff" d="M48.9 9.3l-2.1 2.6h-.1l2.1-2.6z"/><path id="XMLID_293_" clip-path="url(#XMLID_404_)" fill="#fff" d="M49 9.3l-2.1 2.6h-.1l2.1-2.6z"/><path id="XMLID_292_" clip-path="url(#XMLID_404_)" fill="#fff" d="M49.1 9.3L47 11.9h-.1L49 9.3z"/><path id="XMLID_291_" clip-path="url(#XMLID_404_)" fill="#fff" d="M49.2 9.3l-2.1 2.6H47l2.1-2.6z"/><path id="XMLID_290_" clip-path="url(#XMLID_404_)" fill="#fff" d="M49.3 9.3l-2.1 2.6h-.1l2.1-2.6z"/><path id="XMLID_289_" clip-path="url(#XMLID_404_)" fill="#fff" d="M49.5 9.3l-2.2 2.6h-.1l2.1-2.6z"/><path id="XMLID_288_" clip-path="url(#XMLID_404_)" fill="#fff" d="M49.6 9.3l-2.2 2.6h-.1l2.2-2.6z"/><path id="XMLID_287_" clip-path="url(#XMLID_404_)" fill="#fff" d="M49.7 9.3l-2.2 2.6h-.1l2.2-2.6z"/><path id="XMLID_286_" clip-path="url(#XMLID_404_)" fill="#fff" d="M49.8 9.3l-2.1 2.6h-.2l2.2-2.6z"/><path id="XMLID_285_" clip-path="url(#XMLID_404_)" fill="#fff" d="M49.9 9.3l-2.1 2.6h-.1l2.1-2.6z"/><path id="XMLID_284_" clip-path="url(#XMLID_404_)" fill="#fff" d="M50 9.3l-2.1 2.6h-.1l2.1-2.6z"/><path id="XMLID_283_" clip-path="url(#XMLID_404_)" fill="#fff" d="M50.1 9.3L48 11.9h-.1L50 9.3z"/><path id="XMLID_282_" clip-path="url(#XMLID_404_)" fill="#fff" d="M50.2 9.3v.1l-2.1 2.5H48l2.1-2.6z"/><path id="XMLID_281_" clip-path="url(#XMLID_404_)" fill="#fff" d="M50.2 9.4h.1l-2.1 2.5h-.1z"/><path id="XMLID_280_" clip-path="url(#XMLID_404_)" fill="#fff" d="M50.3 9.4l.1.1-2.1 2.4h-.1z"/><path id="XMLID_279_" clip-path="url(#XMLID_404_)" fill="#fff" d="M50.4 9.5v.1l-1.9 2.3h-.2z"/><path id="XMLID_278_" clip-path="url(#XMLID_404_)" fill="#fff" d="M50.4 9.7l-1.8 2.2h-.1l1.9-2.3z"/><path id="XMLID_277_" clip-path="url(#XMLID_404_)" fill="#fff" d="M50.4 9.8l-1.7 2.1h-.1l1.8-2.2z"/><path id="XMLID_276_" clip-path="url(#XMLID_404_)" fill="#fff" d="M50.4 10l-1.6 1.9h-.1l1.7-2.1z"/><path id="XMLID_275_" clip-path="url(#XMLID_404_)" fill="#fff" d="M50.4 10.1l-1.5 1.8h-.1l1.6-1.9z"/><path id="XMLID_274_" clip-path="url(#XMLID_404_)" fill="#fff" d="M50.4 10.2L49 11.9h-.1l1.5-1.8z"/><path id="XMLID_273_" clip-path="url(#XMLID_404_)" fill="#fff" d="M50.4 10.4l-1.3 1.5H49l1.4-1.7z"/><path id="XMLID_272_" clip-path="url(#XMLID_404_)" fill="#fff" d="M50.4 10.5l-1.1 1.4h-.2l1.3-1.5z"/><path id="XMLID_271_" clip-path="url(#XMLID_404_)" fill="#fff" d="M50.4 10.6l-1 1.3h-.1l1.1-1.4z"/><path id="XMLID_270_" clip-path="url(#XMLID_404_)" fill="#fff" d="M50.4 10.8l-.9 1.1h-.1l1-1.3z"/><path id="XMLID_269_" clip-path="url(#XMLID_404_)" fill="#fff" d="M50.4 10.9l-.8 1h-.1l.9-1.1z"/><path id="XMLID_268_" clip-path="url(#XMLID_404_)" fill="#fff" d="M49.6 11.9l.8-1v1z"/></g></g><g id="XMLID_24_"><g id="XMLID_25_"><defs><path id="XMLID_169_" d="M53.1 22.3c-.9-.7-2-.5-2-.5s1.3-.2 2.2.9-.1 1.7-.1 1.7h-.1c0-.1 0-.2-.1-.3-.1-.1-.3-.2-.4-.1-.1.1-.1.2 0 .3 0 0 0 .1.1.1l.1.1c.1.1.2.2.3.2.2.1.9-.3.7-1.2-.1-.4-.3-.9-.7-1.2z"/></defs><use xlink:href="#XMLID_169_" overflow="visible" fill="#fff"/><clipPath id="XMLID_405_"><use xlink:href="#XMLID_169_" overflow="visible"/></clipPath><path id="XMLID_228_" clip-path="url(#XMLID_405_)" fill="#fff" d="M51.3 21.6l-.2.2v-.2z"/><path id="XMLID_227_" clip-path="url(#XMLID_405_)" fill="#fff" d="M51.4 21.6l-.3.3v-.1l.2-.2z"/><path id="XMLID_226_" clip-path="url(#XMLID_405_)" fill="#fff" d="M51.4 21.6l-.3.4v-.1l.3-.3z"/><path id="XMLID_225_" clip-path="url(#XMLID_405_)" fill="#fff" d="M51.5 21.6l-.4.5V22l.3-.4z"/><path id="XMLID_224_" clip-path="url(#XMLID_405_)" fill="#fff" d="M51.6 21.6l-.5.6v-.1l.4-.5z"/><path id="XMLID_223_" clip-path="url(#XMLID_405_)" fill="#fff" d="M51.7 21.6l-.6.7v-.1l.5-.6z"/><path id="XMLID_222_" clip-path="url(#XMLID_405_)" fill="#fff" d="M51.8 21.6l-.7.8v-.1l.6-.7z"/><path id="XMLID_221_" clip-path="url(#XMLID_405_)" fill="#fff" d="M51.9 21.6l-.8.9v-.1l.7-.8z"/><path id="XMLID_220_" clip-path="url(#XMLID_405_)" fill="#fff" d="M51.9 21.6l-.8 1v-.1l.8-.9z"/><path id="XMLID_219_" clip-path="url(#XMLID_405_)" fill="#fff" d="M52 21.6l-.9 1.1v-.1l.8-1z"/><path id="XMLID_218_" clip-path="url(#XMLID_405_)" fill="#fff" d="M52.1 21.6l-1 1.2v-.1l.9-1.1z"/><path id="XMLID_217_" clip-path="url(#XMLID_405_)" fill="#fff" d="M52.2 21.6l-1.1 1.3v-.1l1-1.2z"/><path id="XMLID_216_" clip-path="url(#XMLID_405_)" fill="#fff" d="M52.3 21.6L51.1 23v-.1l1.1-1.3z"/><path id="XMLID_215_" clip-path="url(#XMLID_405_)" fill="#fff" d="M52.4 21.6l-1.3 1.5V23l1.2-1.4z"/><path id="XMLID_214_" clip-path="url(#XMLID_405_)" fill="#fff" d="M52.4 21.6l-1.3 1.6v-.1l1.3-1.5z"/><path id="XMLID_213_" clip-path="url(#XMLID_405_)" fill="#fff" d="M52.5 21.6l-1.4 1.7v-.1l1.3-1.6z"/><path id="XMLID_212_" clip-path="url(#XMLID_405_)" fill="#fff" d="M52.6 21.6l-1.5 1.8v-.1l1.4-1.7z"/><path id="XMLID_211_" clip-path="url(#XMLID_405_)" fill="#fff" d="M52.7 21.6l-1.6 1.9v-.1l1.5-1.8z"/><path id="XMLID_210_" clip-path="url(#XMLID_405_)" fill="#fff" d="M52.8 21.6l-1.7 2v-.1l1.6-1.9z"/><path id="XMLID_209_" clip-path="url(#XMLID_405_)" fill="#fff" d="M52.9 21.6l-1.8 2.1v-.1l1.7-2z"/><path id="XMLID_208_" clip-path="url(#XMLID_405_)" fill="#fff" d="M52.9 21.6l-1.8 2.2v-.1l1.8-2.1z"/><path id="XMLID_207_" clip-path="url(#XMLID_405_)" fill="#fff" d="M53 21.6l-1.9 2.3v-.1l1.8-2.2z"/><path id="XMLID_206_" clip-path="url(#XMLID_405_)" fill="#fff" d="M53.1 21.6l-2 2.4v-.1l1.9-2.3z"/><path id="XMLID_205_" clip-path="url(#XMLID_405_)" fill="#fff" d="M53.2 21.6l-2.1 2.5V24l2-2.4z"/><path id="XMLID_204_" clip-path="url(#XMLID_405_)" fill="#fff" d="M53.3 21.6l-2.1 2.5h-.1l2.1-2.5z"/><path id="XMLID_203_" clip-path="url(#XMLID_405_)" fill="#fff" d="M53.4 21.6l-2.2 2.6v-.1l2.1-2.5z"/><path id="XMLID_202_" clip-path="url(#XMLID_405_)" fill="#fff" d="M53.5 21.6l-2.2 2.6h-.1l2.2-2.6z"/><path id="XMLID_201_" clip-path="url(#XMLID_405_)" fill="#fff" d="M53.5 21.6l-2.2 2.7v-.1l2.2-2.6z"/><path id="XMLID_200_" transform="rotate(-49.998 52.448 22.966)" clip-path="url(#XMLID_405_)" fill="#fff" d="M50.7 22.9h3.4v.1h-3.4z"/><path id="XMLID_199_" transform="rotate(-49.998 52.498 23.008)" clip-path="url(#XMLID_405_)" fill="#fff" d="M50.8 23h3.4v.1h-3.4z"/><path id="XMLID_198_" transform="rotate(-49.998 52.547 23.049)" clip-path="url(#XMLID_405_)" fill="#fff" d="M50.8 23h3.4v.1h-3.4z"/><path id="XMLID_197_" transform="rotate(-49.998 52.596 23.09)" clip-path="url(#XMLID_405_)" fill="#fff" d="M50.9 23.1h3.4v.1h-3.4z"/><path id="XMLID_196_" transform="rotate(-49.998 52.645 23.132)" clip-path="url(#XMLID_405_)" fill="#fff" d="M50.9 23.1h3.4v.1h-3.4z"/><path id="XMLID_195_" transform="rotate(-49.998 52.695 23.173)" clip-path="url(#XMLID_405_)" fill="#fff" d="M51 23.1h3.4v.1H51z"/><path id="XMLID_194_" transform="rotate(-49.998 52.744 23.214)" clip-path="url(#XMLID_405_)" fill="#fff" d="M51 23.2h3.4v.1H51z"/><path id="XMLID_193_" transform="rotate(-49.998 52.794 23.256)" clip-path="url(#XMLID_405_)" fill="#fff" d="M51.1 23.2h3.4v.1h-3.4z"/><path id="XMLID_192_" transform="rotate(-49.998 52.843 23.297)" clip-path="url(#XMLID_405_)" fill="#fff" d="M51.1 23.3h3.4v.1h-3.4z"/><path id="XMLID_191_" transform="rotate(-49.998 52.892 23.339)" clip-path="url(#XMLID_405_)" fill="#fff" d="M51.2 23.3h3.4v.1h-3.4z"/><path id="XMLID_190_" transform="rotate(-49.998 52.941 23.38)" clip-path="url(#XMLID_405_)" fill="#fff" d="M51.2 23.3h3.4v.1h-3.4z"/><path id="XMLID_189_" transform="rotate(-49.998 52.99 23.421)" clip-path="url(#XMLID_405_)" fill="#fff" d="M51.3 23.4h3.4v.1h-3.4z"/><path id="XMLID_188_" clip-path="url(#XMLID_405_)" fill="#fff" d="M54.1 22.1l.1.1-2.2 2.6h-.1v-.1z"/><path id="XMLID_187_" clip-path="url(#XMLID_405_)" fill="#fff" d="M54.2 22.2v.1l-2.1 2.5H52z"/><path id="XMLID_186_" clip-path="url(#XMLID_405_)" fill="#fff" d="M54.2 22.4l-2.1 2.4 2.1-2.5z"/><path id="XMLID_185_" clip-path="url(#XMLID_405_)" fill="#fff" d="M54.2 22.5l-2 2.3h-.1l2.1-2.4z"/><path id="XMLID_184_" clip-path="url(#XMLID_405_)" fill="#fff" d="M54.2 22.6l-1.9 2.2h-.1l2-2.3z"/><path id="XMLID_183_" clip-path="url(#XMLID_405_)" fill="#fff" d="M54.2 22.7l-1.8 2.1h-.1l1.9-2.2z"/><path id="XMLID_182_" clip-path="url(#XMLID_405_)" fill="#fff" d="M54.2 22.8l-1.7 2h-.1l1.8-2.1z"/><path id="XMLID_181_" clip-path="url(#XMLID_405_)" fill="#fff" d="M54.2 22.9l-1.6 1.9h-.1l1.7-2z"/><path id="XMLID_180_" clip-path="url(#XMLID_405_)" fill="#fff" d="M54.2 23l-1.6 1.8 1.6-1.9z"/><path id="XMLID_179_" clip-path="url(#XMLID_405_)" fill="#fff" d="M54.2 23.1l-1.5 1.7h-.1l1.6-1.8z"/><path id="XMLID_178_" clip-path="url(#XMLID_405_)" fill="#fff" d="M54.2 23.2l-1.4 1.6h-.1l1.5-1.7z"/><path id="XMLID_177_" clip-path="url(#XMLID_405_)" fill="#fff" d="M54.2 23.3l-1.3 1.5h-.1l1.4-1.6z"/><path id="XMLID_176_" clip-path="url(#XMLID_405_)" fill="#fff" d="M54.2 23.4L53 24.8h-.1l1.3-1.5z"/><path id="XMLID_175_" clip-path="url(#XMLID_405_)" fill="#fff" d="M54.2 23.5l-1.1 1.3H53l1.2-1.4z"/><path id="XMLID_174_" clip-path="url(#XMLID_405_)" fill="#fff" d="M54.2 23.6l-1 1.2h-.1l1.1-1.3z"/><path id="XMLID_173_" clip-path="url(#XMLID_405_)" fill="#fff" d="M54.2 23.7l-1 1.1 1-1.2z"/><path id="XMLID_172_" clip-path="url(#XMLID_405_)" fill="#fff" d="M54.2 23.8l-.9 1h-.1l1-1.1z"/><path id="XMLID_170_" clip-path="url(#XMLID_405_)" fill="#fff" d="M53.3 24.8l.9-1v1z"/></g></g><path id="XMLID_21_" class="st233" d="M7.3 42.4h-.7c-.1 0-.3 0-.4-.1-.2 0-.4-.1-.5-.3l-.1-.1c-.1-.2-.2-.3-.3-.5-.2-.1-.3-.4-.4-.6-.3-.5-.5-.9-.6-1h-.9v2.3c0 .1 0 .1.1.2l-.7-.5v-4.2c0-.1 0-.1-.1-.2-.2-.2-.5-.2-.5-.2v-.1h2s1.9-.1 1.9 1.3c0 .8-.5 1.2-1 1.4 0 .1.1.1.1.2.1.2.2.4.4.6.1.2.2.4.4.6.1.2.2.3.3.4l.1.2.1.1c0 .1.1.1.1.1.1.1.2.2.3.2h.2c0 .1.2.1.2.2.1-.1.3 0 0 0zm-2-3.9c0-.1.1-1.3-1.1-1.3-.1 0-.4 0-.6.2-.1.1-.1.2-.1.3v2h.7s1.1 0 1.1-1.2z"/><path id="XMLID_19_" class="st233" d="M12.5 42.4H8.6v-.1s.6 0 .6-.5v-4.1c0-.5-.6-.5-.6-.5v-.1h3.7v1.3h-.2c0-.7-.1-1.2-1-1.2h-.6s-.6 0-.6.4v2h.5c.6 0 .7-.5.7-1h.1v2.1h-.1c0-.5-.1-.9-.7-1h-.5v2c0 .5.6.4.6.4h.8c.9 0 1-.7 1-1.3h.2v1.6z"/><path id="XMLID_17_" class="st233" d="M18.3 40.1v.2h-.2c-.1 0-.2.1-.2.3v1.7h-.2c0-.2-.1-.4-.2-.4s-.1 0-.2.1c-.3.2-.6.4-1.1.4H16c-.6 0-1.1-.2-1.5-.5-.4-.3-.7-.9-.8-1.6 0-.2-.1-.4-.1-.6 0-1.5.6-2.2 1.2-2.5.2-.1.5-.2.8-.3h.4c.6 0 1 .2 1.3.5.1 0 .1.1.2.1l.1-.1c0-.1.1-.1.1-.2v-.1h.3v1.7h-.2v-.1c0-.3-.1-.5-.2-.7-.1-.1-.1-.2-.2-.3-.1-.1-.1-.2-.2-.2-.3-.2-.7-.3-1-.3h-.3c-.3.1-.6.3-.8.6-.2.3-.4.8-.5 1.6-.1.5 0 1.1.2 1.6.2.6.5 1.2 1.2 1.4h.5c.2 0 .5-.1.7-.2l.2-.2v-1.2c0-.3-.1-.4-.2-.5-.1 0-.3-.1-.5-.1V40h1.4c-.1.1.1.1.2.1z"/><path id="XMLID_15_" class="st233" d="M23.3 42.4h-3.9v-.1s.6 0 .6-.5v-4.1c0-.5-.6-.5-.6-.5v-.1h3.7v1.3H23c0-.7-.1-1.2-1-1.2h-.6s-.6 0-.6.4v2h.5c.6 0 .7-.5.7-1h.1v2.1H22c0-.5-.1-.9-.7-1h-.5v2c0 .5.6.4.6.4h.8c.9 0 1-.7 1-1.3h.2v1.6z"/><path id="XMLID_13_" class="st233" d="M29.2 37.1v.1s-.6 0-.6.5v4.7h-.2l-3.1-4.9v4.3c.1.4.6.4.6.4v.1h-1.4v-.1s.5 0 .6-.4v-4.2c0-.5-.6-.5-.6-.5V37h1.3l2.7 4.1v-3.5c0-.5-.7-.5-.7-.5V37h1.4z"/><path id="XMLID_11_" class="st233" d="M34.5 37.1v1.6h-.2c0-.7-.1-1.4-1-1.4h-.6v4.9c0 .1 0 .1.1.2l-.7-.5v-4.7h-.6c-.9 0-1 .8-1 1.4h-.2V37h4.2z"/><path id="XMLID_9_" class="st233" d="M42.9 42.3v.1H41v-.1s.5 0 .6-.4v-2h-2.5v2c0 .5.6.5.6.5v.1h-1.9v-.1s.5 0 .6-.4v-4.7l.7.5v2.1h2.5v-2.7l.7.5V42c.1.3.6.3.6.3z"/><path id="XMLID_7_" class="st233" d="M45.9 42.3v.1H44v-.1s.5 0 .6-.4v-4.6c0-.1 0-.1-.1-.2l.7.5v4.2c.1.5.7.5.7.5z"/><path id="XMLID_5_" class="st233" d="M50.8 40.8v1.6H47v-.1s.3 0 .5-.2c.1-.1.1-.2.1-.3v-4.4c0-.1 0-.1-.1-.2l.7.5V42c0 .1.1.2.1.2.1.2.4.2.5.2h.8c.9 0 1-.8 1-1.4h.2z"/><path id="XMLID_2_" class="st233" d="M55.8 40.8v1.6H52v-.1s.3 0 .5-.2c.1-.1.1-.2.1-.3v-4.4c0-.1 0-.1-.1-.2l.7.5V42c0 .1.1.2.1.2.1.2.4.2.5.2h.8c.9 0 1-.8 1-1.4h.2z"/><path class="st233" d="M35.6 4.1s-.1-.5-.5-.3-.3.9-.3.9c-.4-.3-.6 0-.6 0s.8.7 0 1.6c-.7.9-1.5.5-1.5.5s-.7-.6-.1-1c.7-.4 1.1.2 1.1.2.7-1.2-.7-1.4-.7-1.4.4-.6.1-1.2-.1-1.5.3 0 .5-.2.5-.5s-.2-.5-.5-.5-.5.2-.5.5c0 .1.1.3.1.3-1 .5-.9 1.3-.9 1.3-1.4-.7-1.3.8-1.3.8.4-.3.8 0 .8 0s.6.6.1 1c-.5.5-1 .1-1 .1s-.4 0-.5-1.1c-.1-1 .8-1.6.8-1.6-.1-.1-.4-.2-.4-.2.3-.1.7-.5.5-.9-.2-.4-.9-.2-.9-.2.4-.5-.3-1.3-.6-1.5.1-.1.2-.2.2-.3.1-.1-.1-.3-.3-.3-.2 0-.4.2-.4.4s.1.3.2.3c-.3.3-1 1-.6 1.5 0 0-.7-.2-.9.2-.2.4.2.8.5.9 0 0-.3.1-.4.2 0 0 .9.5.8 1.6-.1 1-.5 1.1-.5 1.1s-.5.4-1-.1.1-1 .1-1 .4-.3.8 0c0 0 0-1.5-1.3-.8 0 0 .1-.7-.8-1.3.1-.1.2-.2.2-.4 0-.3-.2-.5-.5-.5s-.5.2-.5.5c0 .2.2.4.4.5-.3.3-.5.9-.1 1.5 0 0-1.4.2-.7 1.4 0 0 .4-.7 1.1-.2.7.4-.1 1-.1 1s-.7.4-1.5-.5c-.7-.9 0-1.6 0-1.6s-.2-.3-.6 0c0 0 .1-.7-.3-.9-.4-.2-.5.3-.5.3s-.1-.6-1.2-.6c0 0 .9.7 2 5.4 1.7-.4 3.7-.6 5.8-.6 2.1 0 4.1.2 5.8.6 1.2-5.3 2-5.4 2-5.4-1.1 0-1.2.6-1.2.6zm-12 4.2l-.1.1c-.1 0-.1 0-.1-.1l-.1-.1s0-.1.1-.1c.1-.1.2-.1.3 0l.1.1c-.1 0-.2.1-.2.1zm1.3-.1c-.1 0-.2-.1-.2-.2s.1-.2.2-.2c0 0 .1.1.1.2.1.1 0 .2-.1.2zm1.4-.2c-.1 0-.1 0 0 0-.1 0-.2-.1-.2-.2s.1-.2.2-.2.2.1.2.2c-.1.1-.1.2-.2.2zm1.3-.1c-.1 0-.2-.1-.2-.2s.1-.2.2-.2.2.1.2.2-.1.2-.2.2zm1.4-.1c-.1 0-.2-.1-.2-.2s.1-.2.2-.2.2.1.2.2-.1.2-.2.2zm1.4.1c-.1 0-.2-.1-.2-.2s.1-.2.2-.2.2.1.2.2c-.1.1-.1.2-.2.2zm1.3.1c-.1 0-.2-.1-.2-.2s.1-.2.2-.2.2.1.2.2c0 .2-.1.2-.2.2zm1.4.2c-.1 0-.2-.1-.2-.2s.1-.2.2-.2.2.1.2.2c0 .2-.1.2-.2.2zm1.5.2l-.1.1s-.1 0-.1-.1l-.1-.1c0-.1 0-.1.1-.1.1-.1.2-.1.3 0l.1.1c-.1 0-.2 0-.2.1zM28 21v-4.5l-1-.6h.1v4.9c0 .7-.6.8-.7.8v.2h2.4v-.2h.1c-.3.1-.9 0-.9-.6z"/><path class="st233" d="M33.2 21.7c-.1 0-.7 0-.9-.5 0-.1-.1-.1-.1-.2v-5.7l-1-.7.2.3c0 .1.1.2.1.3v3h-2l.1.3h1.9v2.3H31c-.1 0-.3-.2-.4-.3l-.2-.2-.2-.2-.2-.2c-.2-.2-.3-.4-.4-.6-.2-.3-.3-.5-.5-.8-.2-.3-.3-.5-.5-.8-.1-.1-.1-.2-.2-.3.7-.2 1.4-.7 1.4-1.8 0-1.6-2-1.7-2.4-1.7h-2.7v.1s.5 0 .7.3v6.1l1.1.6c0-.1-.1-.1-.1-.2v-3.1h.3v-.2h-.3v-2.9c0-.2 0-.3.1-.4.2-.2.5-.3.7-.3h.1c1.6 0 1.5 1.6 1.5 1.8 0 .7-.3 1.1-.6 1.4v1.8l.6.9c.1.2.3.4.5.6l.1.1c.2.2.4.4.7.5.2 0 .3.2.5.2h.7c-.1.5-.7.5-.8.5h-.1v.2h2.7l.1-.2z"/><path class="st233" d="M29 17.5c0 .1.1.1.1.2l.3-.4c-.1.1-.3.1-.4.2zm-.8 2c.1 0 .1 0 0 0zm-1-8.7l.1-.2h-.2l-.1.2-2.1 2.8h.2l2.1-2.8zm-2.9 3.4l-.5.6-.3.4c-.1.2-.2.4-.3.7l.4-.6.8-1h-.2v-.1zM22 17.9l-.1.1.1.1.1-.1 2.8-3.7h-.2L22 17.9zm5.8-7.1l.1-.2h-.2l-.1.2-2.1 2.9h.2l2.1-2.9zm-4.7 10.3l-.3.4c-.1.3-.3.6-.6 1l-.1.1.8-1 2.4-3.1v-.3l-2.2 2.9zm8.1-10.3l.1-.1h-.2l-.1.1-2.2 2.9c.1 0 .1 0 .2.1l2.2-3zm-3.1 3.7l-.8 1.1.1.1.8-1.1s-.1 0-.1-.1zm-4-3.5h-.2l-.2.3c0 .1 0 .1.1.2l.3-.5zm-.3 1.2l1-1.2h-.2l-.7 1c-.1 0-.1.1-.1.2zm.1.4v.3l.2-.2 1.3-1.7.1-.1h-.2l-.2.1-1.1 1.4-.1.2zm0 .7v.3l.2-.2 1.9-2.5.1-.1h-.2l-.1.1-1.7 2.2-.2.2zm.6.4l2.1-2.8.1-.2h-.2l-.1.1-2.3 3-.2.3c0 .1 0 .2-.1.4l.2-.3.3-.4v-.1h.2zm-2.8 4v.1l.4-.5c-.1.2-.2.3-.4.4zm6.7-7l.1-.1h-.2l-.1.2-2.2 2.9h.2l2.2-3zm-3.2 3.9s0-.1 0 0l-2.9 3.7-.1.1.1.1.1-.1 2.8-3.7c.1-.1 0-.1 0-.1zm3.8-4c-.1-.1-.1-.1-.2-.1v.1l-2.2 3h.2l2.2-3zm-6.4 8.1l-.1.1c0 .1.1.1.1.2l.1-.1 2.6-3.4v-.3l-2.7 3.5zm.2.4l-.1.1c0 .1 0 .1.1.2l.1-.1 2.4-3.1v-.3l-2.5 3.2zm6.8-8.4l.1-.1h-.2l-.1.1-2.2 3h.2l2.2-3zm.5 0l.1-.1H30l-.1.1-2.2 2.8h.2l2.2-2.8zM23 19.6l-.1.2v.2l.1-.2 2.2-2.9v-.3l-2.2 3zm4.1-5.2l-.3.4v.3l.5-.7c-.1-.1-.2 0-.2 0zm3.5-3.7l.1-.1h-.2l-.1.1-2.2 2.8h.2l2.2-2.8zm-3 3.7l-.7 1 .1.1.8-1c0-.1-.1-.1-.2-.1zm-4.5 5.8l-.1.2v.3l.2-.2 2.2-2.8v-.3l-2.3 2.8zm8.6-9.4l.1-.1h-.2l-.1.1-2.3 3c.1 0 .1.1.2.1l2.3-3.1zm-3.3 4.1l-.7 1 .1.1.7-.9c0-.1-.1-.2-.1-.2zm-5.8 7.6l-.1.1s.1 0 .2.1l.1-.1 2.6-3.4v-.3l-2.8 3.6zm9.6-11.6l.1-.1h-.2l-.1.1-2.5 3.2.1.1 2.6-3.3zm-3.6 4.5l-.6.7.1.1.4-.5c.1-.1.1-.2.1-.3zM23 22.7l-.1.1s.1.1.2.1l.1-.1 2.2-2.8v-.3l-2.4 3zm9.7-11.8c0-.1-.1-.1-.1-.1l-.1.1-2.7 3.5.1.1 2.8-3.6zm-7.4 9.5l-1.9 2.5-.1.1.1.1.1-.1 1.8-2.4v-.2zm5.6-6.3s0-.1 0 0l2.4-3.1.1-.1h-.2l-.1.1-3 3.9c0 .1 0 .1.1.2l.7-1zm-7.1 9.1l-.1.1.1.1.1-.1 1.8-2.4-.1-.1-1.8 2.4zm7.1-8.7l-.7.9v.3l.7-.9v-.3zm2.9-3.4s-.1-.1-.2-.1l-2.4 3.2.1.1 2.5-3.2zm-9.7 12.3l-.1.1.1.1.1-.1 1.8-2.4V21l-1.9 2.4zm2.3-2.1h-.2.2zm7.8-10l.1-.2h-.2l-2.6 3.3.1.1 2.6-3.2z"/><path class="st233" d="M31 15.5v-.3l-.9 1.1c-.1.4-.4.7-.7.9l-.3.4h.2l1.7-2.1zm-5 6.2l-1.5 2-.1.1.1.1.1-.1 1.4-1.9v-.2zm2.3-2.2v.3l.1-.2c-.1 0-.1-.1-.1-.1zm5.7-7.2l.2-.3c0-.1 0-.3.1-.4l-.2.4-2.1 2.7.1.1 1.9-2.5zm-3 4V16l-1.4 1.7h.3zm-4.7 6l-1.4 1.8-.1.1.1.1.1-.1 1.5-1.9h-.2zm4.1-4.6l.6-.7v-.3l-.8 1zm-1.8 2.2l-.3.4v.3l.4-.5c0-.1-.1-.2-.1-.2zm3.9-4.9l1.4-1.9.2-.2v-.3l-.1.2-1.6 2.1.1.1zm-2.8 3.7zm-4.5 5.7l-.1.1.1.1.1-.1 1.7-2.2h-.2l-1.6 2.1zm5.8-6.7v-.2l-.2.2zm1.7-2.2l1.3-1.7.1-.2v-.3l-.1.3-1.3 1.7v.2zm-3.9 4.8l-.5.7c0 .1 0 .1.1.2l.6-.8c-.1 0-.1-.1-.2-.1zm1.2-1.2l.3-.4h-.2l-.3.3c.1 0 .1 0 .2.1zm-4.5 5.6l-.1.1.1.1.1-.1 2-2.5h-.2l-1.9 2.4zm4.7-5.2l.6-.7h-.2l-.5.6c.1 0 .1 0 .1.1zm3.9-5.1l.1-.2V14l-.1.2-1.4 1.8v.3l1.4-1.9zm-5 6.2l-.5.7h.2l.5-.6c-.1 0-.1 0-.2-.1zM25.8 25l-.1.1.1.1.1-.1 2.2-2.9H28L25.8 25zm3.6-4.1l-.3.4v.2l.4-.5-.1-.1zm4.8-5.9l.1-.2c0-.1 0-.1-.1-.2l-.1.2-1.5 1.9v.3l1.6-2zm-3.6 4.8l.5-.6V19l-.6.7s0 .1.1.1zm-4.5 5.5l-.1.1.1.1.1-.1 2.5-3.2h-.2l-2.4 3.1zm8.3-9.8l.1-.2c0-.1-.1-.1-.1-.2l-.1.2-1.6 2.2v.3l1.7-2.3zm-3.7 4.6c0 .1.1.1.1.1l.2-.2v-.3l-.3.4zM29.2 22v.3h-.1l-2.7 3.4-.1.1.1.1.1-.1 3.4-4.5c-.1 0-.1 0-.2-.1l-.5.8zm1-.6L26.7 26l-.1.1.1.1.1-.1 3.3-4.4.1-.3zm4.4-5.4l.1-.1c0-.1-.1-.1-.1-.2l-.1.2-1.8 2.4v.3l1.9-2.6zm.3.4l.1-.1c0-.1-.1-.1-.1-.2l-.1.1-2.1 2.8v.3l2.2-2.9zm-7.9 10l-.1.1.1.1.1-.1 3.3-4.3h-.2L27 26.4zm8.2-9.6l.1-.1-.1-.1H35l-2.3 3.1v.3l2.5-3.2zm-7.9 10l-.1.1.1.1.1-.1 3.6-4.7h-.2l-3.5 4.6zm.3.4l-.1.1.1.1.1-.1 3.9-5h-.2l-3.8 4.9zm7.9-10.1l.1-.1-.1-.1-.2.1-2.6 3.4v.3l2.8-3.6zm-2.6 4.2l2.9-3.8.1-.1-.1-.1-.1.1-2.9 3.8.1.1zm-5 6.2l-.1.1.1.1.1-.1 4.2-5.4H32l-4.1 5.3zm7.5-8.8l.8-1-.1-.1-.1.1-2.8 3.7h.2l2-2.7zm-7.3 9.2l-.1.1.1.1.1-.1 4.5-5.8h-.2l-4.4 5.7zm5.3-5.9l1.5-1.9.2-.3c0-.2.1-.3.1-.5l-.2.4-1.6 2v.3zm-.3.3l-4.7 6.1-.1.1c0 .1.1.1.1.1l.1-.1 4.8-6.2h-.2zm1.9-1.7v-.3l-.2.2-6.2 8.1-.1.1c0 .1.1.1.1.2l.1-.1 6.1-8 .2-.2zm.2.7s0-.1-.1-.2l-5.2 6.8-1 1.3-.1.1c0 .1.1.1.1.2l.1-.2 1-1.3 5.2-6.7zm.1.4c0-.1-.1-.1-.1-.2l-.1.2-1.4 1.8-.4.6c.2-.2.4-.3.6-.5l.4-.5 1-1.3v-.1zm.1.4l-.4.6-.3.4c.1-.1.3-.2.4-.2l.2-.3.2-.2.1-.1c0-.1-.1-.1-.1-.2h-.1zm.4.3l-.1.2h.2l-.1-.2zM20 45.8h1.1v.2h-.9v.6h.5c.1 0 .2.1.2.1.1 0 .1.1.2.2 0 .1.1.2.1.3 0 .1 0 .2-.1.3s-.1.2-.2.2c-.1.1-.1.1-.2.1H20v-2zm.6 1.9h.2c.1 0 .1 0 .1-.1l.1-.1v-.4c0-.1-.1-.1-.1-.1s-.1-.1-.2-.1h-.5v.8h.4c-.1 0 0 0 0 0zm2.1-.4h-.8l-.2.6h-.2l.8-2.1h.1l.8 2.1h-.3l-.2-.6zm-.7-.2h.6l-.2-.6-.1-.3-.1.3-.2.6zm2.6-.2h-1v.9h-.2v-2.1h.2v.9h1v-.9h.2v2.1h-.2v-.9zm1.2 0h-.1v1h-.2v-2.1h.2v1h.1l.7-.9h.3l-.8.8-.1.1.2.1.8 1h-.3l-.8-1zm1.4-1.1h1.1v.2h-.9v.7h.8v.2h-.8v.7h.9v.2h-1.1v-2zm2.9.2h-.6v1.8h-.2V46h-.6v-.2h1.5v.2zm1.4.8l-.6-1h.3l.4.7.1.2.1-.2.4-.7h.3l-.6 1 .7 1.1h-.3l-.5-.7-.1-.2-.1.2-.5.7h-.3l.7-1.1zm1.2 0c0-.3.1-.6.2-.8.1-.2.4-.3.6-.3.1 0 .3 0 .4.1.1.1.2.1.3.2.1.1.1.2.2.3 0 .1.1.3.1.4 0 .3-.1.6-.2.8-.1.2-.4.3-.6.3-.1 0-.3 0-.4-.1-.1-.1-.2-.1-.3-.2s-.1-.2-.2-.3c-.1-.1-.1-.2-.1-.4zm.2 0v.3c0 .1.1.2.1.3 0 .1.1.1.2.2.1 0 .2.1.3.1.2 0 .3-.1.4-.2.1-.1.2-.4.2-.6v-.3c0-.1-.1-.2-.1-.3 0-.1-.1-.1-.2-.2-.1 0-.2-.1-.3-.1-.2 0-.3.1-.4.2-.1.1-.2.3-.2.6zm2.9-.8h-.6c0 .4 0 .7-.1 1 0 .3-.1.5-.1.6 0 .1-.1.2-.2.2s-.1.1-.2.1h-.2v-.2h.2l.1-.1c0-.1.1-.1.1-.2s0-.2.1-.3v-1.2H36V48h-.2v-2zm1.9 0h-.6c0 .4 0 .7-.1 1 0 .3-.1.5-.1.6 0 .1-.1.2-.2.2s-.1.1-.2.1h-.2v-.2h.2l.1-.1c0-.1.1-.1.1-.2s0-.2.1-.3v-1.2h1.1V48h-.2v-2z"/></svg>