<svg id="Layer_1" xmlns="http://www.w3.org/2000/svg" viewBox="0 0 40 40"><style>.st0{fill:#fff}</style><path class="st0" d="M16 32.8V14.4l-4.1-2.6s.1 0 .1.1v.4s.2 0 .2.1c0 0-.1.1-.1.2.1.4-.1.8-.1 1.2v18.5c0 2.8-2.5 3.2-3 3.2V37h10v-1.3h.1c-.5 0-3.1-.2-3.1-2.9z"/><path class="st0" d="M36.8 35.7c-.4 0-2.9-.1-3.5-2.1-.1-.2-.4-.5-.4-.8V9.6s-4-3-4-2.9c0 0 .9 1.1.9 1.2v.2c.2.3.2.7.2 1.1V22h-7.9l.5 1H30v9.4c0-.1-.5-.1-.6-.2l-.6-.1c-.4-.1-.6-.1-.6-.1-.6 0-1.1-.8-1.5-1.2-.3-.2-.5-.6-.8-.8-.2-.2-.4-.5-.7-.7l-.8-.9-1.8-2.4c-.7-1-1.4-2.1-2-3.2-.7-1.1-1.3-2.2-2-3.2-.2-.4-.4-.7-.6-1.1 2.7-1 5.7-3 5.7-7.5 0-6.7-8.2-7-9.9-7-.2 0-.3.1-.3.1H3v.4s1.8.1 2.6 1.2c.2.1.3.4.4.8v24l4.2 2.6c-.2-.3-.2-.6-.3-1-.1-.2.1-.5.1-.7V20h1v-1h-1V7.2c0-.7.1-1.2.4-1.6.8-1 2.1-1 2.9-1h.3c6.6 0 6.1 6.6 6.1 7.2 0 2.9-.7 4.6-2.7 5.5v7.1c0 .1.3.1.3.2.8 1.2 1.7 2.4 2.5 3.6.6.9 1.2 1.7 1.9 2.5.2.2.3.4.5.5.7.8 1.6 1.8 2.7 2 .7.2 1.4.7 2.1.7h2.7c-.5 2-2.8 2-3.2 2H26v1h11v-1.3c0 .1-.1.1-.2.1z"/></svg>