<?xml version="1.0" encoding="utf-8"?>
<!-- Generator: Adobe Illustrator 19.2.0, SVG Export Plug-In . SVG Version: 6.00 Build 0)  -->
<svg version="1.1" id="Слой_1" xmlns="http://www.w3.org/2000/svg" xmlns:xlink="http://www.w3.org/1999/xlink" x="0px" y="0px"
	 viewBox="0 0 50 40" style="enable-background:new 0 0 50 40;" xml:space="preserve">
<style type="text/css">
	.st0{fill:#AA8C53;}
</style>
<g>
	<path class="st0" d="M47.4,5.7H32.8V1.2c0-0.6-0.5-1.1-1.1-1.1H18.3c-0.6,0-1.1,0.5-1.1,1.1v4.4H2.6C1.2,5.7,0,6.8,0,8.3v29
		c0,1.5,1.2,2.6,2.6,2.6h44.7c1.5,0,2.6-1.2,2.6-2.6v-29C50,6.8,48.8,5.7,47.4,5.7L47.4,5.7z M19.4,2.4h11.1v3.3H19.4V2.4z M2.3,8.3
		c0-0.2,0.2-0.4,0.4-0.4h44.7c0.2,0,0.4,0.2,0.4,0.4v8.4c0,2-1.6,3.6-3.6,3.6H28.6v-3.8c0-0.6-0.5-1.1-1.1-1.1h-4.9
		c-0.6,0-1.1,0.5-1.1,1.1v3.8H5.9c-2,0-3.6-1.6-3.6-3.6V8.3z M23.7,22.6h2.7v1.3c0,0.7-0.6,1.3-1.3,1.3c-0.7,0-1.3-0.6-1.3-1.3V22.6
		z M23.7,20.4v-2.6h2.7v2.6H23.7z M47.4,37.6H2.6c-0.2,0-0.4-0.2-0.4-0.4V21.4c1,0.8,2.3,1.3,3.6,1.3h15.5v1.3c0,2,1.6,3.6,3.6,3.6
		c2,0,3.6-1.6,3.6-3.6v-1.3h15.5c1.4,0,2.6-0.5,3.6-1.3v15.9C47.7,37.5,47.6,37.6,47.4,37.6L47.4,37.6z M47.4,37.6"/>
</g>
</svg>
