<svg id="Слой_1" xmlns="http://www.w3.org/2000/svg" viewBox="0 0 50 40"><style>.st0{fill:#aa8c53}</style><path class="st0" d="M47.4 5.7H32.8V1.2c0-.6-.5-1.1-1.1-1.1H18.3c-.6 0-1.1.5-1.1 1.1v4.4H2.6C1.2 5.7 0 6.8 0 8.3v29c0 1.5 1.2 2.6 2.6 2.6h44.7c1.5 0 2.6-1.2 2.6-2.6v-29c.1-1.5-1.1-2.6-2.5-2.6zm-28-3.3h11.1v3.3H19.4V2.4zM2.3 8.3c0-.2.2-.4.4-.4h44.7c.2 0 .4.2.4.4v8.4c0 2-1.6 3.6-3.6 3.6H28.6v-3.8c0-.6-.5-1.1-1.1-1.1h-4.9c-.6 0-1.1.5-1.1 1.1v3.8H5.9c-2 0-3.6-1.6-3.6-3.6V8.3zm21.4 14.3h2.7v1.3c0 .7-.6 1.3-1.3 1.3-.7 0-1.3-.6-1.3-1.3v-1.3zm0-2.2v-2.6h2.7v2.6h-2.7zm23.7 17.2H2.6c-.2 0-.4-.2-.4-.4V21.4c1 .8 2.3 1.3 3.6 1.3h15.5V24c0 2 1.6 3.6 3.6 3.6s3.6-1.6 3.6-3.6v-1.3H44c1.4 0 2.6-.5 3.6-1.3v15.9c.1.2 0 .3-.2.3zm0 0"/></svg>