<svg id="Слой_1" xmlns="http://www.w3.org/2000/svg" viewBox="0 0 30 56"><style>.st0{fill:#aa8c53}</style><path class="st0" d="M29.5 7.4L15.5.1c-.2-.1-.3-.1-.5-.1s-.3.1-.5.1L.5 7.4c-.3.2-.5.5-.5.9v41.3c0 .4.2.8.6.9L14.7 56c.1 0 .2.1.3.1.1 0 .2 0 .3-.1l14.1-5.5c.4-.1.6-.5.6-.9V8.3c0-.4-.2-.7-.5-.9zM7.7 8c0-.1.1-.2.2-.3l4.5-2h.3c.1.1.1.2.1.3v7.4c0 .1-.1.3-.2.3l-4.4 1.4h-.1c-.1 0-.1 0-.2-.1s-.1-.2-.1-.3V8zM6.4 45c0 .1 0 .2-.1.3-.1 0-.1.1-.2.1H6l-3.5-.9c-.1 0-.2-.2-.2-.3V38c0-.1 0-.2.1-.2.1-.1.2-.1.2-.1l3.5.5c.2 0 .3.2.3.3V45zm0-9.9c0 .1 0 .2-.1.2-.1.1-.1.1-.2.1l-3.5-.2c-.2 0-.3-.2-.3-.3v-6.1c0-.2.1-.3.3-.3l3.4-.2c.1 0 .2 0 .2.1.1.1.1.1.1.2v6.5zm0-9.8c0 .2-.1.3-.3.3l-3.5.5c-.1 0-.2 0-.2-.1-.1-.1-.1-.1-.1-.2v-6.1c0-.1.1-.3.2-.3l3.5-1c.1 0 .2 0 .3.1.1.1.1.2.1.3v6.5zm0-9.8c0 .1-.1.3-.2.3l-3.5 1.1h-.1c-.1 0-.1 0-.2-.1s-.1-.2-.1-.3v-6.1c0-.1.1-.2.2-.3L6 8.5h.3c.1.1.1.2.1.3v6.7zm6.4 31.2c0 .1 0 .2-.1.3-.1 0-.1.1-.2.1h-.1l-4.5-1.2c-.1 0-.2-.2-.2-.3v-6.8c0-.1 0-.2.1-.2.1-.1.2-.1.2-.1l4.5.6c.2 0 .3.2.3.3v7.3zm0-11.1c0 .1 0 .2-.1.2-.1.1-.1.1-.2.1L8 35.6c-.2 0-.3-.2-.3-.3v-6.8c0-.2.1-.3.3-.3l4.5-.3c.1 0 .2 0 .2.1.1.1.1.1.1.2v7.4zm-.3-10.8l-4.5.6c-.1 0-.1 0-.2-.1s-.1-.2-.1-.2v-6.8c0-.1.1-.3.2-.3l4.5-1.2c.1 0 .2 0 .3.1.1.1.1.2.1.3v7.4s-.1.2-.3.2zm15.3 19.3c0 .2-.1.3-.2.3l-10 2.6h-.1c-.1 0-.1 0-.2-.1s-.1-.2-.1-.3v-7.4c0-.2.1-.3.3-.3l10-1.3c.1 0 .2 0 .2.1.1.1.1.2.1.2v6.2zm0-9.2c0 .2-.1.3-.3.3l-10 .6c-.1 0-.2 0-.2-.1-.1-.1-.1-.1-.1-.2v-7.4c0-.1 0-.2.1-.2.1-.1.1-.1.2-.1l10 .6c.2 0 .3.2.3.3v6.2zm0-9.1c0 .1 0 .2-.1.2-.1.1-.1.1-.2.1l-10-1.3c-.2 0-.3-.2-.3-.3v-7.4c0-.1 0-.2.1-.3.1-.1.2-.1.3-.1l10 2.6c.1 0 .2.2.2.3v6.2zm0-9.2c0 .1 0 .2-.1.3-.1 0-.1.1-.2.1h-.1l-10-3.2c-.1 0-.2-.2-.2-.3V6c0-.1.1-.2.1-.3.1-.1.2-.1.3 0l10 4.5c.1 0 .2.2.2.3v6.1zm0 0"/></svg>