<?xml version="1.0" encoding="utf-8"?>
<!-- Generator: Adobe Illustrator 19.2.0, SVG Export Plug-In . SVG Version: 6.00 Build 0)  -->
<svg version="1.1" id="Слой_1" xmlns="http://www.w3.org/2000/svg" xmlns:xlink="http://www.w3.org/1999/xlink" x="0px" y="0px"
	 viewBox="0 0 30 56" style="enable-background:new 0 0 30 56;" xml:space="preserve">
<style type="text/css">
	.st0{fill:#AA8C53;}
</style>
<path class="st0" d="M29.5,7.4l-14-7.3C15.3,0,15.2,0,15,0c-0.2,0-0.3,0.1-0.5,0.1l-14,7.3C0.2,7.6,0,7.9,0,8.3v41.3
	c0,0.4,0.2,0.8,0.6,0.9l14.1,5.5c0.1,0,0.2,0.1,0.3,0.1c0.1,0,0.2,0,0.3-0.1l14.1-5.5c0.4-0.1,0.6-0.5,0.6-0.9V8.3
	C30,7.9,29.8,7.6,29.5,7.4L29.5,7.4z M7.7,8c0-0.1,0.1-0.2,0.2-0.3l4.5-2c0.1,0,0.2,0,0.3,0c0.1,0.1,0.1,0.2,0.1,0.3v7.4
	c0,0.1-0.1,0.3-0.2,0.3l-4.4,1.4c0,0-0.1,0-0.1,0c-0.1,0-0.1,0-0.2-0.1c-0.1-0.1-0.1-0.2-0.1-0.3V8z M6.4,45c0,0.1,0,0.2-0.1,0.3
	c-0.1,0-0.1,0.1-0.2,0.1c0,0-0.1,0-0.1,0l-3.5-0.9c-0.1,0-0.2-0.2-0.2-0.3V38c0-0.1,0-0.2,0.1-0.2c0.1-0.1,0.2-0.1,0.2-0.1l3.5,0.5
	c0.2,0,0.3,0.2,0.3,0.3V45z M6.4,35.1c0,0.1,0,0.2-0.1,0.2c-0.1,0.1-0.1,0.1-0.2,0.1c0,0,0,0,0,0l-3.5-0.2c-0.2,0-0.3-0.2-0.3-0.3
	v-6.1c0-0.2,0.1-0.3,0.3-0.3L6,28.3c0.1,0,0.2,0,0.2,0.1c0.1,0.1,0.1,0.1,0.1,0.2V35.1z M6.4,25.3c0,0.2-0.1,0.3-0.3,0.3l-3.5,0.5
	c0,0,0,0,0,0c-0.1,0-0.2,0-0.2-0.1c-0.1-0.1-0.1-0.1-0.1-0.2v-6.1c0-0.1,0.1-0.3,0.2-0.3L6,18.4c0.1,0,0.2,0,0.3,0.1
	c0.1,0.1,0.1,0.2,0.1,0.3V25.3z M6.4,15.5c0,0.1-0.1,0.3-0.2,0.3l-3.5,1.1c0,0-0.1,0-0.1,0c-0.1,0-0.1,0-0.2-0.1
	c-0.1-0.1-0.1-0.2-0.1-0.3v-6.1c0-0.1,0.1-0.2,0.2-0.3l3.5-1.6c0.1,0,0.2,0,0.3,0c0.1,0.1,0.1,0.2,0.1,0.3V15.5z M12.8,46.7
	c0,0.1,0,0.2-0.1,0.3c-0.1,0-0.1,0.1-0.2,0.1c0,0-0.1,0-0.1,0l-4.5-1.2c-0.1,0-0.2-0.2-0.2-0.3v-6.8c0-0.1,0-0.2,0.1-0.2
	c0.1-0.1,0.2-0.1,0.2-0.1l4.5,0.6c0.2,0,0.3,0.2,0.3,0.3V46.7z M12.8,35.6c0,0.1,0,0.2-0.1,0.2c-0.1,0.1-0.1,0.1-0.2,0.1
	c0,0,0,0,0,0L8,35.6c-0.2,0-0.3-0.2-0.3-0.3v-6.8c0-0.2,0.1-0.3,0.3-0.3l4.5-0.3c0.1,0,0.2,0,0.2,0.1c0.1,0.1,0.1,0.1,0.1,0.2V35.6z
	 M12.5,24.8l-4.5,0.6c0,0,0,0,0,0c-0.1,0-0.1,0-0.2-0.1c-0.1-0.1-0.1-0.2-0.1-0.2v-6.8c0-0.1,0.1-0.3,0.2-0.3l4.5-1.2
	c0.1,0,0.2,0,0.3,0.1c0.1,0.1,0.1,0.2,0.1,0.3l0,7.4C12.8,24.6,12.7,24.8,12.5,24.8L12.5,24.8z M27.8,44.1c0,0.2-0.1,0.3-0.2,0.3
	l-10,2.6c0,0-0.1,0-0.1,0c-0.1,0-0.1,0-0.2-0.1c-0.1-0.1-0.1-0.2-0.1-0.3v-7.4c0-0.2,0.1-0.3,0.3-0.3l10-1.3c0.1,0,0.2,0,0.2,0.1
	c0.1,0.1,0.1,0.2,0.1,0.2V44.1z M27.8,34.9c0,0.2-0.1,0.3-0.3,0.3l-10,0.6c0,0,0,0,0,0c-0.1,0-0.2,0-0.2-0.1
	c-0.1-0.1-0.1-0.1-0.1-0.2v-7.4c0-0.1,0-0.2,0.1-0.2c0.1-0.1,0.1-0.1,0.2-0.1l10,0.6c0.2,0,0.3,0.2,0.3,0.3V34.9z M27.8,25.8
	c0,0.1,0,0.2-0.1,0.2c-0.1,0.1-0.1,0.1-0.2,0.1c0,0,0,0,0,0l-10-1.3c-0.2,0-0.3-0.2-0.3-0.3v-7.4c0-0.1,0-0.2,0.1-0.3
	c0.1-0.1,0.2-0.1,0.3-0.1l10,2.6c0.1,0,0.2,0.2,0.2,0.3V25.8z M27.8,16.6c0,0.1,0,0.2-0.1,0.3c-0.1,0-0.1,0.1-0.2,0.1
	c0,0-0.1,0-0.1,0l-10-3.2c-0.1,0-0.2-0.2-0.2-0.3V6c0-0.1,0.1-0.2,0.1-0.3c0.1-0.1,0.2-0.1,0.3,0l10,4.5c0.1,0,0.2,0.2,0.2,0.3V16.6
	z M27.8,16.6"/>
</svg>
