<svg id="Layer_1" xmlns="http://www.w3.org/2000/svg" viewBox="0 0 202.1 68.2"><style>.st0{opacity:.4}.st1{fill:url(#SVGID_1_)}.st2{fill:url(#SVGID_2_)}.st3{fill:#e2bf89}</style><g class="st0"><linearGradient id="SVGID_1_" gradientUnits="userSpaceOnUse" x1="101.072" y1="34.115" x2="202.115" y2="34.115"><stop offset="0" stop-color="#e2bf89"/><stop offset="1" stop-color="#b09050"/></linearGradient><path class="st1" d="M201.9 11.2c-.7 2.7-4.1 15.7-17.3 14.3 13.9-.3 17.3-14.3 15.8-16.9-2-3.3-5.2-8-10.5-8.5-7.1-.6-10 2.8-11.3 5.5-.5.7-.7 1.4-.7 2.2-.1.5-.1.8-.1.8s.1-.1.2-.1c.1.6.3 1.1.7 1.5 1.2 1.2 3.8 1.3 5.4-.3.9-.9 1.1-2.1 1.7-2.7 2.8.1 9.4 7.7 1.7 13.5-7.5 5.7-21.8 1.5-31.8-.1s-24.7 1.1-30.5 3.9c-6.1 3-15.1 9.3-21.3 19.3-4.5 7.9-2.4 14.5-.7 17.6 1.6 3 7 8.3 12.4 7.2 4.4-.9 7.8-3.9 8.3-9.2.4-4.6-3.4-7.3-5.9-7.9-2.4-.5-6.9.7-6.5 5.5.1 3 2.7 4.2 4.2 3 1-.7.9-2 .9-2 1.5-.7 2.8 1 2.8 2 .1 1.6-1.7 2.8-3.1 3.4-5.5 2.4-9-3.4-9-3.4s-5.2-6.7.6-16.9c1.5-2.7 4.2-4.6 7.3-5.2 6.1-1 10.4.3 10.4.3 11.9 2.9 6.3 10 6.3 10-2.2.5-2.2 2.2.6 4 2.7 1.7 4.8-1.9 4.8-1.9s3.2 2.1 6-.6c2.8-2.8 1.3-7.8 1.3-7.8.5-.1.9-.4 1.2-.8 1-1.1 1.3-2.6.9-4-1.6-6.3-10.3-9.3-19.8-8.3-1.1.1-2.1.4-3.2.7-3.6 1.2-7 3.2-8.2 4 3.8-2.9 11.6-6.4 22.1-8.9 2.7-.6 5.7-.8 8.9-.7 1.6.5 3.6 1.4 5.6 2.8.6.3 1.2.8 1.4 2.4.1.7.1 2.1 1.3 2.5.7.2 1.4-.1 1.6-.8 0-.1 0-.2.1-.2 0 0 .6 1.4-.5 4.2-.6 1.3-.6 2.5-.5 3.3.1 1 .6 1.9 1.4 2.5.6.4 1.3.6 1.8-.2.2-.3.3-.6.3-.9.1-1 .4-3.7.7-4.8.5-1.3 1 1.1 1 1.1s.6 1.7-.3 5.7c-.9 4.1-.4 5.2 1.7 6.1 1.8.8 3.1-1.2 3-2.4-.1-1.4-.1-2.5-.1-2.5s.2-1.8 1.1-.2c.9 1.6-.9 5.1-.9 5.1s-1.3 2.6-.3 5.5c1.1 3.2 3.8 2.5 3.8 2.5s2.4-.5 2.2-3.4l-.4-2.1c-.1-.5 0-1 .2-1.4.2-.5.8-.5 1 .2.6 1.8.3 3.7 2.3 7.7.6 1.3 1.6 2.2 2.3 2.5 1 .3 1.8-.2 1.6-1.3l-.3-2.2s-.1-1.3 1.1-.6c1.2.7 5.1 3.8 6.5 2 .2-.3.3-.7.2-1-.1-.5-.5-1.1-1.7-1.8-2.2-1.3-1.4-2.7-.8-3.2s1.4-1.9.3-2.9c-1-1-2.4-1.6-2.4-1.6s-1.7-.8-.4-1.1c1.3-.4 4.5-.5 5.1-3.3.3-1.5-.3-2.3-1-2.7-.5-.3-1.1-.4-1.7-.4-.8 0-2.6.1-4.3.5-.4.1-.9.1-1.3-.1-.5-.2-.8-.6-.3-1.6.5-.9.1-1.5-.2-1.9-.2-.2-.5-.3-.7-.4-.3-.1-.7 0-1.2.1-1 .4-4.7 1.6-6.2-.6 0 0-.4-.2 1-.9.5-.2.8-.5 1-.9.3-.6.2-1.2-.4-1.7-.6-.4-1.3-.6-1.9-.7h-3.5s-2.7.2-1.9-1.1c.9-1.3 1.1-2.2-.9-3-1.4-.5-3.3 0-4.5.3-.9.2-1.8.1-2.6-.3l-4.8-2.7c14.1 1.3 30.5 7 40.9 5.2 13.7-2.5 10.9-17.8 10.9-17.8zm-44.8 16.7c1.6.6 5-.2 5-.2-1.3 1.5-3.6.9-3.6.9s3.6 2 4.6 2.9c.8.7 3 1.1 5.1.8.1 0 .1.1 0 .2-1.5.8-4.2.3-4.2.3.5.3 2.3 2.4 2.3 2.4 2.9 3.3 6.8 2.6 8.3 2.2.1 0 .1.1.1.1-2.7 1.4-6 .6-6 .6 3.5 6.3 12.7 3.3 14.4 2.6.1 0 .1.1.1.1-3.2 3.4-10.8 1.6-10.8 1.6 3.5 5.2 8.2 5.8 9.5 5.8.1 0 .1.1 0 .1-1.9.8-4.5-.2-4.7-.3.1.6 2.3 3.4 4.3 5.2.1.1 0 .2-.1.1-2.1-1.7-4.4-3.7-5.9-6.1 0-.1-.1 0-.1.1.3 1.4.3 5.6.2 7 0 .1-.1.1-.2 0-.3-1.4-.4-5.3-1.1-7.4-.6-2-4.1-5.6-4.5-5.9.6 3.4-1.5 7.4-2.2 8.7 0 .1-.2 0-.1-.1.3-1.2 1-3.6 1.3-4.4.1-.2.1-.3.1-.5.1-.7.4-2.6 0-4.3-.5-2.2-4.1-6-4.1-6s.1 2-.7 4.3c-.6 1.7-1.2 3.3-1.4 3.9 0 .1-.1.1-.1 0 0-1 .6-3 1.1-4.6.5-1.9.6-2.9-.1-4.8s-5.5-4.3-5.5-4.3 1.5 2.5.3 5c-.8 1.6-.9 3.1-.9 3.7 0 .1-.1.1-.2 0-.2-.6 0-1.9.7-4.2.8-2.8-.5-4.8-.9-5.4-.1 0 0-.1 0-.1z"/><linearGradient id="SVGID_2_" gradientUnits="userSpaceOnUse" y1="34.102" x2="101.072" y2="34.102"><stop offset="0" stop-color="#e2bf89"/><stop offset="1" stop-color="#b09050"/></linearGradient><path class="st2" d="M77.1 24c-5.8-2.8-20.4-5.6-30.4-4-10 1.6-24.4 6-31.9.3C7 14.5 13.7 6.9 16.4 6.9c.5.5.8 1.8 1.7 2.7 1.6 1.6 4 1.7 5.2.4.4-.4.7-1 .8-1.5.1.1.2.1.2.1s0-.3-.1-.8c0-.7-.3-1.5-.7-2.2C22.3 2.9 19.3-.5 12.2.1 7 .5 3.8 5.2 1.8 8.5.2 11.1 3.7 25.1 17.6 25.4 4.3 26.9.9 13.8.2 11.2c0 0-2.8 15.3 10.9 17.7C21.5 30.7 38 25 52 23.7l-4.8 2.7c-.8.4-1.7.5-2.6.3-1.2-.3-3.1-.8-4.5-.3-2 .8-1.8 1.7-.9 3s-1.9 1.1-1.9 1.1h-3.5c-.7 0-1.4.2-1.9.7-.6.5-.7 1.1-.4 1.7.2.4.5.7 1 .9 1.4.6 1 .9 1 .9-1.5 2.1-5.2 1-6.2.6-.4-.2-.9-.2-1.2-.1-.3 0-.5.2-.7.4-.4.3-.7 1-.2 1.9.5 1 .1 1.4-.3 1.6-.4.2-.8.2-1.3.1-1.8-.4-3.5-.5-4.3-.5-.6 0-1.2.1-1.7.4-.7.4-1.4 1.2-1 2.7.6 2.8 3.9 2.9 5.1 3.3 1.3.4-.4 1.1-.4 1.1s-1.3.6-2.4 1.6c-1 1-.3 2.5.3 2.9s1.4 1.9-.8 3.2c-1.2.7-1.6 1.4-1.7 1.8-.1.4 0 .8.2 1 1.4 1.8 5.3-1.4 6.5-2 1.3-.7 1.1.6 1.1.6l-.3 2.2c-.2 1.1.6 1.6 1.6 1.3.7-.2 1.7-1.2 2.3-2.5 2-4 1.7-5.9 2.3-7.7.2-.7.8-.7 1-.2.2.4.3.9.2 1.4l-.4 2.1c-.3 2.9 2.2 3.4 2.2 3.4s2.8.7 3.8-2.5c1-2.9-.3-5.5-.3-5.5s-1.8-3.5-.9-5.1c.9-1.6 1.1.2 1.1.2s0 1.1-.1 2.5c-.1 1.2 1.2 3.2 3 2.4 2-.9 2.6-2.1 1.7-6.1-.9-4.1-.3-5.7-.3-5.7s.5-2.4 1-1.1c.4 1.1.7 3.8.7 4.8 0 .3.1.6.3.9.5.8 1.2.6 1.8.2.8-.6 1.3-1.5 1.4-2.5.1-.8 0-2-.5-3.3-1.2-2.8-.5-4.2-.5-4.2 0 .1 0 .2.1.2.2.7 1 1 1.6.8 1.2-.4 1.2-1.8 1.3-2.5.2-1.6.8-2 1.4-2.4 2-1.4 4-2.3 5.6-2.8 3.2-.1 6.2.1 8.9.7 10.5 2.5 18.3 6 22.1 8.9-1.2-.8-4.6-2.7-8.2-4-1-.4-2.1-.6-3.2-.7-9.4-1.1-18.2 2-19.8 8.3-.4 1.4 0 2.9.9 4 .3.4.8.7 1.2.8 0 0-1.5 5.1 1.3 7.8 2.8 2.8 6 .6 6 .6s2.1 3.6 4.8 1.9c2.7-1.7 2.7-3.5.6-4 0 0-5.6-7.1 6.3-10 0 0 4.3-1.3 10.4-.3 3.1.5 5.7 2.4 7.3 5.2 5.8 10.2.6 16.9.6 16.9s-3.6 5.7-9 3.4c-1.5-.6-3.2-1.8-3.1-3.4 0-1 1.4-2.7 2.8-2 0 0-.1 1.2.9 2 1.5 1.1 4.2 0 4.2-3 .5-4.8-4-6.1-6.4-5.5-2.4.5-6.3 3.3-5.9 7.9.5 5.3 3.8 8.3 8.3 9.2 5.5 1.1 10.8-4.2 12.4-7.2 1.7-3.1 3.8-9.7-.7-17.6C92.1 33.3 83.2 26.9 77.1 24zm-32.9 9.5c.7 2.3.8 3.6.7 4.2 0 .1-.1.1-.2 0 0-.6-.2-2.1-.9-3.7-1.2-2.5.3-5 .3-5s-4.8 2.5-5.5 4.3c-.7 1.9-.6 2.9-.1 4.8.5 1.6 1.2 3.7 1.1 4.6 0 .1-.1.1-.1 0-.2-.6-.8-2.2-1.4-3.9-.8-2.3-.7-4.3-.7-4.3s-3.6 3.8-4.1 6c-.4 1.8-.1 3.6 0 4.3 0 .2.1.3.1.5.2.7 1 3.1 1.3 4.4 0 .1-.1.1-.1.1-.7-1.3-2.8-5.3-2.2-8.7-.4.2-3.8 3.8-4.5 5.9-.7 2.1-.8 6.1-1.1 7.4 0 .1-.1.1-.2 0-.1-1.3-.1-5.5.2-7 0-.1-.1-.1-.1-.1-1.5 2.5-3.9 4.4-5.9 6.1-.1.1-.2 0-.1-.1 2-1.8 4.2-4.6 4.3-5.2-.2.1-2.9 1.1-4.7.3-.1 0-.1-.1 0-.1 1.3-.1 6.1-.6 9.5-5.8 0 0-7.6 1.8-10.8-1.6-.1-.1 0-.2.1-.1 1.7.6 10.9 3.7 14.4-2.6 0 0-3.4.8-6-.6-.1 0 0-.2.1-.1 1.6.5 5.4 1.2 8.3-2.2 0 0 1.8-2.1 2.3-2.4 0 0-2.7.5-4.2-.3-.1 0-.1-.2 0-.2 2.2.3 4.3-.1 5.1-.8 1.1-.9 4.6-2.9 4.6-2.9s-2.3.6-3.6-.9c0 0 3.4.8 5 .2.1 0 .1.1.1.1-.5.5-1.8 2.5-1 5.4z"/></g></svg>