<?xml version="1.0" encoding="utf-8"?>
<!-- Generator: Adobe Illustrator 19.2.0, SVG Export Plug-In . SVG Version: 6.00 Build 0)  -->
<svg version="1.1" id="Layer_1" xmlns="http://www.w3.org/2000/svg" xmlns:xlink="http://www.w3.org/1999/xlink" x="0px" y="0px"
	 viewBox="0 0 202.1 68.2" style="enable-background:new 0 0 202.1 68.2;" xml:space="preserve">
<style type="text/css">
	.st0{opacity:0.4;}
	.st1{fill:url(#SVGID_1_);}
	.st2{fill:url(#SVGID_2_);}
	.st3{fill:#E2BF89;}
</style>
<g class="st0">
	<linearGradient id="SVGID_1_" gradientUnits="userSpaceOnUse" x1="101.0724" y1="34.1148" x2="202.1148" y2="34.1148">
		<stop  offset="0" style="stop-color:#E2BF89"/>
		<stop  offset="1" style="stop-color:#B09050"/>
	</linearGradient>
	<path class="st1" d="M201.9,11.2c-0.7,2.7-4.1,15.7-17.3,14.3c13.9-0.3,17.3-14.3,15.8-16.9c-2-3.3-5.2-8-10.5-8.5
		c-7.1-0.6-10,2.8-11.3,5.5c-0.5,0.7-0.7,1.4-0.7,2.2c-0.1,0.5-0.1,0.8-0.1,0.8s0.1-0.1,0.2-0.1c0.1,0.6,0.3,1.1,0.7,1.5
		c1.2,1.2,3.8,1.3,5.4-0.3c0.9-0.9,1.1-2.1,1.7-2.7c0,0,0,0,0,0c2.8,0.1,9.4,7.7,1.7,13.5c-7.5,5.7-21.8,1.5-31.8-0.1
		c-10-1.6-24.7,1.1-30.5,3.9c-6.1,3-15.1,9.3-21.3,19.3c-4.5,7.9-2.4,14.5-0.7,17.6c1.6,3,7,8.3,12.4,7.2c4.4-0.9,7.8-3.9,8.3-9.2
		c0.4-4.6-3.4-7.3-5.9-7.9c-2.4-0.5-6.9,0.7-6.5,5.5c0.1,3,2.7,4.2,4.2,3c1-0.7,0.9-2,0.9-2c1.5-0.7,2.8,1,2.8,2
		c0.1,1.6-1.7,2.8-3.1,3.4c-5.5,2.4-9-3.4-9-3.4s-5.2-6.7,0.6-16.9c1.5-2.7,4.2-4.6,7.3-5.2c6.1-1,10.4,0.3,10.4,0.3
		c11.9,2.9,6.3,10,6.3,10c-2.2,0.5-2.2,2.2,0.6,4c2.7,1.7,4.8-1.9,4.8-1.9s3.2,2.1,6-0.6c2.8-2.8,1.3-7.8,1.3-7.8
		c0.5-0.1,0.9-0.4,1.2-0.8c1-1.1,1.3-2.6,0.9-4c-1.6-6.3-10.3-9.3-19.8-8.3c-1.1,0.1-2.1,0.4-3.2,0.7c-3.6,1.2-7,3.2-8.2,4
		c3.8-2.9,11.6-6.4,22.1-8.9c2.7-0.6,5.7-0.8,8.9-0.7c1.6,0.5,3.6,1.4,5.6,2.8c0.6,0.3,1.2,0.8,1.4,2.4c0.1,0.7,0.1,2.1,1.3,2.5
		c0.7,0.2,1.4-0.1,1.6-0.8c0-0.1,0-0.2,0.1-0.2c0,0,0.6,1.4-0.5,4.2c-0.6,1.3-0.6,2.5-0.5,3.3c0.1,1,0.6,1.9,1.4,2.5
		c0.6,0.4,1.3,0.6,1.8-0.2c0.2-0.3,0.3-0.6,0.3-0.9c0.1-1,0.4-3.7,0.7-4.8c0.5-1.3,1,1.1,1,1.1s0.6,1.7-0.3,5.7
		c-0.9,4.1-0.4,5.2,1.7,6.1c1.8,0.8,3.1-1.2,3-2.4c-0.1-1.4-0.1-2.5-0.1-2.5s0.2-1.8,1.1-0.2c0.9,1.6-0.9,5.1-0.9,5.1
		s-1.3,2.6-0.3,5.5c1.1,3.2,3.8,2.5,3.8,2.5s2.4-0.5,2.2-3.4l-0.4-2.1c-0.1-0.5,0-1,0.2-1.4c0.2-0.5,0.8-0.5,1,0.2
		c0.6,1.8,0.3,3.7,2.3,7.7c0.6,1.3,1.6,2.2,2.3,2.5c1,0.3,1.8-0.2,1.6-1.3l-0.3-2.2c0,0-0.1-1.3,1.1-0.6c1.2,0.7,5.1,3.8,6.5,2
		c0.2-0.3,0.3-0.7,0.2-1c-0.1-0.5-0.5-1.1-1.7-1.8c-2.2-1.3-1.4-2.7-0.8-3.2s1.4-1.9,0.3-2.9c-1-1-2.4-1.6-2.4-1.6s-1.7-0.8-0.4-1.1
		c1.3-0.4,4.5-0.5,5.1-3.3c0.3-1.5-0.3-2.3-1-2.7c-0.5-0.3-1.1-0.4-1.7-0.4c-0.8,0-2.6,0.1-4.3,0.5c-0.4,0.1-0.9,0.1-1.3-0.1
		c-0.5-0.2-0.8-0.6-0.3-1.6c0.5-0.9,0.1-1.5-0.2-1.9c-0.2-0.2-0.5-0.3-0.7-0.4c-0.3-0.1-0.7,0-1.2,0.1c-1,0.4-4.7,1.6-6.2-0.6
		c0,0-0.4-0.2,1-0.9c0.5-0.2,0.8-0.5,1-0.9c0.3-0.6,0.2-1.2-0.4-1.7c-0.6-0.4-1.3-0.6-1.9-0.7l-3.5,0c0,0-2.7,0.2-1.9-1.1
		c0.9-1.3,1.1-2.2-0.9-3c-1.4-0.5-3.3,0-4.5,0.3c-0.9,0.2-1.8,0.1-2.6-0.3l-4.8-2.7c14.1,1.3,30.5,7,40.9,5.2
		C204.7,26.5,201.9,11.2,201.9,11.2z M157.1,27.9c1.6,0.6,5-0.2,5-0.2c-1.3,1.5-3.6,0.9-3.6,0.9s3.6,2,4.6,2.9
		c0.8,0.7,3,1.1,5.1,0.8c0.1,0,0.1,0.1,0,0.2c-1.5,0.8-4.2,0.3-4.2,0.3c0.5,0.3,2.3,2.4,2.3,2.4c2.9,3.3,6.8,2.6,8.3,2.2
		c0.1,0,0.1,0.1,0.1,0.1c-2.7,1.4-6,0.6-6,0.6c3.5,6.3,12.7,3.3,14.4,2.6c0.1,0,0.1,0.1,0.1,0.1c-3.2,3.4-10.8,1.6-10.8,1.6
		c3.5,5.2,8.2,5.8,9.5,5.8c0.1,0,0.1,0.1,0,0.1c-1.9,0.8-4.5-0.2-4.7-0.3c0.1,0.6,2.3,3.4,4.3,5.2c0.1,0.1,0,0.2-0.1,0.1
		c-2.1-1.7-4.4-3.7-5.9-6.1c0-0.1-0.1,0-0.1,0.1c0.3,1.4,0.3,5.6,0.2,7c0,0.1-0.1,0.1-0.2,0c-0.3-1.4-0.4-5.3-1.1-7.4
		c-0.6-2-4.1-5.6-4.5-5.9c0.6,3.4-1.5,7.4-2.2,8.7c0,0.1-0.2,0-0.1-0.1c0.3-1.2,1-3.6,1.3-4.4c0.1-0.2,0.1-0.3,0.1-0.5
		c0.1-0.7,0.4-2.6,0-4.3c-0.5-2.2-4.1-6-4.1-6s0.1,2-0.7,4.3c-0.6,1.7-1.2,3.3-1.4,3.9c0,0.1-0.1,0.1-0.1,0c0-1,0.6-3,1.1-4.6
		c0.5-1.9,0.6-2.9-0.1-4.8c-0.7-1.9-5.5-4.3-5.5-4.3s1.5,2.5,0.3,5c-0.8,1.6-0.9,3.1-0.9,3.7c0,0.1-0.1,0.1-0.2,0
		c-0.2-0.6,0-1.9,0.7-4.2c0.8-2.8-0.5-4.8-0.9-5.4C157,28,157.1,27.9,157.1,27.9z"/>
	<linearGradient id="SVGID_2_" gradientUnits="userSpaceOnUse" x1="0" y1="34.1024" x2="101.0724" y2="34.1024">
		<stop  offset="0" style="stop-color:#E2BF89"/>
		<stop  offset="1" style="stop-color:#B09050"/>
	</linearGradient>
	<path class="st2" d="M77.1,24c-5.8-2.8-20.4-5.6-30.4-4c-10,1.6-24.4,6-31.9,0.3C7,14.5,13.7,6.9,16.4,6.9c0,0,0,0,0,0
		c0.5,0.5,0.8,1.8,1.7,2.7c1.6,1.6,4,1.7,5.2,0.4c0.4-0.4,0.7-1,0.8-1.5c0.1,0.1,0.2,0.1,0.2,0.1s0-0.3-0.1-0.8
		c0-0.7-0.3-1.5-0.7-2.2c-1.2-2.7-4.2-6.1-11.3-5.5C7,0.5,3.8,5.2,1.8,8.5c-1.6,2.6,1.9,16.6,15.8,16.9C4.3,26.9,0.9,13.8,0.2,11.2
		c0,0-2.8,15.3,10.9,17.7C21.5,30.7,38,25,52,23.7l-4.8,2.7c-0.8,0.4-1.7,0.5-2.6,0.3c-1.2-0.3-3.1-0.8-4.5-0.3
		c-2,0.8-1.8,1.7-0.9,3c0.9,1.3-1.9,1.1-1.9,1.1l-3.5,0c-0.7,0-1.4,0.2-1.9,0.7c-0.6,0.5-0.7,1.1-0.4,1.7c0.2,0.4,0.5,0.7,1,0.9
		c1.4,0.6,1,0.9,1,0.9c-1.5,2.1-5.2,1-6.2,0.6c-0.4-0.2-0.9-0.2-1.2-0.1c-0.3,0-0.5,0.2-0.7,0.4c-0.4,0.3-0.7,1-0.2,1.9
		c0.5,1,0.1,1.4-0.3,1.6c-0.4,0.2-0.8,0.2-1.3,0.1c-1.8-0.4-3.5-0.5-4.3-0.5c-0.6,0-1.2,0.1-1.7,0.4c-0.7,0.4-1.4,1.2-1,2.7
		c0.6,2.8,3.9,2.9,5.1,3.3c1.3,0.4-0.4,1.1-0.4,1.1s-1.3,0.6-2.4,1.6c-1,1-0.3,2.5,0.3,2.9s1.4,1.9-0.8,3.2
		c-1.2,0.7-1.6,1.4-1.7,1.8c-0.1,0.4,0,0.8,0.2,1c1.4,1.8,5.3-1.4,6.5-2c1.3-0.7,1.1,0.6,1.1,0.6l-0.3,2.2c-0.2,1.1,0.6,1.6,1.6,1.3
		c0.7-0.2,1.7-1.2,2.3-2.5c2-4,1.7-5.9,2.3-7.7c0.2-0.7,0.8-0.7,1-0.2c0.2,0.4,0.3,0.9,0.2,1.4l-0.4,2.1c-0.3,2.9,2.2,3.4,2.2,3.4
		s2.8,0.7,3.8-2.5c1-2.9-0.3-5.5-0.3-5.5s-1.8-3.5-0.9-5.1c0.9-1.6,1.1,0.2,1.1,0.2s0,1.1-0.1,2.5c-0.1,1.2,1.2,3.2,3,2.4
		c2-0.9,2.6-2.1,1.7-6.1c-0.9-4.1-0.3-5.7-0.3-5.7s0.5-2.4,1-1.1c0.4,1.1,0.7,3.8,0.7,4.8c0,0.3,0.1,0.6,0.3,0.9
		c0.5,0.8,1.2,0.6,1.8,0.2c0.8-0.6,1.3-1.5,1.4-2.5c0.1-0.8,0-2-0.5-3.3c-1.2-2.8-0.5-4.2-0.5-4.2c0,0.1,0,0.2,0.1,0.2
		c0.2,0.7,1,1,1.6,0.8c1.2-0.4,1.2-1.8,1.3-2.5c0.2-1.6,0.8-2,1.4-2.4c2-1.4,4-2.3,5.6-2.8c3.2-0.1,6.2,0.1,8.9,0.7
		c10.5,2.5,18.3,6,22.1,8.9c-1.2-0.8-4.6-2.7-8.2-4c-1-0.4-2.1-0.6-3.2-0.7c-9.4-1.1-18.2,2-19.8,8.3c-0.4,1.4,0,2.9,0.9,4
		c0.3,0.4,0.8,0.7,1.2,0.8c0,0-1.5,5.1,1.3,7.8c2.8,2.8,6,0.6,6,0.6s2.1,3.6,4.8,1.9c2.7-1.7,2.7-3.5,0.6-4c0,0-5.6-7.1,6.3-10
		c0,0,4.3-1.3,10.4-0.3c3.1,0.5,5.7,2.4,7.3,5.2c5.8,10.2,0.6,16.9,0.6,16.9s-3.6,5.7-9,3.4c-1.5-0.6-3.2-1.8-3.1-3.4
		c0-1,1.4-2.7,2.8-2c0,0-0.1,1.2,0.9,2c1.5,1.1,4.2,0,4.2-3c0.5-4.8-4-6.1-6.4-5.5c-2.4,0.5-6.3,3.3-5.9,7.9
		c0.5,5.3,3.8,8.3,8.3,9.2c5.5,1.1,10.8-4.2,12.4-7.2c1.7-3.1,3.8-9.7-0.7-17.6C92.1,33.3,83.2,26.9,77.1,24z M44.2,33.5
		c0.7,2.3,0.8,3.6,0.7,4.2c0,0.1-0.1,0.1-0.2,0c0-0.6-0.2-2.1-0.9-3.7c-1.2-2.5,0.3-5,0.3-5s-4.8,2.5-5.5,4.3
		c-0.7,1.9-0.6,2.9-0.1,4.8c0.5,1.6,1.2,3.7,1.1,4.6c0,0.1-0.1,0.1-0.1,0c-0.2-0.6-0.8-2.2-1.4-3.9c-0.8-2.3-0.7-4.3-0.7-4.3
		s-3.6,3.8-4.1,6c-0.4,1.8-0.1,3.6,0,4.3c0,0.2,0.1,0.3,0.1,0.5c0.2,0.7,1,3.1,1.3,4.4c0,0.1-0.1,0.1-0.1,0.1
		c-0.7-1.3-2.8-5.3-2.2-8.7c-0.4,0.2-3.8,3.8-4.5,5.9c-0.7,2.1-0.8,6.1-1.1,7.4c0,0.1-0.1,0.1-0.2,0c-0.1-1.3-0.1-5.5,0.2-7
		c0-0.1-0.1-0.1-0.1-0.1c-1.5,2.5-3.9,4.4-5.9,6.1c-0.1,0.1-0.2,0-0.1-0.1c2-1.8,4.2-4.6,4.3-5.2c-0.2,0.1-2.9,1.1-4.7,0.3
		c-0.1,0-0.1-0.1,0-0.1c1.3-0.1,6.1-0.6,9.5-5.8c0,0-7.6,1.8-10.8-1.6c-0.1-0.1,0-0.2,0.1-0.1c1.7,0.6,10.9,3.7,14.4-2.6
		c0,0-3.4,0.8-6-0.6c-0.1,0,0-0.2,0.1-0.1c1.6,0.5,5.4,1.2,8.3-2.2c0,0,1.8-2.1,2.3-2.4c0,0-2.7,0.5-4.2-0.3c-0.1,0-0.1-0.2,0-0.2
		c2.2,0.3,4.3-0.1,5.1-0.8c1.1-0.9,4.6-2.9,4.6-2.9s-2.3,0.6-3.6-0.9c0,0,3.4,0.8,5,0.2c0.1,0,0.1,0.1,0.1,0.1
		C44.7,28.6,43.4,30.6,44.2,33.5z"/>
</g>
</svg>
