<?xml version="1.0" encoding="utf-8"?>
<!-- Generator: Adobe Illustrator 19.2.0, SVG Export Plug-In . SVG Version: 6.00 Build 0)  -->
<svg version="1.1" id="Слой_1" xmlns="http://www.w3.org/2000/svg" xmlns:xlink="http://www.w3.org/1999/xlink" x="0px" y="0px"
	 viewBox="0 0 25.6 23" style="enable-background:new 0 0 25.6 23;" xml:space="preserve">
<style type="text/css">
	.st0{fill:#C1A263;}
</style>
<g>
	<path class="st0" d="M8.7,11.8c0-0.3,0-0.5,0.1-0.8c0-0.7,0.2-1.3,0.3-2c0.1-0.3,0.2-0.6,0.3-0.9c0.1-0.3,0.3-0.6,0.4-0.9
		c0.3-0.6,0.6-1.1,1-1.6c0.1-0.1,0.2-0.2,0.3-0.3c0.1-0.1,0.2-0.2,0.3-0.3c0.2-0.2,0.4-0.4,0.6-0.5c0.4-0.3,0.8-0.6,1.1-0.8
		c0.4-0.2,0.7-0.4,0.9-0.5c0.5-0.2,0.8-0.3,0.8-0.3s-0.3,0.2-0.7,0.5c-0.2,0.2-0.5,0.4-0.8,0.6c-0.3,0.4-0.6,0.7-0.9,1
		c-0.2,0.2-0.3,0.4-0.4,0.6c-0.1,0.1-0.2,0.2-0.2,0.3c-0.1,0.1-0.1,0.2-0.2,0.3c-0.3,0.4-0.5,0.9-0.7,1.4c-0.1,0.3-0.2,0.5-0.3,0.8
		S10.5,9,10.4,9.3c-0.1,0.6-0.2,1.2-0.3,1.8c0,0.2-0.1,0.5-0.1,0.7c4.9,0,8.8,0,14.1,0c0-0.2,0-0.5,0-0.7c0-4.5-3.3-8.2-7.5-8.7
		c0.3-0.3,0.4-0.6,0.4-1C17,0.6,16.4,0,15.6,0c-0.8,0-1.4,0.6-1.4,1.4c0,0.4,0.2,0.8,0.4,1c-4.2,0.5-7.5,4.2-7.5,8.7
		c0,0.2,0,0.5,0,0.7H8.7z"/>
	<rect x="5.6" y="12.3" class="st0" width="20" height="1.8"/>
	<path class="st0" d="M17.4,15.4c-1,0.5-4.6,1.8-4.6,1.8l-4.2-0.3c0,0,2.4-0.7,3.3-0.9c0.9-0.2,0.5-1.3,0-1.3s-5,0.2-5,0.2L4,16
		l0.8,5c0,0,0.6-1,1.2-1s5.9,0.1,6.6,0c0.7-0.1,5.1-3.1,5.6-3.5C18.8,16.1,18.4,14.9,17.4,15.4L17.4,15.4z"/>
	<path class="st0" d="M0,16.5V23l4.6-0.9l-1.1-6.2L0,16.5z"/>
</g>
</svg>
