<?xml version="1.0" encoding="utf-8"?>
<!-- Generator: Adobe Illustrator 19.2.0, SVG Export Plug-In . SVG Version: 6.00 Build 0)  -->
<svg version="1.1" id="Слой_1" xmlns="http://www.w3.org/2000/svg" xmlns:xlink="http://www.w3.org/1999/xlink" x="0px" y="0px"
	 viewBox="0 0 83 42.6" style="enable-background:new 0 0 83 42.6;" xml:space="preserve">
<style type="text/css">
	.autoIcon{fill:none;stroke:#666666;}
	.autoIcon_second,.autoIcon_third{fill:#666666;stroke:#666666;transition:.15s ease-in-out all;}
	svg:hover .autoIcon_second{stroke:#ff4f00;fill:#ff4f00;}
	svg:hover .autoIcon_third{stroke:#ff4f00;fill:#ff4f00;}
</style>
<image style="display:none;overflow:visible;" width="256" height="256" xlink:href="car-2-256.png"  transform="matrix(1 0 0 1 -60.445 -106.6757)">
</image>
<g>
	<path class="autoIcon" d="M82.7,20.3c-1.2-1.4-2.8-2.1-4.6-2.3l-19.9-2.6L49,2.2C47.4,0.8,45.3,0,43.1,0H18.9c-2.4,0-4.5,1.2-5.9,3.1
		L1.2,16.9c-1,1.4-1.4,3.1-1.1,4.8L2,29.5c0.5,2.9,3.3,3.8,6.2,4c0.2,5.1,4.5,9.2,9.6,9.2c4.5,0,8.2-3,9.3-7.1H57
		c1.1,4.1,4.8,7.1,9.3,7.1c5.3,0,9.5-4.2,9.6-9.5c2.8-0.1,5.6-0.7,6-3.3C81.9,29.8,83.7,21.5,82.7,20.3z"/>
	<g>
		<path class="autoIcon_second" d="M82.7,20.3c-1.2-1.4-2.8-2.1-4.6-2.3l-19.9-2.6L49,2.2C47.4,0.8,45.3,0,43.1,0H18.9c-2.4,0-4.5,1.2-5.9,3.1L1.2,16.9
			c-1,1.4-1.4,3.1-1.1,4.8L2,29.5c0.5,2.9,3.3,3.8,6.2,4c0.2,5.1,4.5,9.2,9.6,9.2c4.5,0,8.2-3,9.3-7.1H57c1.1,4.1,4.8,7.1,9.3,7.1
			c5.3,0,9.5-4.2,9.6-9.5c2.8-0.1,5.6-0.7,6-3.3C81.9,29.8,83.7,21.5,82.7,20.3z M17.8,39.7c-3.7,0-6.6-3-6.6-6.6
			c0-3.7,3-6.6,6.6-6.6c3.7,0,6.6,3,6.6,6.6C24.5,36.7,21.5,39.7,17.8,39.7z M66.3,39.7c-3.3,0-6-2.4-6.5-5.5c0-0.4,0-0.7-0.1-1
			c0,0,0-0.1,0-0.1c0-3.7,3-6.6,6.6-6.6c3.7,0,6.6,3,6.6,6.6C72.9,36.7,69.9,39.7,66.3,39.7z M79,28c-0.2,1.4-2,1.7-3.6,1.8
			c-1.3-3.8-4.9-6.5-9.1-6.5c-5.1,0-9.3,4-9.6,9.1H27.4c-0.3-5.1-4.5-9.1-9.6-9.1c-4.4,0-8.2,3-9.3,7.1c-1.6,0-3.3,0.1-3.6-1.5
			L3,21.3c-0.1-0.9,0.1-1.9,0.6-2.7L15.5,4.8c0.8-1.1,2-1.8,3.4-1.8h24.2c1.5,0,2.9,0.5,4,1.4L56.6,18c0.2,0.2,0.5,0.3,0.8,0.3
			l20.4,2.3c1,0.1,1.3,0.3,1.9,1.1C80.3,22.6,79,28,79,28z"/>
		<path class="autoIcon_third" d="M47.7,14.9H16.8c-0.6,0-1.1,0.7-1.1,1.5c0,0.8,0.5,1.5,1.1,1.5h30.8c0.6,0,1.1-0.7,1.1-1.5C48.7,15.5,48.2,14.9,47.7,14.9
			z"/>
	</g>
</g>
</svg>
