<?xml version="1.0" encoding="utf-8"?>
<!-- Generator: Adobe Illustrator 19.2.0, SVG Export Plug-In . SVG Version: 6.00 Build 0)  -->
<svg version="1.1" id="Слой_1" xmlns="http://www.w3.org/2000/svg" xmlns:xlink="http://www.w3.org/1999/xlink" x="0px" y="0px"
	 viewBox="0 0 37.1 30.8" style="enable-background:new 0 0 37.1 30.8;" xml:space="preserve">
<style type="text/css">
	.st0{fill:#A6A6A6;}
</style>
<g>
	<path class="st0" d="M24.8,5c-0.1-0.1-0.2-0.2-0.3-0.2l-7.2-2.3c-2.9-0.9-4.7,0.7-5.2,1.2c-0.3,0.3-0.5,0.6-0.6,0.9L8.3,12
		c-0.2,0.4-0.1,1,0.2,1.6c0.4,0.8,1.2,1.4,2,1.6c1,0.2,2-0.1,2.8-0.9c0.2-0.2,0.4-0.4,0.5-0.6l1.1-2c0.2-0.3,0.4-0.7,0.7-0.9
		c0.9-0.9,1.4-0.5,1.5-0.3c1.6,1.6,10,10,10,10c0.3,0.3,0.2,0.9-0.1,1.2c-0.4,0.4-0.9,0.4-1.2,0.1l-2.4-2.4c-0.3-0.3-0.8-0.3-1.1,0
		s-0.3,0.8,0,1.1l2.4,2.4c0.3,0.3,0.2,0.9-0.1,1.2s-0.9,0.4-1.2,0.1L21,21.9c-0.3-0.3-0.8-0.3-1.1,0s-0.3,0.8,0,1.1l2.4,2.4
		c0.3,0.3,0.2,0.9-0.1,1.2C21.8,27,21.3,27,21,26.7l-2.4-2.4c-0.3-0.3-0.8-0.3-1.1,0s-0.3,0.8,0,1.1l2.4,2.4
		c0.3,0.3,0.2,0.9-0.1,1.2c-0.4,0.4-0.9,0.4-1.2,0.1l-2.9-2.9c0.4-0.6,0.3-1.5-0.3-2.1c-0.7-0.7-1.7-0.7-2.3-0.1
		c0.6-0.6,0.5-1.7-0.1-2.3c-0.7-0.7-1.7-0.7-2.3-0.1c0.6-0.6,0.5-1.7-0.1-2.3c-0.7-0.7-1.7-0.7-2.3-0.1c0.6-0.6,0.6-1.7-0.1-2.3
		c-0.6-0.6-1.6-0.7-2.2-0.2L1.3,12c-0.3-0.3-0.8-0.3-1.1,0s-0.3,0.8,0,1.1l4.7,4.7l-1.4,1.4c-0.6,0.6-0.6,1.7,0.1,2.3
		c0.7,0.7,1.7,0.8,2.3,0.1c-0.6,0.6-0.6,1.7,0.1,2.3c0.7,0.7,1.7,0.8,2.3,0.1c-0.6,0.6-0.5,1.7,0.1,2.3c0.7,0.7,1.7,0.8,2.3,0.1
		c-0.6,0.6-0.5,1.7,0.1,2.3c0.7,0.7,1.7,0.7,2.3,0.1l1.5-1.5l2.9,2.9c0.9,0.9,2.5,0.8,3.5-0.1c0.5-0.5,0.7-1.1,0.8-1.7
		c0.6,0,1.2-0.3,1.7-0.8s0.7-1.1,0.8-1.7c0.6,0,1.2-0.3,1.7-0.8s0.7-1.1,0.8-1.7c0.6,0,1.2-0.3,1.7-0.8c1-1,1.1-2.5,0.1-3.5
		l-1.2-1.2l5-5c0.3-0.3,0.3-0.8,0-1.1L24.8,5z"/>
	<path class="st0" d="M36.5,6.8l-6.3-6.3c-0.6-0.6-1.6-0.6-2.2,0l-2.2,2.2c-0.6,0.6-0.6,1.6,0,2.2l6.3,6.3c0.6,0.6,1.6,0.6,2.2,0
		L36.5,9C37.2,8.3,37.2,7.3,36.5,6.8L36.5,6.8z M33.2,10c-0.7,0-1.3-0.6-1.3-1.3s0.6-1.3,1.3-1.3s1.3,0.6,1.3,1.3
		C34.5,9.4,33.9,10,33.2,10L33.2,10z"/>
</g>
</svg>
