<?xml version="1.0" encoding="utf-8"?>
<!-- Generator: Adobe Illustrator 19.2.0, SVG Export Plug-In . SVG Version: 6.00 Build 0)  -->
<svg version="1.1" id="Слой_1" xmlns="http://www.w3.org/2000/svg" xmlns:xlink="http://www.w3.org/1999/xlink" x="0px" y="0px"
	 viewBox="0 0 77.6 70.8" style="enable-background:new 0 0 77.6 70.8;" xml:space="preserve">
<style type="text/css">
	.st0{fill:#E0BF88;}
</style>
<path class="st0" d="M53.6,43.6H22.4c-1.4,0-2.4,1-2.4,2.4v1.6c0,1.4,1,2.4,2.4,2.4h32c1.4,0,2.4-1,2.4-2.4V46c0-1.4-1-2.4-2.4-2.4
	H53.6z"/>
<path class="st0" d="M66.3,21.2C63.5,9,52.6-0.1,39.6-0.1c-13.3,0-24.3,9.4-26.9,21.9c4.1,1.5,7,5.5,7,10.2v11
	c0.7-0.6,1.7-1.1,2.7-1.1h32c1.3,0,2.4,0.6,3.1,1.5c0-5.2-0.1-11-0.1-11.5C57.4,27,61.4,22.3,66.3,21.2L66.3,21.2z M26.9,34.1
	c-1.1,1.1-2.2,1.9-2.2,1.8c-0.1-0.1,0.7-1.1,1.8-2.2c1.1-1.1,2.2-1.9,2.2-1.8C28.8,31.9,28,33,26.9,34.1L26.9,34.1z M26.4,27.7
	c-1.1-1.1-1.9-2.2-1.8-2.2c0.1-0.1,1.1,0.7,2.2,1.8c1.1,1.1,1.9,2.2,1.8,2.2C28.6,29.6,27.5,28.8,26.4,27.7L26.4,27.7z M26.9,19.7
	c-1.1,1.1-2.2,1.9-2.2,1.8c-0.1-0.1,0.7-1.1,1.8-2.2c1.1-1.1,2.2-1.9,2.2-1.8C28.8,17.5,28,18.6,26.9,19.7L26.9,19.7z M26.4,13.3
	c-1.1-1.1-1.9-2.2-1.8-2.2c0.1-0.1,1.1,0.7,2.2,1.8s1.9,2.2,1.8,2.2C28.6,15.2,27.5,14.4,26.4,13.3L26.4,13.3z M29.9,31.4
	c-0.6,0-1-0.4-1-1s0.4-1,1-1s1,0.4,1,1S30.5,31.4,29.9,31.4L29.9,31.4z M29.9,17c-0.6,0-1-0.4-1-1c0-0.6,0.4-1,1-1s1,0.4,1,1
	C30.9,16.6,30.5,17,29.9,17L29.9,17z M32.9,34.1C31.8,33,31,31.9,31,31.8c0.1-0.1,1.1,0.7,2.2,1.8c1.1,1.1,1.9,2.2,1.8,2.2
	C35,36,34,35.2,32.9,34.1L32.9,34.1z M33.3,27.7c-1.1,1.1-2.2,1.9-2.2,1.8c-0.1-0.1,0.7-1.1,1.8-2.2s2.2-1.9,2.2-1.8
	C35.2,25.5,34.4,26.6,33.3,27.7L33.3,27.7z M32.9,19.7c-1.1-1.1-1.9-2.2-1.8-2.2c0.1-0.1,1.1,0.7,2.2,1.8c1.1,1.1,1.9,2.2,1.8,2.2
	C35,21.6,34,20.8,32.9,19.7L32.9,19.7z M33.3,13.3c-1.1,1.1-2.2,1.9-2.2,1.8C31,15,31.8,14,32.9,12.9C34,11.8,35,11,35.1,11
	C35.2,11.1,34.4,12.2,33.3,13.3L33.3,13.3z M44.5,34.1c-1.1,1.1-2.2,1.9-2.2,1.8c-0.2-0.2,0.7-1.1,1.8-2.2c1.1-1.1,2.2-1.9,2.2-1.8
	C46.4,31.9,45.6,33,44.5,34.1L44.5,34.1z M44,27.7c-1.1-1.1-1.9-2.2-1.8-2.2c0.1-0.1,1.1,0.7,2.2,1.8c1.1,1.1,1.9,2.2,1.8,2.2
	C46.2,29.6,45.1,28.8,44,27.7L44,27.7z M44.5,19.7c-1.1,1.1-2.2,1.9-2.2,1.8c-0.2-0.2,0.7-1.1,1.8-2.2s2.2-1.9,2.2-1.8
	C46.4,17.5,45.6,18.6,44.5,19.7L44.5,19.7z M44,13.3c-1.1-1.1-1.9-2.2-1.8-2.2c0.1-0.1,1.1,0.7,2.2,1.8c1.1,1.1,1.9,2.2,1.8,2.2
	C46.2,15.2,45.1,14.4,44,13.3L44,13.3z M47.5,31.4c-0.6,0-1-0.4-1-1s0.4-1,1-1s1,0.4,1,1S48.1,31.4,47.5,31.4L47.5,31.4z M47.5,17
	c-0.6,0-1-0.4-1-1c0-0.6,0.4-1,1-1s1,0.4,1,1C48.5,16.6,48.1,17,47.5,17L47.5,17z M50.5,34.1c-1.1-1.1-1.9-2.2-1.8-2.2
	c0.1-0.1,1.1,0.7,2.2,1.8c1.1,1.1,1.9,2.2,1.8,2.2C52.6,36,51.6,35.2,50.5,34.1L50.5,34.1z M50.9,27.7c-1.1,1.1-2.2,1.9-2.2,1.8
	c-0.1-0.1,0.7-1.1,1.8-2.2s2.2-1.9,2.2-1.8C52.8,25.5,52,26.6,50.9,27.7L50.9,27.7z M50.5,19.7c-1.1-1.1-1.9-2.2-1.8-2.2
	c0.1-0.1,1.1,0.7,2.2,1.8c1.1,1.1,1.9,2.2,1.8,2.2C52.6,21.6,51.6,20.8,50.5,19.7L50.5,19.7z M50.9,13.3c-1.1,1.1-2.2,1.9-2.2,1.8
	c-0.1-0.1,0.7-1.1,1.8-2.2s2.2-1.9,2.2-1.8C52.8,11.1,52,12.2,50.9,13.3L50.9,13.3z"/>
<path class="st0" d="M68.6,22.6c-0.6,0-1.4,0.1-2,0.2c-4.2,1-7.5,4.9-7.5,9.3c0,1,0.2,19.5,0.2,19.5H18.1c0,0-0.1-19.2-0.1-19.6
	c0-3.8-2.2-7.3-5.5-8.7c-1-0.5-2.2-0.7-3.4-0.7c-5,0-9,4.1-9,9s3.5,9.1,8.6,9.1H9v30.1h8V66h41.6v4.8h8V40.7H68c5,0,9.7-4.1,9.7-9.1
	C77.4,26.6,73.6,22.6,68.6,22.6L68.6,22.6z M9.4,32.8c-0.7,0-1.4-0.6-1.4-1.4C8,30.7,8.6,30,9.4,30c0.7,0,1.4,0.6,1.4,1.4
	C10.8,32.2,10.2,32.8,9.4,32.8L9.4,32.8z M68.6,32.8c-0.7,0-1.4-0.6-1.4-1.4c0-0.7,0.6-1.4,1.4-1.4c0.7,0,1.4,0.6,1.4,1.4
	C70,32.2,69.4,32.8,68.6,32.8L68.6,32.8z"/>
</svg>
