<?xml version="1.0" encoding="utf-8"?>
<!-- Generator: Adobe Illustrator 19.2.0, SVG Export Plug-In . SVG Version: 6.00 Build 0)  -->
<svg version="1.1" id="Слой_1" xmlns="http://www.w3.org/2000/svg" xmlns:xlink="http://www.w3.org/1999/xlink" x="0px" y="0px"
	 viewBox="0 0 169 237.4" style="enable-background:new 0 0 169 237.4;" xml:space="preserve">
<style type="text/css">
	.st0{fill:#A6A6A6;}
</style>
<path class="st0" d="M160.2,27.4H141V8.2c0-2.5-1.2-4.9-3.1-6.5c-2-1.6-4.6-2.2-7.1-1.6L6.7,27.6l0,0H6.6l0,0
	C2.8,28.5,0,31.8,0,35.8V229c0,4.6,3.7,8.4,8.4,8.4h151.8c4.6,0,8.4-3.7,8.4-8.4V35.8C168.6,31.2,164.8,27.4,160.2,27.4L160.2,27.4z
	 M124.2,27.4H84.6l39.7-8.8v8.8H124.2z M151.8,220.7H16.7V44.1h135.1V220.7z"/>
<path class="st0" d="M75.9,134.6v28.9h-6.5c-4.6,0-8.4,3.7-8.4,8.4s3.7,8.4,8.4,8.4h29.7c4.6,0,8.4-3.7,8.4-8.4s-3.8-8.4-8.4-8.4
	h-6.5v-28.9l31.1-29.9c2.5-2.4,3.2-6,2-9.2c-1.3-3.2-4.3-5.2-7.8-5.2H50.6c-3.4,0-6.5,2.1-7.8,5.2c-1.3,3.2-0.5,6.8,2,9.2
	L75.9,134.6z M97.2,107l-12.9,12.4L71.4,107H97.2z"/>
</svg>
