<?xml version="1.0" encoding="utf-8"?>
<!-- Generator: Adobe Illustrator 19.2.0, SVG Export Plug-In . SVG Version: 6.00 Build 0)  -->
<svg version="1.1" id="Слой_1" xmlns="http://www.w3.org/2000/svg" xmlns:xlink="http://www.w3.org/1999/xlink" x="0px" y="0px"
	 viewBox="0 0 305.7 232.2" style="enable-background:new 0 0 305.7 232.2;" xml:space="preserve">
<style type="text/css">
	.st0{fill:#A6A6A6;}
</style>
<g>
	<path class="st0" d="M269.4,0H36.3C16.3,0,0,15.6,0,34.8v162.5c0,19.2,16.3,34.8,36.3,34.8h233.1c20,0,36.3-15.6,36.3-34.8V34.8
		C305.7,15.6,289.4,0,269.4,0L269.4,0z M269.4,201.4H36.3c-2.9,0-5.5-1.9-5.5-4.1v-141l105.4,89c2.2,1.8,4.9,2.8,7.7,2.8h17.8
		c2.8,0,5.6-1,7.7-2.8l105.4-89v141C274.9,199.5,272.4,201.4,269.4,201.4L269.4,201.4z M152.8,117.6L50.3,30.8h205.1L152.8,117.6z"
		/>
</g>
</svg>
