<?xml version="1.0" encoding="utf-8"?>
<!-- Generator: Adobe Illustrator 19.2.0, SVG Export Plug-In . SVG Version: 6.00 Build 0)  -->
<svg version="1.1" id="Слой_1" xmlns="http://www.w3.org/2000/svg" xmlns:xlink="http://www.w3.org/1999/xlink" x="0px" y="0px"
	 viewBox="0 0 37.6 37.6" style="enable-background:new 0 0 37.6 37.6;" xml:space="preserve">
<style type="text/css">
	.st0{fill:#A6A6A6;}
</style>
<g>
	<path class="st0" d="M35.9,0H11.5c-0.9,0-1.7,0.8-1.7,1.7v15.4H1.7c-0.9,0-1.7,0.8-1.7,1.7v17.1c0,0.9,0.8,1.7,1.7,1.7h34.2
		c0.9,0,1.7-0.8,1.7-1.7V1.7C37.6,0.8,36.8,0,35.9,0L35.9,0z M13.2,3.4h20.9v12.5l-6.4-3.6c-0.5-0.3-1.1-0.3-1.7,0l-8.6,4.8h-4.3
		V3.4H13.2z M3.4,20.5h12.8v13.7H3.4V20.5z M34.2,34.2H19.7V19.8l7.3-4l7.3,4L34.2,34.2L34.2,34.2z"/>
	<path class="st0" d="M8.1,22.6H5.6c-0.2,0-0.4,0.2-0.4,0.4v2.6c0,0.2,0.2,0.4,0.4,0.4h2.6c0.2,0,0.4-0.2,0.4-0.4V23
		C8.5,22.8,8.4,22.6,8.1,22.6L8.1,22.6z"/>
	<path class="st0" d="M14.1,22.6h-2.6c-0.2,0-0.4,0.2-0.4,0.4v2.6c0,0.2,0.2,0.4,0.4,0.4h2.6c0.2,0,0.4-0.2,0.4-0.4V23
		C14.5,22.8,14.3,22.6,14.1,22.6L14.1,22.6z"/>
	<path class="st0" d="M8.1,28.6H5.6c-0.2,0-0.4,0.2-0.4,0.4v2.6c0,0.2,0.2,0.4,0.4,0.4h2.6c0.2,0,0.4-0.2,0.4-0.4V29
		C8.5,28.8,8.4,28.6,8.1,28.6L8.1,28.6z"/>
	<path class="st0" d="M14.1,28.6h-2.6c-0.2,0-0.4,0.2-0.4,0.4v2.6c0,0.2,0.2,0.4,0.4,0.4h2.6c0.2,0,0.4-0.2,0.4-0.4V29
		C14.5,28.8,14.3,28.6,14.1,28.6L14.1,28.6z"/>
	<path class="st0" d="M25.2,22.6h-2.6c-0.2,0-0.4,0.2-0.4,0.4v2.6c0,0.2,0.2,0.4,0.4,0.4h2.6c0.2,0,0.4-0.2,0.4-0.4V23
		C25.6,22.8,25.4,22.6,25.2,22.6L25.2,22.6z"/>
	<path class="st0" d="M28.6,26.1h2.6c0.2,0,0.4-0.2,0.4-0.4v-2.6c0-0.2-0.2-0.4-0.4-0.4h-2.6c-0.2,0-0.4,0.2-0.4,0.4v2.6
		C28.2,25.9,28.4,26.1,28.6,26.1L28.6,26.1z"/>
	<path class="st0" d="M25.2,28.6h-2.6c-0.2,0-0.4,0.2-0.4,0.4v2.6c0,0.2,0.2,0.4,0.4,0.4h2.6c0.2,0,0.4-0.2,0.4-0.4V29
		C25.6,28.8,25.4,28.6,25.2,28.6L25.2,28.6z"/>
	<path class="st0" d="M28.6,32h2.6c0.2,0,0.4-0.2,0.4-0.4V29c0-0.2-0.2-0.4-0.4-0.4h-2.6c-0.2,0-0.4,0.2-0.4,0.4v2.6
		C28.2,31.9,28.4,32,28.6,32L28.6,32z"/>
	<path class="st0" d="M16.7,9.6h2.6c0.2,0,0.4-0.2,0.4-0.4V6.6c0-0.2-0.2-0.4-0.4-0.4h-2.6c-0.2,0-0.4,0.2-0.4,0.4v2.6
		C16.2,9.4,16.4,9.6,16.7,9.6L16.7,9.6z"/>
	<path class="st0" d="M22.6,9.6h2.6c0.2,0,0.4-0.2,0.4-0.4V6.6c0-0.2-0.2-0.4-0.4-0.4h-2.6c-0.2,0-0.4,0.2-0.4,0.4v2.6
		C22.2,9.4,22.4,9.6,22.6,9.6L22.6,9.6z"/>
	<path class="st0" d="M19.2,15.5c0.2,0,0.4-0.2,0.4-0.4v-2.6c0-0.2-0.2-0.4-0.4-0.4h-2.6c-0.2,0-0.4,0.2-0.4,0.4v2.6
		c0,0.2,0.2,0.4,0.4,0.4H19.2z"/>
	<path class="st0" d="M28.6,9.6h2.6c0.2,0,0.4-0.2,0.4-0.4V6.6c0-0.2-0.2-0.4-0.4-0.4h-2.6c-0.2,0-0.4,0.2-0.4,0.4v2.6
		C28.2,9.4,28.4,9.6,28.6,9.6L28.6,9.6z"/>
</g>
</svg>
