<?xml version="1.0" encoding="utf-8"?>
<!-- Generator: Adobe Illustrator 19.2.0, SVG Export Plug-In . SVG Version: 6.00 Build 0)  -->
<svg version="1.1" id="Слой_1" xmlns="http://www.w3.org/2000/svg" xmlns:xlink="http://www.w3.org/1999/xlink" x="0px" y="0px"
	 viewBox="0 0 250.4 245.6" style="enable-background:new 0 0 250.4 245.6;" xml:space="preserve">
<style type="text/css">
	.st0{fill:#A6A6A6;}
</style>
<g>
	<path class="st0" d="M226.4,0H24C10.8,0,0,10.8,0,24v197.6c0,13.2,10.8,24,24,24h202.4c13.2,0,24-10.8,24-24V24
		C250.4,10.8,239.6,0,226.4,0L226.4,0z M226.4,24v105l-40.5-38.1c-2.8-2.7-6.5-4.1-10.2-4.1c-4.6,0-8.8,2.1-11.7,5.9l-47.7,61.8
		c-1.5,2-4,3.2-6.6,3.2c-1.8,0-3.5-0.5-4.9-1.6l-31-22.7c-3.1-2.3-7.1-3.5-11.3-3.5c-4.8,0-9.2,1.6-12.5,4.4l-26,21.9V24H226.4z"/>
	<path class="st0" d="M92,95.2c13.7,0,24.8-11.1,24.8-24.8S105.7,45.6,92,45.6S67.2,56.7,67.2,70.4S78.3,95.2,92,95.2L92,95.2z"/>
</g>
</svg>
