<?xml version="1.0" encoding="utf-8"?>
<!-- Generator: Adobe Illustrator 19.2.0, SVG Export Plug-In . SVG Version: 6.00 Build 0)  -->
<svg version="1.1" id="Слой_1" xmlns="http://www.w3.org/2000/svg" xmlns:xlink="http://www.w3.org/1999/xlink" x="0px" y="0px"
	 viewBox="0 0 378.8 342.7" style="enable-background:new 0 0 378.8 342.7;" xml:space="preserve">
<style type="text/css">
	.st0{fill:#BDA065;}
</style>
<g>
	<path class="st0" d="M60.2,177.7v-46.9c0-8.4-6.8-15.3-15.3-15.3H15.2c-8.3,0-15,6.6-15.2,14.8c0.9,8.3,10.5,92.4,12,122.1
		c0.4,8.9,7,15.7,15.3,15.7h8.8c-2.5-4.5-3.9-9.7-3.9-15.3v-43.2C32.2,193.3,44.4,179.8,60.2,177.7L60.2,177.7z M60.2,177.7"/>
	<path class="st0" d="M329.7,252.8v-43.2c0-8.4-6.8-15.3-15.3-15.3h-250c-8.4,0-15.3,6.8-15.3,15.3v43.2c0,8.4,6.8,15.3,15.3,15.3
		h250C322.8,268.1,329.7,261.3,329.7,252.8L329.7,252.8z M329.7,252.8"/>
	<path class="st0" d="M333.9,115.5c-8.4,0-15.3,6.8-15.3,15.3v46.9c15.8,2.1,28,15.6,28,31.9v43.2c0,5.5-1.4,10.7-3.9,15.3h8.8
		c8.3,0,14.8-6.7,15.3-15.7c1.5-29.7,11-113.8,12-122.1c-0.2-8.2-7-14.8-15.3-14.8H333.9z M333.9,115.5"/>
	<path class="st0" d="M54.7,283.5c-3.1,1-6.4,1.5-9.7,1.5h-7.6l-12.4,47c-1.2,4.5,1.5,9.2,6,10.3c0.7,0.2,1.4,0.3,2.2,0.3
		c3.8,0,7.2-2.5,8.2-6.3l13.8-52.7C55,283.6,54.8,283.6,54.7,283.5L54.7,283.5z M54.7,283.5"/>
	<path class="st0" d="M341.6,285.1h-7.6c-3.3,0-6.6-0.5-9.7-1.5c-0.2,0.1-0.3,0.1-0.5,0.2l13.8,52.7c1,3.8,4.4,6.3,8.2,6.3
		c0.7,0,1.4-0.1,2.2-0.3c4.5-1.2,7.2-5.8,6-10.3L341.6,285.1z M341.6,285.1"/>
	<path class="st0" d="M330.6,5.7c-3.5-3.6-8.4-5.7-13.5-5.7H61.8c-5.1,0-10,2.1-13.5,5.7c-3.2,3.4-4.9,7.7-4.8,12.2
		c0.5,13.4,2.9,46.8,5.6,80.9c15.8,2.1,28,15.6,28,31.9v46.6h224.6v-46.6c0-16.1,11.9-29.6,27.5-31.9c2.8-34.2,5.6-67.5,6.1-81
		C335.5,13.4,333.8,9.1,330.6,5.7L330.6,5.7z M152.6,128.1h-5.1c-4.7,0-8.5-3.8-8.5-8.5c0-4.7,3.8-8.5,8.5-8.5h5.1
		c4.7,0,8.5,3.8,8.5,8.5C161,124.3,157.2,128.1,152.6,128.1L152.6,128.1z M152.6,65.4h-5.1c-4.7,0-8.5-3.8-8.5-8.5
		c0-4.7,3.8-8.5,8.5-8.5h5.1c4.7,0,8.5,3.8,8.5,8.5C161,61.6,157.2,65.4,152.6,65.4L152.6,65.4z M231.4,128.1h-5.1
		c-4.7,0-8.5-3.8-8.5-8.5c0-4.7,3.8-8.5,8.5-8.5h5.1c4.7,0,8.5,3.8,8.5,8.5C239.8,124.3,236,128.1,231.4,128.1L231.4,128.1z
		 M231.4,65.4h-5.1c-4.7,0-8.5-3.8-8.5-8.5c0-4.7,3.8-8.5,8.5-8.5h5.1c4.7,0,8.5,3.8,8.5,8.5C239.8,61.6,236,65.4,231.4,65.4
		L231.4,65.4z M231.4,65.4"/>
</g>
</svg>
