<?xml version="1.0" encoding="utf-8"?>
<!-- Generator: Adobe Illustrator 19.2.0, SVG Export Plug-In . SVG Version: 6.00 Build 0)  -->
<svg version="1.1" id="Слой_1" xmlns="http://www.w3.org/2000/svg" xmlns:xlink="http://www.w3.org/1999/xlink" x="0px" y="0px"
	 viewBox="0 0 86.4 61.3" style="enable-background:new 0 0 86.4 61.3;" xml:space="preserve">
<style type="text/css">
	.st0{fill:#C1A263;}
</style>
<path class="st0" d="M86.2,23.9c0-0.3,0-0.6-0.4-0.7s-0.6,0.3-0.8,0.5c-1.5,2-3.4,2.3-5.7,1.5c-2.4-0.8-4.5-2-6.8-3.1
	c-5.5-2.6-11.2-3.8-17.2-2.6c0.6-1.2,3.2-3.6,3.8-3.7c2.1-0.3,1.5-3,0-3.6c-2-0.8-4-1.1-6.1-1.1c-0.6,0-1.1,0.2-1.7,0.3
	c-1.8,0.5-1.1,1.1-1.1-0.7c-0.1-4.2-2.6-7.9-5.9-10.3C44,0.1,43.6,0,43.2,0c-0.3,0-0.7,0.1-1.1,0.4c-2.9,2.2-5.7,5.7-5.9,9.5
	c0,0.9-0.1,1.6-0.1,1.6s-1.3-0.1-2.2-0.3c-2.2-0.3-4.6,0.2-6.6,1c-1.5,0.6-2.1,3.3,0,3.6c0.7,0.1,3.3,2.5,3.8,3.7
	c-2.4-0.4-4.9-0.6-7.4-0.3c-3.9,0.4-7.6,1.8-11,3.6c-1.8,0.9-3.6,1.8-5.5,2.5C5,26,3.1,25.6,1.5,23.7c-0.2-0.3-0.4-0.6-0.8-0.5
	s-0.4,0.5-0.4,0.9c-0.4,3.5-0.3,6.9,0,10.4c0.5,5.5,2,10.8,4.8,15.7c6.6,11.1,21.8,14.4,31.4,7.7c4.3-3,8.9-2.9,13.3,0
	c3,1.9,6.1,3.1,9.7,3.3c8,0.5,14.8-2.1,19.8-8.5C86.1,44.1,86.9,34.1,86.2,23.9L86.2,23.9z M33.8,46c-1,0-2,0-2.5,0
	c-3.2-0.1-6,0.3-8.7,0.1c-4.9-0.5-8.3-2.9-10.8-7c-0.5-0.8-0.5-1.6,0.4-2c4.5-2.4,9.1-3.9,14.2-2.6c4.1,1.1,6.5,4.1,7.9,7.9
	c0.3,0.7,0.5,1.4,0.7,2.1C35.4,45.5,35.1,45.9,33.8,46L33.8,46z M74.6,39.2c-2.5,4.2-6.1,6.5-11,6.9c-3.7,0.3-7.4-0.3-11.1-0.1
	c-0.7,0-1.3-0.3-1.1-1.2c0.9-3.4,2.3-6.4,5.2-8.6c2.1-1.6,4.5-2.3,6.8-2.2c4.1,0,7.5,1.2,10.7,2.8C75.2,37.4,75.3,38,74.6,39.2
	L74.6,39.2z"/>
</svg>
