<?xml version="1.0" encoding="utf-8"?>
<!-- Generator: Adobe Illustrator 19.2.0, SVG Export Plug-In . SVG Version: 6.00 Build 0)  -->
<svg version="1.1" id="Слой_1" xmlns="http://www.w3.org/2000/svg" xmlns:xlink="http://www.w3.org/1999/xlink" x="0px" y="0px"
	 viewBox="0 0 25.6 25.6" style="enable-background:new 0 0 25.6 25.6;" xml:space="preserve">
<style type="text/css">
	.st0{fill:#C1A263;}
</style>
<g>
	<path class="st0" d="M12.8,2C6.8,2,2,6.8,2,12.8c0,4.3,2.5,8,6.2,9.7L8.5,16c0,0-0.6-0.2-0.8-0.3c-1.3-0.6-2.3-2.3-2.3-4.6
		c0-2.5,1.9-4.6,3.8-4.6l0,0c1.9,0,3.8,2.2,3.8,4.6c0,2.3-1,4-2.3,4.6L9.9,16l0.4,7.3c0.8,0.2,1.7,0.3,2.6,0.3
		c1.2,0,2.4-0.2,3.4-0.6l0.3-6.5c-0.9-0.2-1.6-0.8-2.1-1.5c-0.6-0.9,0.4-8.6,0.4-8.6h0.7v7.3h0.7V6.5H17v7.3h0.7V6.5h0.8v7.3h0.7
		V6.5h0.5c0,0,1,7.7,0.4,8.6c-0.5,0.7-1.2,1.3-2.1,1.5l0,0l0.3,5.6c3.2-1.9,5.4-5.3,5.4-9.3C23.6,6.8,18.8,2,12.8,2L12.8,2z"/>
	<path class="st0" d="M7,10c0-0.2,0.1-0.3,0.1-0.3c0-0.1,0-0.1-0.1-0.2c-0.1,0-0.1,0-0.2,0c0,0-0.1,0.1-0.2,0.3
		c-0.1,0.1-0.2,0.4-0.3,0.7c-0.1,0.3-0.2,0.6-0.2,1c0,0.2,0,0.4,0,0.6c0,0.2,0.1,0.4,0.1,0.6c0.2,0.6,0.4,1.2,1,1.8
		c0.2,0.2,0.4,0.3,0.5,0.4l0,0c0,0,0.1,0,0.1,0.1C7.9,15.1,8,15.1,8,15.1c0.1,0,0.1,0,0.1-0.1s0-0.1,0-0.2c0,0-0.1-0.1-0.2-0.2
		c-0.1-0.1-0.1-0.2-0.2-0.3s-0.1-0.2-0.2-0.2c-0.3-0.4-0.5-1-0.7-1.7c0-0.1-0.1-0.3-0.1-0.5s0-0.3,0-0.5c0-0.4,0-0.7,0-0.9
		C6.9,10.4,6.9,10.2,7,10L7,10z"/>
	<path class="st0" d="M12.8,0C5.7,0,0,5.7,0,12.8s5.7,12.8,12.8,12.8s12.8-5.7,12.8-12.8S19.9,0,12.8,0L12.8,0z M12.8,24.6
		C6.3,24.6,1,19.3,1,12.8S6.3,1,12.8,1s11.8,5.3,11.8,11.8S19.3,24.6,12.8,24.6L12.8,24.6z"/>
</g>
</svg>
