<?xml version="1.0" encoding="utf-8"?>
<!-- Generator: Adobe Illustrator 19.2.0, SVG Export Plug-In . SVG Version: 6.00 Build 0)  -->
<svg version="1.1" id="Слой_1" xmlns="http://www.w3.org/2000/svg" xmlns:xlink="http://www.w3.org/1999/xlink" x="0px" y="0px"
	 viewBox="0 0 392 392" style="enable-background:new 0 0 392 392;" xml:space="preserve">
<style type="text/css">
	.st0{fill:#C1A263;}
</style>
<g>
	<path class="st0" d="M375.7,0H16.3C7.3,0,0,7.3,0,16.3V292c0,9,7.3,16.3,16.3,16.3h163.4v51h-47.8c-9,0-16.3,7.3-16.3,16.3
		s7.3,16.3,16.3,16.3h128.2c9,0,16.3-7.3,16.3-16.3s-7.3-16.3-16.3-16.3h-47.8v-51h163.4c9,0,16.3-7.3,16.3-16.3V16.3
		C392,7.3,384.7,0,375.7,0L375.7,0z M359.4,275.7H32.6v-243h326.6L359.4,275.7L359.4,275.7z"/>
	<path class="st0" d="M125.8,210.7c-6.7,0-12.4-2.2-17.1-6.4s-8-11.2-9.9-20.8l-17,2.2c1.1,11.5,5.7,20.9,13.8,28.1
		c8,7.2,18.1,10.9,30.2,10.9c13.4,0,24.6-4.2,33.4-12.6c8.8-8.4,13.2-18.6,13.2-30.7c0-9-2.2-16.4-6.8-22.3
		c-4.6-5.9-10.9-9.8-19-11.8c6.3-2.9,11-6.8,14.2-11.7s4.8-10.3,4.8-16.3c0-6.3-1.7-12.2-5-17.8c-3.4-5.6-8.2-10-14.6-13.3
		c-6.3-3.2-13.3-4.9-20.9-4.9c-11,0-20.1,3.1-27.4,9.4c-7.4,6.2-12.1,15-14.2,26.5l17,3c1.3-8.3,4.1-14.6,8.5-18.6
		c4.4-4.2,9.9-6.2,16.5-6.2c6.6,0,12.1,2.1,16.3,6.2s6.3,9.3,6.3,15.4c0,7.8-2.9,13.7-8.6,17.4c-5.8,3.8-12.3,5.7-19.5,5.7
		c-0.7,0-1.6-0.1-2.7-0.2l-1.9,14.9c4.8-1.3,8.8-1.9,12-1.9c7.8,0,14.3,2.6,19.4,7.6s7.6,11.5,7.6,19.3c0,8.2-2.7,15-8.2,20.6
		C140.5,208,133.8,210.7,125.8,210.7L125.8,210.7z"/>
	<path class="st0" d="M268.1,220c6.5-1.6,11.9-3.9,16.5-7c4.6-3,8.7-7.2,12.6-12.6c3.8-5.3,7-12,9.4-20.2c2.5-8.1,3.7-17.4,3.7-27.9
		c0-12.3-1.8-23.3-5.4-32.9s-9-17.4-16.4-23.6c-5.6-4.8-12.3-8.1-20.2-9.9c-5.7-1.4-13.8-2-24.6-2h-47.6v138.2H246
		C254.2,222.3,261.6,221.5,268.1,220L268.1,220z M214.2,206V100.4h29c10.9,0,18.8,1,23.7,2.8c6.8,2.6,12.6,7.8,17.3,15.6
		c4.7,7.8,7.1,18.9,7.1,33.4c0,10.4-1.2,19.3-3.6,26.6c-2.4,7.4-5.8,13.1-10.2,17.5c-3.1,3.1-7.2,5.4-12.4,7.2
		c-5.2,1.7-12.3,2.6-21.4,2.6L214.2,206L214.2,206z"/>
</g>
</svg>
