<?xml version="1.0" encoding="utf-8"?>
<!-- Generator: Adobe Illustrator 19.2.0, SVG Export Plug-In . SVG Version: 6.00 Build 0)  -->
<svg version="1.1" id="Слой_1" xmlns="http://www.w3.org/2000/svg" xmlns:xlink="http://www.w3.org/1999/xlink" x="0px" y="0px"
	 viewBox="0 0 70.5 65.6" style="enable-background:new 0 0 70.5 65.6;" xml:space="preserve">
<g>
	<path d="M64.8,5.7C61.3,2.2,56.3,0,51,0c-3.1,0-6,0.7-8.9,2.1c-2.8,1.4-5.1,3.4-6.9,5.9c-1.8-2.5-4.1-4.4-6.9-5.9
		C25.5,0.7,22.6,0,19.5,0C14.2,0,9.2,2.2,5.7,5.7C2.2,9.1,0,14.1,0,19.4c0,3.6,0.8,7.2,1.7,9.8c0.5,1.3,1.2,2.7,2.1,4.2
		c1,1.5,1.8,2.7,2.6,3.7c0.8,1,1.8,2.2,3.3,3.6c1.4,1.4,2.6,2.5,3.5,3.3c0.9,0.8,2.2,2,3.9,3.4c2,1.7,3.4,3,4.3,3.8
		c0.9,0.8,2.2,2,3.9,3.6c3.4,3.3,5.9,6.3,8.3,9.7c0.4,0.6,1,0.9,1.7,0.9c0.7,0,1.3-0.3,1.8-0.9c1.5-2.3,3.3-4.6,5.3-6.9
		c2.1-2.3,3.8-4.1,5.2-5.4c1.4-1.3,3.4-3.1,6-5.4c1.6-1.4,2.9-2.5,3.8-3.3c0.9-0.8,2-1.9,3.4-3.3c1.4-1.4,2.5-2.6,3.3-3.6
		c0.8-1,1.6-2.2,2.6-3.7c1.9-3,2.8-5.3,3.5-8.6c0.4-1.6,0.5-3.3,0.5-5.1C70.5,14.1,68.3,9.1,64.8,5.7L64.8,5.7z M66,23.3
		c-0.7,4.2-2.9,8.2-6.5,12.3c-1.6,1.8-4.5,4.5-8.7,8.3c-2.2,2-4,3.6-5.4,4.8c-1.4,1.2-3,2.9-5,5c-2,2.1-3.7,4.2-5.1,6.2
		c-1.5-2-3.3-4-5.3-6.1c-2-2.1-3.6-3.7-4.8-4.7c-1.2-1.1-2.9-2.6-5.4-4.8L17.2,42l-2.4-2.1c-1-0.9-1.8-1.7-2.3-2.3
		c-0.5-0.6-1.2-1.3-2-2.2c-0.8-0.9-1.5-1.7-1.9-2.3c-0.9-1.3-2.3-3.3-2.9-4.9L5,25.6c-0.6-1.9-0.8-3.9-0.8-6.1
		c0-4.2,1.5-7.8,4.5-10.8c3-3,6.6-4.5,10.9-4.5c3,0,5.7,0.8,8.2,2.4c2.5,1.6,4.4,3.7,5.7,6.4c0.4,0.8,1,1.2,1.8,1.2
		c0.9,0,1.5-0.4,1.9-1.2c1.3-2.6,3.1-4.8,5.6-6.4C45.3,4.9,48,4.2,51,4.2c4.2,0,7.8,1.5,10.8,4.5s4.5,6.6,4.5,10.8
		C66.3,20.7,66.2,22,66,23.3L66,23.3z M66,23.3"/>
</g>
</svg>
