<?xml version="1.0" encoding="utf-8"?>
<!-- Generator: Adobe Illustrator 19.2.0, SVG Export Plug-In . SVG Version: 6.00 Build 0)  -->
<svg version="1.1" id="Слой_1" xmlns="http://www.w3.org/2000/svg" xmlns:xlink="http://www.w3.org/1999/xlink" x="0px" y="0px"
	 viewBox="0 0 353.6 281.5" style="enable-background:new 0 0 353.6 281.5;" xml:space="preserve">
<g>
	<path d="M334.9,39.3H232.2V8c0-4.4-3.6-8-8-8h-94.9c-4.4,0-8,3.6-8,8v31.3H18.7C8.4,39.3,0,47.7,0,58v204.8
		c0,10.3,8.4,18.7,18.7,18.7h316.2c10.3,0,18.7-8.4,18.7-18.7V58C353.6,47.7,345.2,39.3,334.9,39.3L334.9,39.3z M137.4,16h78.9v23.3
		h-78.9V16z M16,58c0-1.5,1.2-2.7,2.7-2.7h316.2c1.5,0,2.7,1.2,2.7,2.7v59.5c0,14.2-11.6,25.8-25.8,25.8H202.2v-26.6
		c0-4.4-3.6-8-8-8h-34.9c-4.4,0-8,3.6-8,8v26.6H41.8c-14.2,0-25.8-11.6-25.8-25.8V58z M167.4,159.3h18.9v9.2c0,5.2-4.2,9.4-9.4,9.4
		c-5.2,0-9.4-4.2-9.4-9.4V159.3z M167.4,143.3v-18.6h18.9v18.6H167.4z M334.9,265.5H18.7c-1.5,0-2.7-1.2-2.7-2.7V150.4
		c7.1,5.6,16.1,9,25.8,9h109.6v9.2c0,14,11.4,25.4,25.4,25.4c14,0,25.4-11.4,25.4-25.4v-9.2h109.6c9.7,0,18.7-3.4,25.8-9v112.4
		C337.6,264.3,336.4,265.5,334.9,265.5L334.9,265.5z M334.9,265.5"/>
</g>
</svg>
