<?xml version="1.0" encoding="utf-8"?>
<!-- Generator: Adobe Illustrator 19.2.0, SVG Export Plug-In . SVG Version: 6.00 Build 0)  -->
<svg version="1.1" id="Слой_1" xmlns="http://www.w3.org/2000/svg" xmlns:xlink="http://www.w3.org/1999/xlink" x="0px" y="0px"
	 viewBox="0 0 83.8 47.5" style="enable-background:new 0 0 83.8 47.5;" xml:space="preserve">
<style type="text/css">
	.st0{fill:none;}
	.st1{fill:#FF4F00;}
	.st2{fill:#FFFFFF;}
	.st3{fill:#010204;}
	.st4{clip-path:url(#SVGID_2_);}
	.st5{clip-path:url(#SVGID_4_);}
	.st6{fill:#000002;}
	.st7{fill:none;stroke:#000000;stroke-width:2.9859;stroke-miterlimit:10;}
	.st8{fill:none;stroke:#FF4F00;stroke-width:3;stroke-miterlimit:10;}
	.st9{fill:none;stroke:#000000;stroke-width:3;stroke-miterlimit:10;}
</style>
<g>
	<path class="st1" d="M0,34.1c0-7.4,6-13.4,13.4-13.4c6.4,0,12,4.6,13.2,10.9l0.2,0.9h3.8l-0.2-1.3C28.9,20.5,19.7,12.4,8.9,12.4
		c-0.8,0-1.5-0.7-1.5-1.5S8,9.3,8.9,9.3c3.5,0,6.9,0.7,10.1,2.2l1.4,0.6l0.2-1.5c0.1-0.7,0.8-1.3,1.5-1.3h10.7
		c0.8,0,1.5,0.7,1.5,1.5c0,0.5-0.2,0.9-0.6,1.2l-2.5,2h20.2V6.4c0-3.5,2.9-6.4,6.4-6.4l4.6,0c0.8,0,1.5,0.7,1.5,1.5
		s-0.7,1.5-1.5,1.5h-4.6c-1.8,0-3.3,1.5-3.3,3.3v10.4l1.9-1.6c4.5-3.8,10.1-5.9,16-5.9h4.2c0.8,0,1.5,0.7,1.5,1.5s-0.7,1.5-1.5,1.5
		h-4.2c-5.1,0-10,1.8-13.9,5.1l-0.9,0.8l4.8,5.1l0.8-0.5c2.2-1.4,4.7-2.1,7.3-2.1c7.4,0,13.4,6,13.4,13.4s-6,13.4-13.4,13.4
		S57,41.5,57,34.1c0-2.8,0.9-5.6,2.6-7.9l0.6-0.8l-4.7-5l-0.8,1.1c-2.6,3.7-3.9,8-3.9,12.4c0,0.8-0.7,1.5-1.5,1.5h-6.7v3.8
		c0,0.8-0.7,1.5-1.5,1.5s-1.5-0.7-1.5-1.5v-3.8H26.8l-0.2,0.9c-1.2,6.3-6.7,10.9-13.2,10.9C6,47.5,0,41.5,0,34.1z M23.8,35.6H13.4
		c-0.8,0-1.5-0.7-1.5-1.5c0-0.8,0.7-1.5,1.5-1.5h10.3l-0.4-1.5c-1.3-4.3-5.4-7.3-9.9-7.3c-5.7,0-10.3,4.6-10.3,10.3
		s4.6,10.3,10.3,10.3c4.5,0,8.6-3,9.9-7.3L23.8,35.6z M65.8,24.8l-1.4,0.7l7.1,7.5c0.6,0.6,0.6,1.6-0.1,2.2c-0.3,0.3-0.7,0.4-1,0.4
		c-0.4,0-0.8-0.2-1.1-0.5l-7.1-7.5l-0.8,1.3c-0.9,1.6-1.4,3.3-1.4,5.1c0,5.7,4.6,10.3,10.3,10.3s10.3-4.6,10.3-10.3
		s-4.6-10.3-10.3-10.3C68.8,23.7,67.2,24.1,65.8,24.8z M52.3,17.2H27l1.4,1.8c2.8,3.6,4.5,8,5,12.5l0.1,1h14.1l0.1-1
		c0.5-4.5,2.2-8.9,5-12.5l0.6-0.8L52.3,17.2z"/>
</g>
</svg>
