<?xml version="1.0" encoding="utf-8"?>
<!-- Generator: Adobe Illustrator 19.2.0, SVG Export Plug-In . SVG Version: 6.00 Build 0)  -->
<svg version="1.1" id="Слой_1" xmlns="http://www.w3.org/2000/svg" xmlns:xlink="http://www.w3.org/1999/xlink" x="0px" y="0px"
	 viewBox="0 0 117 62.2" style="enable-background:new 0 0 117 62.2;" xml:space="preserve">
<style type="text/css">
	.st0{fill:none;}
	.st1{fill:#FF4F00;}
	.st2{fill:#FFFFFF;}
	.st3{fill:#010204;}
	.st4{clip-path:url(#SVGID_2_);}
	.st5{clip-path:url(#SVGID_4_);}
	.st6{fill:#000002;}
	.st7{fill:none;stroke:#000000;stroke-width:2.9859;stroke-miterlimit:10;}
	.st8{fill:none;stroke:#FF4F00;stroke-width:3;stroke-miterlimit:10;}
	.st9{fill:none;stroke:#000000;stroke-width:3;stroke-miterlimit:10;}
</style>
<g>
	<defs>
		<circle id="SVGID_1_" cx="52" cy="40.8" r="65"/>
	</defs>
	<clipPath id="SVGID_2_">
		<use xlink:href="#SVGID_1_"  style="overflow:visible;"/>
	</clipPath>
	<g class="st4">
		<g>
			<path class="st0" d="M82.7,39.9c-1.2-1.4-2.8-2.1-4.6-2.3l-19.9-2.6L49,21.7c-1.6-1.4-3.7-2.2-5.9-2.2H18.9
				c-2.4,0-4.5,1.2-5.9,3.1L1.2,36.4c-1,1.4-1.4,3.1-1.1,4.8L2,49c0.5,2.9,3.3,3.8,6.2,4c0.2,5.1,4.5,9.2,9.6,9.2
				c4.5,0,8.2-3,9.3-7.1H57c1.1,4.1,4.8,7.1,9.3,7.1c5.3,0,9.5-4.2,9.6-9.5c2.8-0.1,5.6-0.7,6-3.3C81.9,49.3,83.7,41,82.7,39.9z"/>
			<g>
				<path d="M82.7,39.9c-1.2-1.4-2.8-2.1-4.6-2.3l-19.9-2.6L49,21.7c-1.6-1.4-3.7-2.2-5.9-2.2H18.9c-2.4,0-4.5,1.2-5.9,3.1L1.2,36.4
					c-1,1.4-1.4,3.1-1.1,4.8L2,49c0.5,2.9,3.3,3.8,6.2,4c0.2,5.1,4.5,9.2,9.6,9.2c4.5,0,8.2-3,9.3-7.1H57c1.1,4.1,4.8,7.1,9.3,7.1
					c5.3,0,9.5-4.2,9.6-9.5c2.8-0.1,5.6-0.7,6-3.3C81.9,49.3,83.7,41,82.7,39.9z M17.8,59.2c-3.7,0-6.6-3-6.6-6.6
					c0-3.7,3-6.6,6.6-6.6c3.7,0,6.6,3,6.6,6.6C24.5,56.2,21.5,59.2,17.8,59.2z M66.3,59.2c-3.3,0-6-2.4-6.5-5.5c0-0.4,0-0.7-0.1-1
					c0,0,0-0.1,0-0.1c0-3.7,3-6.6,6.6-6.6c3.7,0,6.6,3,6.6,6.6C72.9,56.2,69.9,59.2,66.3,59.2z M79,47.6c-0.2,1.4-2,1.7-3.6,1.8
					c-1.3-3.8-4.9-6.5-9.1-6.5c-5.1,0-9.3,4-9.6,9.1H27.4c-0.3-5.1-4.5-9.1-9.6-9.1c-4.4,0-8.2,3-9.3,7.1c-1.6,0-3.3,0.1-3.6-1.5
					L3,40.8c-0.1-0.9,0.1-1.9,0.6-2.7l11.8-13.8c0.8-1.1,2-1.8,3.4-1.8h24.2c1.5,0,2.9,0.5,4,1.4l9.5,13.6c0.2,0.2,0.5,0.3,0.8,0.3
					l20.4,2.3c1,0.1,1.3,0.3,1.9,1.1C80.3,42.1,79,47.6,79,47.6z"/>
				<path d="M47.7,34.4H16.8c-0.6,0-1.1,0.7-1.1,1.5c0,0.8,0.5,1.5,1.1,1.5h30.8c0.6,0,1.1-0.7,1.1-1.5
					C48.7,35.1,48.2,34.4,47.7,34.4z"/>
			</g>
		</g>
		<g>
			<path class="st0" d="M165.6,39.9c-1.2-1.4-2.8-2.1-4.6-2.3l-19.9-2.6l-9.2-13.3c-1.6-1.4-3.7-2.2-5.9-2.2h-24.2
				c-2.4,0-4.5,1.2-5.9,3.1L84.1,36.4c-1,1.4-1.4,3.1-1.1,4.8L85,49c0.5,2.9,3.3,3.8,6.2,4c0.2,5.1,4.5,9.2,9.6,9.2
				c4.5,0,8.2-3,9.3-7.1h29.9c1.1,4.1,4.8,7.1,9.3,7.1c5.3,0,9.5-4.2,9.6-9.5c2.8-0.1,5.6-0.7,6-3.3C164.9,49.3,166.6,41,165.6,39.9
				z"/>
			<g>
				<path d="M165.6,39.9c-1.2-1.4-2.8-2.1-4.6-2.3l-19.9-2.6l-9.2-13.3c-1.6-1.4-3.7-2.2-5.9-2.2h-24.2c-2.4,0-4.5,1.2-5.9,3.1
					L84.1,36.4c-1,1.4-1.4,3.1-1.1,4.8L85,49c0.5,2.9,3.3,3.8,6.2,4c0.2,5.1,4.5,9.2,9.6,9.2c4.5,0,8.2-3,9.3-7.1h29.9
					c1.1,4.1,4.8,7.1,9.3,7.1c5.3,0,9.5-4.2,9.6-9.5c2.8-0.1,5.6-0.7,6-3.3C164.9,49.3,166.6,41,165.6,39.9z M100.8,59.2
					c-3.7,0-6.6-3-6.6-6.6c0-3.7,3-6.6,6.6-6.6c3.7,0,6.6,3,6.6,6.6C107.4,56.2,104.4,59.2,100.8,59.2z M149.2,59.2
					c-3.3,0-6-2.4-6.5-5.5c0-0.4,0-0.7-0.1-1c0,0,0-0.1,0-0.1c0-3.7,3-6.6,6.6-6.6c3.7,0,6.6,3,6.6,6.6
					C155.8,56.2,152.9,59.2,149.2,59.2z M161.9,47.6c-0.2,1.4-2,1.7-3.6,1.8c-1.3-3.8-4.9-6.5-9.1-6.5c-5.1,0-9.3,4-9.6,9.1h-29.2
					c-0.3-5.1-4.5-9.1-9.6-9.1c-4.4,0-8.2,3-9.3,7.1c-1.6,0-3.3,0.1-3.6-1.5L86,40.8c-0.1-0.9,0.1-1.9,0.6-2.7l11.8-13.8
					c0.8-1.1,2-1.8,3.4-1.8H126c1.5,0,2.9,0.5,4,1.4l9.5,13.6c0.2,0.2,0.5,0.3,0.8,0.3l20.4,2.3c1,0.1,1.3,0.3,1.9,1.1
					C163.2,42.1,161.9,47.6,161.9,47.6z"/>
				<path d="M130.6,34.4H99.8c-0.6,0-1.1,0.7-1.1,1.5c0,0.8,0.5,1.5,1.1,1.5h30.8c0.6,0,1.1-0.7,1.1-1.5
					C131.7,35.1,131.2,34.4,130.6,34.4z"/>
			</g>
		</g>
	</g>
</g>
</svg>
