<?xml version="1.0" encoding="utf-8"?>
<!-- Generator: Adobe Illustrator 19.2.0, SVG Export Plug-In . SVG Version: 6.00 Build 0)  -->
<svg version="1.1" id="Слой_1" xmlns="http://www.w3.org/2000/svg" xmlns:xlink="http://www.w3.org/1999/xlink" x="0px" y="0px"
	 viewBox="0 0 108.5 67.3" style="enable-background:new 0 0 108.5 67.3;" xml:space="preserve">
<style type="text/css">
	.st0{fill:none;}
	.st1{fill:#555555;}
	.st2{fill:#FF4F00;}
	.st3{fill:#FFFFFF;}
	.st4{clip-path:url(#SVGID_2_);}
	.st5{clip-path:url(#SVGID_4_);}
	.st6{fill:none;stroke:#555555;stroke-width:2.9859;stroke-miterlimit:10;}
	.st7{fill:none;stroke:#FF4F00;stroke-width:3;stroke-miterlimit:10;}
	.st8{fill:none;stroke:#555555;stroke-width:3;stroke-miterlimit:10;}
</style>
<path class="st1" d="M93.8,30.7h-81c-0.8,0-1.5-0.7-1.5-1.5v0c0-0.8,0.7-1.5,1.5-1.5h81c0.8,0,1.5,0.7,1.5,1.5v0
	C95.3,30,94.7,30.7,93.8,30.7z"/>
<path class="st1" d="M85.5,10.4H12.8c-0.8,0-1.5-0.7-1.5-1.5v0c0-0.8,0.7-1.5,1.5-1.5h72.7C86.4,7.4,87,8,87,8.9v0
	C87,9.7,86.4,10.4,85.5,10.4z"/>
<path class="st1" d="M11.3,29.2V8.9c0-0.8,0.7-1.5,1.5-1.5h0c0.8,0,1.5,0.7,1.5,1.5v20.3c0,0.8-0.7,1.5-1.5,1.5h0
	C12,30.7,11.3,30,11.3,29.2z"/>
<path class="st1" d="M92.3,29.2l-8-20.3c0-0.8,0.7-1.5,1.5-1.5l0,0c0.8,0,1.5,0.7,1.5,1.5l8,20.3c0,0.8-0.7,1.5-1.5,1.5l0,0
	C93,30.7,92.3,30,92.3,29.2z"/>
<g>
	<path class="st6" d="M80.6,48.4H28c2.6,1.7,4.3,4.6,4.3,8c0,1.1-0.2,2.1-0.5,3h45c-0.3-1-0.5-2-0.5-3C76.3,53.1,78,50.1,80.6,48.4z
		"/>
	<path class="st6" d="M105.1,48.4H91c2.6,1.7,4.3,4.6,4.3,8c0,1.1-0.2,2.1-0.5,3h9.6c0.4,0,0.7-0.2,0.9-0.5l1.7-8.1
		C107,49.5,106.7,48.4,105.1,48.4z"/>
	<path class="st6" d="M13.3,56.4c0-3.3,1.7-6.3,4.3-8H2.5c-0.6,0-1,0.4-1,1v7c0,1.7,1.3,3,3,3h9.3C13.5,58.5,13.3,57.5,13.3,56.4z"
		/>
</g>
<g>
	<path class="st1" d="M93.3,3c4.4,11.1,9.2,23.6,9.9,25.9l-0.8,18H94c-2.3-1.9-5.2-3-8.2-3s-5.9,1.1-8.2,3H31c-2.3-1.9-5.2-3-8.2-3
		s-5.9,1.1-8.2,3H6.1l0-43.8c0,0,0.1-0.1,0.1-0.1L93.3,3L93.3,3 M93.3,0C93.3,0,93.3,0,93.3,0L6.2,0.1c-1.7,0-3.1,1.4-3.1,3.1V50
		h12.8c1.7-1.9,4.2-3,7-3s5.2,1.2,7,3h49.1c1.7-1.9,4.2-3,7-3s5.2,1.2,7,3h12.4l1-21.2c0-1.4-10.1-26.9-10.1-26.9
		C95.6,0.7,94.5,0,93.3,0L93.3,0z"/>
</g>
<g>
	<path class="st1" d="M85.8,67.3c-6,0-10.9-4.9-10.9-10.9s4.9-10.9,10.9-10.9s10.9,4.9,10.9,10.9S91.8,67.3,85.8,67.3z M85.8,48.3
		c-4.5,0-8.1,3.6-8.1,8.1s3.6,8.1,8.1,8.1s8.1-3.6,8.1-8.1S90.3,48.3,85.8,48.3z"/>
</g>
<g>
	<path class="st1" d="M22.8,67.3c-6,0-10.9-4.9-10.9-10.9s4.9-10.9,10.9-10.9s10.9,4.9,10.9,10.9S28.8,67.3,22.8,67.3z M22.8,48.3
		c-4.5,0-8.1,3.6-8.1,8.1s3.6,8.1,8.1,8.1s8.1-3.6,8.1-8.1S27.3,48.3,22.8,48.3z"/>
</g>
</svg>
