<?xml version="1.0" encoding="utf-8"?>
<!-- Generator: Adobe Illustrator 19.2.0, SVG Export Plug-In . SVG Version: 6.00 Build 0)  -->
<svg version="1.1" id="Слой_1" xmlns="http://www.w3.org/2000/svg" xmlns:xlink="http://www.w3.org/1999/xlink" x="0px" y="0px"
	 viewBox="0 0 83 42.6" style="enable-background:new 0 0 83 42.6;" xml:space="preserve">
<style type="text/css">
	.st0{fill:none;}
	.st1{fill:#555555;}
	.st2{fill:#FF4F00;}
	.st3{fill:#FFFFFF;}
	.st4{clip-path:url(#SVGID_2_);}
	.st5{clip-path:url(#SVGID_4_);}
	.st6{fill:none;stroke:#555555;stroke-width:2.9859;stroke-miterlimit:10;}
	.st7{fill:none;stroke:#FF4F00;stroke-width:3;stroke-miterlimit:10;}
	.st8{fill:none;stroke:#555555;stroke-width:3;stroke-miterlimit:10;}
</style>
<g>
	<path class="st0" d="M82.7,20.2c-1.2-1.4-2.8-2.1-4.6-2.3l-19.9-2.6L49,2c-1.6-1.4-3.7-2.2-5.9-2.2H18.9C16.5-0.1,14.3,1,13,3
		L1.2,16.8c-1,1.4-1.4,3.1-1.1,4.8L2,29.4c0.5,2.9,3.3,3.8,6.2,4c0.2,5.1,4.5,9.2,9.6,9.2c4.5,0,8.2-3,9.3-7.1H57
		c1.1,4.1,4.8,7.1,9.3,7.1c5.3,0,9.5-4.2,9.6-9.5c2.8-0.1,5.6-0.7,6-3.3C81.9,29.7,83.7,21.4,82.7,20.2z"/>
	<path class="st1" d="M82.7,20.2c-1.2-1.4-2.8-2.1-4.6-2.3l-19.9-2.6L49,2c-1.6-1.4-3.7-2.2-5.9-2.2H18.9C16.5-0.1,14.3,1,13,3
		L1.2,16.8c-1,1.4-1.4,3.1-1.1,4.8L2,29.4c0.5,2.9,3.3,3.8,6.2,4c0.2,5.1,4.5,9.2,9.6,9.2c4.5,0,8.2-3,9.3-7.1H57
		c1.1,4.1,4.8,7.1,9.3,7.1c5.3,0,9.5-4.2,9.6-9.5c2.8-0.1,5.6-0.7,6-3.3C81.9,29.7,83.7,21.4,82.7,20.2z M17.8,39.5
		c-3.7,0-6.6-3-6.6-6.6c0-3.7,3-6.6,6.6-6.6c3.7,0,6.6,3,6.6,6.6C24.5,36.6,21.5,39.5,17.8,39.5z M66.3,39.5c-3.3,0-6-2.4-6.5-5.5
		c0-0.4,0-0.7-0.1-1c0,0,0-0.1,0-0.1c0-3.7,3-6.6,6.6-6.6c3.7,0,6.6,3,6.6,6.6C72.9,36.6,69.9,39.5,66.3,39.5z M79,27.9
		c-0.2,1.4-2,1.7-3.6,1.8c-1.3-3.8-4.9-6.5-9.1-6.5c-5.1,0-9.3,4-9.6,9.1H27.4c-0.3-5.1-4.5-9.1-9.6-9.1c-4.4,0-8.2,3-9.3,7.1
		c-1.6,0-3.3,0.1-3.6-1.5L3,21.2c-0.1-0.9,0.1-1.9,0.6-2.7L15.5,4.7c0.8-1.1,2-1.8,3.4-1.8h24.2c1.5,0,2.9,0.5,4,1.4l9.5,13.6
		c0.2,0.2,0.5,0.3,0.8,0.3l20.4,2.3c1,0.1,1.3,0.3,1.9,1.1C80.3,22.5,79,27.9,79,27.9z"/>
	<path class="st1" d="M47.7,14.7H16.8c-0.6,0-1.1,0.7-1.1,1.5c0,0.8,0.5,1.5,1.1,1.5h30.8c0.6,0,1.1-0.7,1.1-1.5
		C48.7,15.4,48.2,14.7,47.7,14.7z"/>
</g>
</svg>
