<?xml version="1.0" encoding="utf-8"?>
<!-- Generator: Adobe Illustrator 19.2.0, SVG Export Plug-In . SVG Version: 6.00 Build 0)  -->
<svg version="1.1" id="Слой_1" xmlns="http://www.w3.org/2000/svg" xmlns:xlink="http://www.w3.org/1999/xlink" x="0px" y="0px"
	 viewBox="0 0 34.5 41.2" style="enable-background:new 0 0 34.5 41.2;" xml:space="preserve">
<style type="text/css">
	.st0{fill:#FFFFFF;}
</style>
<g>
	<path class="st0" d="M11,26.9c1.8,0,3.7,0,5.6,0c0-2-0.1-3.9-0.2-5.7c-1.6-0.1-3.3-0.1-5.2,0C11.1,23,11,24.9,11,26.9L11,26.9z"/>
	<path class="st0" d="M5.9,31.9c-0.1-1.4-0.1-2.7-0.1-4c-1.2,0-2.3-0.1-3.3-0.1c0,1.1,0,2.3,0.1,3.5C3.8,31.5,4.9,31.7,5.9,31.9
		L5.9,31.9z"/>
	<path class="st0" d="M6.9,26.9c1,0,2,0,3.1,0.1c0-2,0.1-3.8,0.2-5.6c-1,0.1-2.1,0.2-3.2,0.3C6.9,23.2,6.9,25,6.9,26.9L6.9,26.9z"/>
	<path class="st0" d="M7,32c1.1,0.1,2.1,0.2,3.1,0.3c-0.1-1.5-0.1-3-0.1-4.4c-1.1,0-2.1,0-3.1-0.1C6.9,29.2,6.9,30.6,7,32L7,32z"/>
	<path class="st0" d="M16.6,32.4c0.1-1.5,0.1-3,0.1-4.5c-0.9,0-1.9,0-2.8,0c-1,0-1.9,0-2.9,0c0,1.5,0,3,0.1,4.5
		C13,32.5,14.9,32.5,16.6,32.4L16.6,32.4z"/>
	<path class="st0" d="M21.8,17.4c0.1,1,0.2,2.1,0.3,3.3c1.2,0.2,2.3,0.4,3.1,0.6c-0.2-1.4-0.4-2.6-0.6-3.4
		C23.8,17.8,22.9,17.6,21.8,17.4L21.8,17.4z"/>
	<path class="st0" d="M6,21.8c-1,0.2-2.1,0.4-3.2,0.6c-0.1,1.3-0.3,2.8-0.3,4.3c0.9,0,2.1,0.1,3.3,0.1C5.8,25,5.9,23.3,6,21.8
		L6,21.8z"/>
	<path class="st0" d="M7,33.1c0.1,1.1,0.2,2.2,0.3,3.3c1,0.1,2.1,0.2,3,0.3c-0.1-1.1-0.2-2.2-0.3-3.3C9.1,33.3,8.1,33.2,7,33.1
		L7,33.1z"/>
	<path class="st0" d="M11,40.9c-0.2-1-0.4-2.1-0.5-3.1c-1-0.1-2-0.1-3-0.3c0.1,0.8,0.2,1.5,0.4,2.3C8.8,40.2,9.9,40.6,11,40.9
		L11,40.9z"/>
	<path class="st0" d="M26.3,21.5c0.3,0.1,0.6,0.2,0.9,0.2c-0.3-0.8-0.7-1.5-1.2-2.3C26.1,20.1,26.2,20.8,26.3,21.5L26.3,21.5z"/>
	<path class="st0" d="M7.6,16.2c1.1-0.1,2.1-0.2,3.1-0.3c0.1-1,0.2-1.9,0.3-2.6c-1.1,0.2-2.2,0.6-3.2,1.1
		C7.8,14.9,7.7,15.6,7.6,16.2L7.6,16.2z"/>
	<path class="st0" d="M6.4,17.4c-0.9,0.1-1.9,0.3-2.9,0.5c-0.2,0.8-0.4,2-0.6,3.4C4,21.1,5,20.9,6,20.7C6.2,19.5,6.3,18.4,6.4,17.4
		L6.4,17.4z"/>
	<path class="st0" d="M16.6,13.2c0.1,0.7,0.2,1.7,0.3,2.7c1.3,0.1,2.5,0.2,3.6,0.3c-0.1-0.7-0.2-1.3-0.3-1.8
		C19.2,13.9,17.9,13.5,16.6,13.2L16.6,13.2z"/>
	<path class="st0" d="M26.2,34.3c0.4-0.8,0.8-1.6,1.1-2.4c-0.2,0.1-0.5,0.1-0.9,0.2C26.4,32.8,26.3,33.5,26.2,34.3L26.2,34.3z"/>
	<path class="st0" d="M2.7,32.3c0.1,1.1,0.3,2.2,0.5,3.4c1,0.2,2.1,0.4,3.1,0.6C6.2,35.1,6.1,34,6,32.9C4.9,32.8,3.9,32.6,2.7,32.3
		L2.7,32.3z"/>
	<path class="st0" d="M1.7,32.1C1.4,32,1.1,32,0.8,31.9c0.3,0.8,0.7,1.7,1.1,2.4C1.8,33.5,1.8,32.8,1.7,32.1L1.7,32.1z"/>
	<path class="st0" d="M6.4,37.3c-0.8-0.1-1.7-0.3-2.5-0.4c0.8,0.9,1.7,1.6,2.8,2.2C6.6,38.5,6.5,37.9,6.4,37.3L6.4,37.3z"/>
	<path class="st0" d="M2.2,19.5C1.8,20.2,1.4,21,1,21.8c0.3-0.1,0.6-0.2,0.9-0.2C2,20.8,2.1,20.1,2.2,19.5L2.2,19.5z"/>
	<path class="st0" d="M11.3,20.2c1.8-0.1,3.5-0.1,5,0c-0.1-1.2-0.2-2.3-0.3-3.3c-1.4-0.1-2.9-0.1-4.4,0C11.5,17.9,11.4,19,11.3,20.2
		L11.3,20.2z"/>
	<path class="st0" d="M17.1,17c0.1,1,0.2,2.1,0.3,3.3c1.3,0.1,2.6,0.2,3.7,0.3c-0.1-1.2-0.2-2.3-0.3-3.3C19.6,17.2,18.4,17,17.1,17
		L17.1,17z"/>
	<path class="st0" d="M21.6,16.4c0.7,0.1,1.4,0.2,2,0.3c-0.7-0.6-1.4-1.1-2.1-1.6C21.5,15.5,21.6,15.9,21.6,16.4L21.6,16.4z"/>
	<path class="st0" d="M7.1,20.6c1.1-0.1,2.1-0.2,3.2-0.3c0.1-1.2,0.2-2.3,0.3-3.3c-1,0.1-2.1,0.2-3.1,0.3
		C7.3,18.3,7.2,19.4,7.1,20.6L7.1,20.6z"/>
	<path class="st0" d="M0,27.7c0,1.1,0.2,2.1,0.5,3.1h0.1c0.3,0.1,0.7,0.2,1,0.3c-0.1-1.1-0.1-2.2-0.1-3.3C0.9,27.7,0.4,27.7,0,27.7
		L0,27.7z"/>
	<path class="st0" d="M1.8,22.6c-0.4,0.1-0.8,0.2-1.2,0.3C0.2,24.1,0,25.3,0,26.6c0.4,0,0.9,0,1.5,0.1C1.6,25.2,1.7,23.9,1.8,22.6
		L1.8,22.6z"/>
	<path class="st0" d="M6.7,15.1c-0.8,0.5-1.5,1-2.2,1.6c0.7-0.1,1.3-0.2,2-0.3C6.6,15.9,6.7,15.5,6.7,15.1L6.7,15.1z"/>
	<path class="st0" d="M11.7,15.9c1.5-0.1,2.9-0.1,4.2,0c-0.1-1.1-0.3-2.1-0.4-2.8c-0.1,0-0.2,0-0.3,0c0,0,0,0,0-0.1V1.2
		C15.2,0.5,14.7,0,14,0s-1.2,0.5-1.2,1.2V13c0,0,0,0,0,0.1c-0.3,0-0.6,0.1-0.8,0.1C12,13.9,11.9,14.8,11.7,15.9L11.7,15.9z"/>
	<path class="st0" d="M33.1,36.7c1.8-4.8,1.5-8.6,1.1-10.4c-0.3-1.3-1.5-2.2-2.8-2.2h-8.3c-0.7,0-1.3,0.3-1.7,0.7
		c-0.5,0.5-0.8,1.2-0.8,1.9c0,2-0.4,4.7-0.8,6.7c-0.3-0.1-0.7-0.1-1-0.1c-1.9,0-3.5,1.3-3.5,3s1.6,3,3.5,3c1.2,0,2.2-0.5,2.9-1.3
		c0,0.4-0.1,0.7-0.2,1.1c1-0.6,1.9-1.4,2.7-2.2c-0.6,0.1-1.4,0.2-2.1,0.4c0.1-0.2,0.1-0.4,0.2-0.6l0,0c0.1-0.2,1.4-5.5,1.5-9.4h7.4
		c0.2,1.3,0.4,3.6-0.4,6.5c-0.4-0.1-0.8-0.2-1.2-0.2c-1.9,0-3.5,1.3-3.5,3s1.6,3,3.5,3C31.5,39.6,33,38.3,33.1,36.7L33.1,36.7z"/>
	<path class="st0" d="M14.1,41.2c0.5,0,1,0,1.4-0.1c0.1-0.6,0.2-1.3,0.3-2c-0.5-0.4-0.9-0.8-1.2-1.3c-0.2,0-0.4,0-0.7,0
		c-0.8,0-1.6,0-2.5-0.1c0.1,1.1,0.3,2.2,0.5,3.3C12.8,41.1,13.4,41.2,14.1,41.2L14.1,41.2z"/>
	<path class="st0" d="M27.5,22.9c-0.2,0-0.5-0.2-1.1-0.3c0,0.1,0,0.2,0,0.3H27.5z"/>
	<path class="st0" d="M27.7,30.7c0.2-0.7,0.3-1.5,0.4-2.3h-1.5c0,0.8,0,1.7-0.1,2.6c0.6-0.2,1-0.3,1-0.3
		C27.6,30.7,27.7,30.7,27.7,30.7L27.7,30.7z"/>
	<path class="st0" d="M23.4,22.9h1.9c0-0.2,0-0.4-0.1-0.6c-0.8-0.2-1.9-0.4-3.2-0.6c0,0.4,0.1,0.9,0.1,1.4
		C22.6,23,23,22.9,23.4,22.9L23.4,22.9z"/>
	<path class="st0" d="M25.6,28.4h-0.4c-0.1,1-0.2,2-0.3,3c0.2,0,0.4-0.1,0.7-0.1C25.6,30.3,25.6,29.4,25.6,28.4L25.6,28.4z"/>
	<path class="st0" d="M24,35.9c0.3-0.1,0.6-0.1,0.9-0.2c0.2-1.1,0.4-2.3,0.5-3.4c-0.2,0-0.5,0.1-0.7,0.1
		C24.5,33.8,24.2,35.1,24,35.9L24,35.9z"/>
	<path class="st0" d="M19.7,26.7c0-1.1,0.4-2,1.1-2.8c0.1-0.1,0.3-0.2,0.4-0.3c0-0.7-0.1-1.4-0.1-2c-1.1-0.1-2.4-0.3-3.7-0.4
		c0.1,1.7,0.2,3.6,0.2,5.6C18.3,26.8,19,26.8,19.7,26.7C19.7,26.8,19.7,26.8,19.7,26.7L19.7,26.7z"/>
	<path class="st0" d="M19.1,32.1L19.1,32.1c0.3-1.3,0.5-2.9,0.6-4.2c-0.7,0-1.4,0-2,0.1c0,1.4,0,2.9-0.1,4.4
		C18.1,32.2,18.6,32.1,19.1,32.1L19.1,32.1z"/>
	<path class="st0" d="M16.8,40c-0.1,0.3-0.1,0.7-0.2,1c0.7-0.1,1.3-0.3,2-0.5C17.9,40.4,17.3,40.2,16.8,40L16.8,40z"/>
	<path class="st0" d="M14.4,36.8c0-0.2,0-0.3,0-0.5c0-1.1,0.4-2,1.2-2.8c-0.5,0-1,0-1.5,0c-0.9,0-1.9,0-2.9-0.1
		c0.1,1.1,0.2,2.2,0.3,3.3C12.5,36.8,13.5,36.8,14.4,36.8L14.4,36.8z"/>
</g>
</svg>
