<?xml version="1.0" encoding="utf-8"?>
<!-- Generator: Adobe Illustrator 19.2.0, SVG Export Plug-In . SVG Version: 6.00 Build 0)  -->
<svg version="1.1" id="Слой_1" xmlns="http://www.w3.org/2000/svg" xmlns:xlink="http://www.w3.org/1999/xlink" x="0px" y="0px"
	 viewBox="0 0 136.7 235.2" style="enable-background:new 0 0 136.7 235.2;" xml:space="preserve">
<style type="text/css">
	.st0{fill:#FFFFFF;}
</style>
<g>
	<rect x="55" y="90.9" class="st0" width="26.8" height="10.4"/>
	<path class="st0" d="M131.9,0H4.8C2.1,0,0,2.1,0,4.8v225.6c0,2.6,2.1,4.8,4.8,4.8h127.1c2.7,0,4.8-2.2,4.8-4.8V4.8
		C136.7,2.1,134.6,0,131.9,0L131.9,0z M127.1,225.6H9.6V9.6h117.5V225.6z"/>
	<path class="st0" d="M68.1,78.1h0.5c15.2,0,27.6-12.4,27.6-27.6V50c0-15.2-12.4-27.6-27.6-27.6h-0.5c-15.2,0-27.6,12.4-27.6,27.6
		v0.5C40.6,65.7,52.9,78.1,68.1,78.1L68.1,78.1z M50.2,50.1c0-9.9,8.1-18,18-18h0.5c9.9,0,18,8.1,18,18v0.5c0,9.9-8.1,18-18,18h-0.5
		c-9.9,0-18-8.1-18-18C50.2,50.6,50.2,50.1,50.2,50.1z"/>
	<path class="st0" d="M59.9,61.9l8.4-6.1l8.4,6.1L73.5,52l8.4-6.1H71.6L68.4,36l-3.2,9.9H54.7l8.4,6.1L59.9,61.9z"/>
</g>
</svg>
