<?xml version="1.0" encoding="utf-8"?>
<!-- Generator: Adobe Illustrator 19.2.0, SVG Export Plug-In . SVG Version: 6.00 Build 0)  -->
<svg version="1.1" id="Слой_1" xmlns="http://www.w3.org/2000/svg" xmlns:xlink="http://www.w3.org/1999/xlink" x="0px" y="0px"
	 viewBox="0 0 358.4 404.8" style="enable-background:new 0 0 358.4 404.8;" xml:space="preserve">
<style type="text/css">
	.st0{fill:#FFFFFF;}
</style>
<g>
	<path class="st0" d="M283,123.2c7.3-5.2,14.2-10.9,20.6-17.3c13.4-13.4,22.3-29.8,25.2-46.3c3.1-18.1-1.5-34.9-12.7-46
		C307.2,4.7,295.1,0,281.2,0c-19.9,0-40.8,9.5-57.4,26.1c-26.6,26.6-42.1,63.3-50.4,89.5c-6.2-26.3-18.5-61.9-42.4-85.8
		C118.1,17,101.7,10.4,86.2,10.4c-12.7,0-24.7,4.4-33.7,13.4c-20,20-17.3,55.1,6,78.4c8.3,8.3,18,15.2,28.3,21H0v102.4h25.6v179.2
		h307.2V225.6h25.6V123.2H283z M244.1,46.5c11.1-11.1,24.9-17.7,37-17.7c4.3,0,10.3,0.9,14.6,5.2c10.4,10.4,4.6,34.5-12.5,51.6
		c-17.6,17.6-41.2,29.7-61.8,37.6h-20.3C208.6,100.2,222,68.6,244.1,46.5L244.1,46.5z M68,59.6c-0.3-3.6,0-10.5,4.9-15.4
		c4.1-4.1,9.5-5,13.3-5c8.5,0,17.4,4,24.4,11c13.6,13.5,24.7,35.1,32.3,62.4c0.2,0.7,0.4,1.5,0.6,2.2c-0.7-0.2-1.5-0.4-2.2-0.6
		c-27.2-7.6-48.8-18.7-62.3-32.3C72.6,75.6,68.6,67.4,68,59.6L68,59.6z M153.6,379.2H51.2V212.8h102.4V379.2z M153.6,200h-128v-51.2
		h128V200z M307.2,379.2H204.8V212.8h102.4V379.2z M332.8,200h-128v-51.2h128V200z"/>
</g>
</svg>
