<?xml version="1.0" encoding="utf-8"?>
<!-- Generator: Adobe Illustrator 19.2.0, SVG Export Plug-In . SVG Version: 6.00 Build 0)  -->
<svg version="1.1" id="Слой_1" xmlns="http://www.w3.org/2000/svg" xmlns:xlink="http://www.w3.org/1999/xlink" x="0px" y="0px"
	 viewBox="0 0 24.1 39.6" style="enable-background:new 0 0 24.1 39.6;" xml:space="preserve">
<style type="text/css">
	.st0{fill:#FFFFFF;}
</style>
<g>
	<path class="st0" d="M18.8,38.9c0-0.2,0-0.4-0.1-0.6l-3.3-4.8c0.1,0.1,0.2,0.1,0.3,0s0.1-0.2,0.1-0.3l-1.1-1.6
		c-0.1-0.1-0.2-0.1-0.3-0.1c-0.1,0.1-0.1,0.1-0.1,0.2l-3.4-4.9v-2.1c0.4-0.2,0.7-0.6,0.7-1.1s-0.3-0.9-0.7-1.1V11
		c0-0.4-0.4-0.8-0.8-0.8c-0.4,0-0.8,0.4-0.8,0.8v11.4c-0.4,0.2-0.7,0.6-0.7,1.1s0.3,0.9,0.7,1.1v2.1l-3.4,4.9c0-0.1,0-0.2-0.1-0.2
		c-0.1-0.1-0.3,0-0.3,0.1l-1.1,1.6c-0.1,0.1-0.1,0.3,0.1,0.3c0.1,0.1,0.2,0.1,0.3,0l-3.3,4.8c-0.1,0.2-0.2,0.4-0.1,0.6
		C0.5,39,0,39.1,0,39.2c0,0.2,0.8,0.4,1.9,0.4s1.9-0.2,1.9-0.4c0-0.1-0.4-0.3-1-0.3l6.4-9.3v6.9c0,0.1,0,0.2,0,0.3
		C8.5,36.9,8,37,8,37.2s0.8,0.4,1.9,0.4c1,0,1.9-0.2,1.9-0.4s-0.5-0.3-1.1-0.4c0-0.1,0.1-0.2,0.1-0.3v-6.9l6.4,9.3
		c-0.6,0.1-1,0.2-1,0.3c0,0.2,0.9,0.4,1.9,0.4s1.9-0.2,1.9-0.4C19.9,39.1,19.4,39,18.8,38.9L18.8,38.9z"/>
	<path class="st0" d="M7.5,9.4h4.9c0.6,0,1.1-0.5,1.1-1.1V5.7c0-0.6-0.5-1.1-1.1-1.1H7.5c-0.6,0-1.1,0.5-1.1,1.1v2.5
		C6.3,8.9,6.9,9.4,7.5,9.4L7.5,9.4z M8,5.6h3.9c0.2,0,0.4,0.2,0.4,0.4c0,0.2-0.2,0.4-0.4,0.4H8C7.7,6.4,7.6,6.2,7.6,6S7.7,5.6,8,5.6
		L8,5.6z"/>
	<path class="st0" d="M23.3,0h-3.9c-0.2,0-0.4,0.1-0.6,0.2c-0.1,0-0.2,0.1-0.3,0.1l-4.1,3.2c-0.2,0.2-0.3,0.4-0.3,0.6v5.6
		c0,0.2,0.1,0.5,0.3,0.6l4.1,3.2c0.1,0.1,0.2,0.1,0.3,0.1c0.1,0.1,0.3,0.2,0.6,0.2h3.9c0.4,0,0.8-0.4,0.8-0.8V0.8
		C24.1,0.4,23.7,0,23.3,0L23.3,0z M22.5,12.4h-2.3V1.6h2.3V12.4z"/>
</g>
</svg>
