<?xml version="1.0" encoding="utf-8"?>
<!-- Generator: Adobe Illustrator 19.2.0, SVG Export Plug-In . SVG Version: 6.00 Build 0)  -->
<svg version="1.1" id="Слой_1" xmlns="http://www.w3.org/2000/svg" xmlns:xlink="http://www.w3.org/1999/xlink" x="0px" y="0px"
	 viewBox="0 0 62.3 64" style="enable-background:new 0 0 62.3 64;" xml:space="preserve">
<style type="text/css">
	.st0{fill:#FFFFFF;}
</style>
<path class="st0" d="M59.6,40.9l2.7-21.1l-19.2-7.3L37,15.4c-0.2,0.9-0.5,1.8-0.8,2.7l4.6-2.2l-1.9,20.4l0.1,1.1l-14,2.1l-1.2,2.3
	l15.4-2.3L41,57.6l2.1-0.2l-1.8-18.2h0.2l16.1,2v-0.3L60,61.3l-16.7-3.9l-21.8,4.1h-0.2l2-18.6v-0.1l-0.1-0.7l-2.7-5.3l0.4,3.3
	l-0.5,0.1L4.8,37.9l0.1-0.8L2.5,18.3l10.9,4.6l-0.9-1.8c-0.3-0.4-0.6-0.8-0.8-1.2L0,15l2.8,22.1l-0.1,0.4l0,0l-0.3,2h0.1L0.1,59.7
	l21.3,4l21.7-4.1L62.3,64L59.6,40.9z M41.4,37.1H41l-0.1-0.8l2-21.5l0.2-0.1L60,21.1l-2.3,18L41.4,37.1z M19.2,61.2L2.4,58l2.2-18.1
	l15.8,2.4l0.7-0.1l0.1,0.7L19.2,61.2z M23.4,42.7l-0.3-0.5V42l0.7-0.1L23.4,42.7z M14.1,19.4l9.2,18.1l9.1-17.9
	c1.8-2.1,2.9-4.8,2.9-7.7C35.1,5.3,29.8,0,23.3,0S11.4,5.3,11.4,11.9C11.4,14.7,12.4,17.3,14.1,19.4L14.1,19.4z M23.3,4.6
	c4,0,7.3,3.3,7.3,7.3s-3.3,7.3-7.3,7.3S16,15.9,16,11.9C16,7.8,19.3,4.6,23.3,4.6L23.3,4.6z"/>
</svg>
