<?xml version="1.0" encoding="utf-8"?>
<!-- Generator: Adobe Illustrator 19.2.0, SVG Export Plug-In . SVG Version: 6.00 Build 0)  -->
<svg version="1.1" id="Слой_1" xmlns="http://www.w3.org/2000/svg" xmlns:xlink="http://www.w3.org/1999/xlink" x="0px" y="0px"
	 viewBox="0 0 35.9 36.8" style="enable-background:new 0 0 35.9 36.8;" xml:space="preserve">
<style type="text/css">
	.st0{fill:#FFFFFF;}
</style>
<g>
	<path class="st0" d="M17.6,12c-0.9,0-1.5,0.1-1.9,0.2v6c0.4,0.1,0.9,0.1,1.5,0.1c2.4,0,3.9-1.2,3.9-3.3C21.2,13.1,19.9,12,17.6,12
		L17.6,12z"/>
	<path class="st0" d="M31.6,0H4.4C1.9,0,0,1.9,0,4.4v28.1c0,2.4,1.9,4.4,4.4,4.4h27.2c2.4,0,4.4-2,4.4-4.4V4.4C35.9,1.9,34,0,31.6,0
		L31.6,0z M33.3,31.7c0,1.3-1.1,2.4-2.4,2.4H5c-1.3,0-2.4-1.1-2.4-2.4V5.1c0-1.3,1.1-2.4,2.4-2.4h25.9c1.3,0,2.4,1.1,2.4,2.4V31.7z"
		/>
	<path class="st0" d="M30.9,4.4H5c-0.4,0-0.7,0.3-0.7,0.7v26.6c0,0.4,0.3,0.7,0.7,0.7h25.9c0.4,0,0.7-0.3,0.7-0.7V5.1
		C31.6,4.7,31.3,4.4,30.9,4.4L30.9,4.4z M23.9,19.7c-1.6,1.5-3.9,2.1-6.6,2.1c-0.6,0-1.1,0-1.6-0.1V29h-4.5V9
		c1.4-0.2,3.4-0.4,6.2-0.4s4.8,0.5,6.2,1.6c1.3,1,2.2,2.7,2.2,4.7C25.8,16.8,25.1,18.5,23.9,19.7L23.9,19.7z"/>
</g>
</svg>
