<?xml version="1.0" encoding="utf-8"?>
<!-- Generator: Adobe Illustrator 19.2.0, SVG Export Plug-In . SVG Version: 6.00 Build 0)  -->
<svg version="1.1" id="Слой_1" xmlns="http://www.w3.org/2000/svg" xmlns:xlink="http://www.w3.org/1999/xlink" x="0px" y="0px"
	 viewBox="0 0 237.6 188.1" style="enable-background:new 0 0 237.6 188.1;" xml:space="preserve">
<style type="text/css">
	.st0{fill:#FFFFFF;}
</style>
<g>
	<path class="st0" d="M230.1,136H219V57c0-4.1-3.4-7.5-7.5-7.5h-23.4v-42c0-4.1-3.4-7.5-7.5-7.5H57c-4.1,0-7.5,3.4-7.5,7.5v42H26
		c-4.1,0-7.5,3.4-7.5,7.5v79h-11c-4.1,0-7.5,3.4-7.5,7.5s3.4,7.5,7.5,7.5h103.8v22.1H94.1c-4.1,0-7.5,3.4-7.5,7.5s3.4,7.5,7.5,7.5
		h49.5c4.1,0,7.5-3.4,7.5-7.5s-3.4-7.5-7.5-7.5h-17.2V151h103.8c4.1,0,7.5-3.4,7.5-7.5C237.6,139.4,234.2,136,230.1,136L230.1,136z
		 M64.5,15h108.7v34.5H64.5V15z M204.1,64.5v9.9c-1.5,0.3-2.9,1-4,2.1c-1.4,1.4-2.2,3.3-2.2,5.3s0.8,3.9,2.2,5.3
		c1.1,1.1,2.5,1.8,4,2.1v17.3c-3-0.3-4.7-2-7.7-5.1c-4-4.1-9.4-9.8-19.8-9.8c-10.4,0-15.9,5.7-19.8,9.8c-3.5,3.6-5.2,5.2-9,5.2
		c-3.9,0-5.6-1.6-9-5.2c-4-4.1-9.4-9.8-19.8-9.8s-15.9,5.7-19.8,9.8c-3.5,3.6-5.2,5.2-9,5.2c-3.9,0-5.6-1.6-9-5.2
		c-4-4.1-9.4-9.8-19.8-9.8s-15.9,5.7-19.8,9.8c-3.1,3.2-4.7,4.8-7.7,5.1V89.1c1.5-0.3,2.9-1,4-2.1c1.4-1.4,2.2-3.3,2.2-5.3
		s-0.8-3.9-2.2-5.3c-1.1-1.1-2.5-1.8-4-2.1v-9.9h170.2V64.5z M33.5,121.4c9.5-0.5,14.7-5.8,18.5-9.8c3.5-3.6,5.2-5.2,9-5.2
		c3.9,0,5.6,1.6,9,5.2c4,4.1,9.4,9.8,19.8,9.8s15.9-5.7,19.8-9.8c3.5-3.6,5.2-5.2,9-5.2c3.9,0,5.6,1.6,9,5.2c4,4.1,9.4,9.8,19.8,9.8
		c10.4,0,15.8-5.7,19.8-9.8c3.5-3.6,5.2-5.2,9-5.2c3.9,0,5.6,1.6,9,5.2c3.8,4,9,9.3,18.5,9.8V136H33.5V121.4z"/>
	<path class="st0" d="M89.9,89.2c2,0,3.9-0.8,5.3-2.2c1.4-1.4,2.2-3.3,2.2-5.3s-0.8-3.9-2.2-5.3c-1.4-1.4-3.3-2.2-5.3-2.2
		S86,75,84.6,76.4c-1.4,1.4-2.2,3.3-2.2,5.3s0.8,3.9,2.2,5.3C86,88.4,88,89.2,89.9,89.2L89.9,89.2z"/>
	<path class="st0" d="M147.7,89.2c2,0,3.9-0.8,5.3-2.2c1.4-1.4,2.2-3.3,2.2-5.3s-0.8-3.9-2.2-5.3s-3.3-2.2-5.3-2.2s-3.9,0.8-5.3,2.2
		c-1.4,1.4-2.2,3.3-2.2,5.3s0.8,3.9,2.2,5.3C143.7,88.4,145.7,89.2,147.7,89.2L147.7,89.2z"/>
	<path class="st0" d="M81.7,24.7c-2,0-3.9,0.8-5.3,2.2c-1.4,1.4-2.2,3.3-2.2,5.3s0.8,3.9,2.2,5.3c1.4,1.4,3.3,2.2,5.3,2.2
		s3.9-0.8,5.3-2.2s2.2-3.3,2.2-5.3s-0.8-3.9-2.2-5.3C85.6,25.5,83.7,24.7,81.7,24.7L81.7,24.7z"/>
	<path class="st0" d="M118.8,24.7c-2,0-3.9,0.8-5.3,2.2c-1.4,1.4-2.2,3.3-2.2,5.3s0.8,3.9,2.2,5.3c1.4,1.4,3.3,2.2,5.3,2.2
		s3.9-0.8,5.3-2.2s2.2-3.3,2.2-5.3s-0.8-3.9-2.2-5.3C122.7,25.5,120.8,24.7,118.8,24.7L118.8,24.7z"/>
	<path class="st0" d="M155.9,24.7c-2,0-3.9,0.8-5.3,2.2c-1.4,1.4-2.2,3.3-2.2,5.3s0.8,3.9,2.2,5.3c1.4,1.4,3.3,2.2,5.3,2.2
		s3.9-0.8,5.3-2.2c1.4-1.4,2.2-3.3,2.2-5.3s-0.8-3.9-2.2-5.3C159.8,25.5,157.9,24.7,155.9,24.7L155.9,24.7z"/>
</g>
</svg>
