<?xml version="1.0" encoding="utf-8"?>
<!-- Generator: Adobe Illustrator 19.2.0, SVG Export Plug-In . SVG Version: 6.00 Build 0)  -->
<svg version="1.1" id="Objects" xmlns="http://www.w3.org/2000/svg" xmlns:xlink="http://www.w3.org/1999/xlink" x="0px" y="0px"
	 viewBox="0 0 198.9 305" style="enable-background:new 0 0 198.9 305;" xml:space="preserve">
<style type="text/css">
	.st0{fill:#C1A263;enable-background:new    ;}
</style>
<path class="st0" d="M190.4,147.6L190.4,147.6c0,0,0.1-0.1,0.1-0.2c1.8-3.3,2.6-8-1.2-10.4c-3.6-2.3-7.6,0.1-10.3,2.7
	c-1.6-3.7-5.9-6.2-8.9-2.9c-0.4-0.7-1.1-1.6-1.4-2c-0.9-1-2.1-1.8-3.3-2.3c-1.6-0.7-4.2-1.3-6-0.7c0.5-3.8,1.1-7.7,1.6-11.5
	c0.2-0.3,0.2-0.6,0.1-0.9c0.4-2.6,0.8-5.3,1.2-7.9c1.4-9.2,3.6-18.4,4.3-27.7c3.6-3.8,5.3-11.2,1.2-13.1c6.2-1.9,8.4-9.9,3.7-14.7
	c-4.8-4.9-12.7-3.3-16.4,1.9c-0.6-3.4-5.1-5.4-7.7-2.7c-1.6-1.6-3.9-3.4-6.2-2.5c0.1-1.2,0.3-2.4,0.5-3.6c0.8-5.9,1.9-11.9,2-17.8
	c0.5-0.2,0.9-0.4,1.4-0.6c4.9-2.8,6.1-9.9,1.5-13.5c2.5-1.4,3.3-5.1,2-7.6s-4.2-3.2-6.7-2.6c1-5.3-8.5-7-10.7-1.1
	c-2.5-2.9-4.4-6.1-8.7-6c-3.8,0.1-11.8,0.6-14.2,3.5c-1.5-1.5-9.1-2.3-11.5-2.4c-1.7,0-3.5,0.3-5.2,1c-1.6,0.6-3.4,2.6-5.1,2.3
	c-0.9-0.1-2.7-2.2-3.8-2.6c-1.4-0.5-2.9-0.7-4.4-0.4c-2.4,0.5-4,2-4.1,4.4c-1.9-3.4-8.6-1-10.7,1c-1.5,1.3-2.4,3.4-1.8,5.4
	c0.4,1.3,1.3,2.4,2.5,2.8c-3.5,3.5-5.1,8.4-0.5,12.2c0.1,0.1,0.3,0.2,0.4,0.3c0.2,7.7,1.2,15.5,2.4,23.2c-2-1.9-4.9-2.8-7.6-1.8
	c-2.5,0.9-5,4-4,6.7c-3.2-1.9-7.2-2.3-10.9-1.4c-1.7,0.4-3.5,1.1-4.6,2.5c-0.6,0.7-0.7,2.6-1.1,3c-0.5,0.4-2.3,0.1-2.9,0.2
	c-1.3,0.3-2.6,1.1-3.4,2.2c-1.2,1.6-1.4,3.6-0.8,5.4c0.2,0.5,0.4,1,0.8,1.5c0.1,0.1,0.1,0.2,0.2,0.3c-5,3-5.4,10.8-2.2,15.5
	c0.7,1,1.7,1.9,2.9,2.6c1,9,3,18,4.4,27c0.9,5.7,1.6,11.4,2.3,17.1c-3.1-2.6-7.4-3.7-11.4-3.2c-4.8,0.6-7.1,3.5-7.7,8.1
	c-1.5-1.2-3.3-2.2-5.2-1c-1.2,0.8-1.6,2-1.3,3.2c-3.8-1-8.2-0.7-10.9,2.5c-2.4,2.8-2.6,7.2,0,9.9c-2.1,1.8-3.7,4.1-3,7
	c0.5,2.3,2.1,3.6,4,3.9C1,166,1,173.1,4.2,177.1c1.2,1.6,2.9,2.5,4.7,3c-0.1,8,1.5,16.1,2.5,24c1.1,8.1,2.1,16.3,3.2,24.4
	c1.7,12.6,3.2,25.3,4.8,37.9c-4.3,0.5-8.7,2.8-10.6,6.9c-2.6,5.5,1,11.1,5.4,14.4c6,4.4,14,5.8,21.2,7.5c9.3,2.2,18.6,4.2,28.1,5.8
	c34.2,5.8,70.5,6.4,103-7.5c6.6-2.8,16-6.3,18.4-13.9c1.7-5.4-1.7-11.3-7.7-10.9c-0.1,0-0.2,0.1-0.3,0.1c3.7-15.3,6.6-30.8,8.9-46.3
	c0.2-1.4,0.4-2.7,0.6-4.1c0.1-0.1,0.1-0.3,0.1-0.4c2.3-15.6,4.3-31.6,4.2-47.4C200.6,167.3,202.8,150.3,190.4,147.6z M65.6,14.7
	L65.6,14.7c0.1-0.1,0.2-0.2,0.3-0.3c0.4-0.4-0.2-1-0.6-0.6l-0.1,0.1c-1.1-0.6-2.1-1.3-2.3-2.8c-0.3-1.8,1-3.5,2.5-4.4
	c1.7-1.1,6.8-2.5,8.3-0.4c0.2,0.2,0.5,0.2,0.7,0.1c0.2,0.3,0.8,0.3,0.9-0.2c1.1-7.4,9.4-2.8,11.3-0.2c0.2,0.2,0.5,0.4,0.8,0.1
	c3.9-4.2,17.3-5.6,21.2-0.6c2.8-2.4,10.8-4.2,14.6-3.9c4.1,0.3,4.7,4,7.9,5.7c0.5,0.3,1-0.3,0.8-0.7c1.1-1.3,2.2-2.3,3.9-2.7
	c2.8-0.6,5.8,0.9,4.5,4.3c-0.2,0.6,0.5,1,1,0.8c2.5-1.3,5.3-0.3,6.4,2.3c1,2.3-0.2,4.1-2,5.6c-0.2,0.2-0.2,0.3-0.1,0.5
	c-0.1,0.2-0.1,0.4,0.1,0.6c4.4,3.7,2.7,10.7-2.8,12.2c-4.6,1.3-8.3-2-10.1-5.8c-0.1-0.2-0.3-0.2-0.5-0.1c-0.2,0-0.3,0-0.4,0.2
	c-0.2,0.9-1.2,1.6-2.1,1.2c-0.8-0.4-0.8-1.2-1-1.9c-0.1-0.2-0.2-0.3-0.4-0.4c-0.2-0.5-1.1-0.7-1.3,0c-0.8,2.7-2.3,5.4-5.4,5.7
	c-2,0.2-3.8-0.7-5.1-2c0.1-0.2,0.1-0.3-0.1-0.5c-0.4-0.8-0.9-1.5-1.4-2.3c-0.3-0.5-1-0.3-1.2,0.2c-0.2,1.2-0.9,1.7-2.3,1.6
	c-0.3-0.5-1.1-0.4-1.2,0.2c-0.3,1.4-0.9,2.8-2.1,3.6c-1.8,1.2-4.4,0.2-4.7-2.1c0-0.1-0.1-0.2-0.2-0.3c0-0.1,0-0.1,0-0.2
	c-0.2-0.6-1.1-0.5-1.1,0.1c0.8,7-7.1,9.1-12.1,5.7c-3.2-2.2-5-5.6-6.5-9.1c-0.2-0.5-1-0.8-1.3-0.2c-1,3-3,3.3-5.9,0.6
	c0-0.1,0.1-0.1,0.1-0.2c0.5-0.8-0.7-1.5-1.3-0.7c-2.5,3.5-7.8,5.2-11.2,1.9C60.9,21.7,63.2,17.8,65.6,14.7z M76.1,27.4
	c-0.6-0.3-1.1-0.6-1.7-0.9c0.3-0.2,0.6-0.5,0.9-0.8C75.4,26.4,75.6,26.9,76.1,27.4z M66.2,33.3c2.1,1.4,4.1,2.7,6.3,4
	c0.3,0.2,0.6-0.3,0.3-0.5c-2.1-1.4-4.2-2.6-6.4-3.9c-0.1-0.1-0.2,0-0.3,0c-0.4-1.7-0.7-3.5-1.2-5.2c2.9,1.6,6.3,1,9-0.9
	c2.3,1.3,4.6,2.7,6.9,4.1c0.3,0.2,0.6-0.3,0.3-0.5c-1-0.7-2.1-1.4-3.2-2c0.8,0.2,1.6,0.1,2.3-0.3c1.4,1.1,2.9,2,4.5,2.7
	c0.4,0.2,0.8-0.4,0.4-0.6c-1.4-0.8-2.8-1.6-4.2-2.5c0.9-0.6,1.6-1.4,2.2-2.3c2.5,5.4,6.4,10.9,13,10.8c3.9-0.1,7.1-2.8,7.6-6.3
	c0.6,0.9,1.7,1.5,2.9,1.6c2.6,0.2,4.3-1.9,5-4.2c1.2,0.5,2.3-0.4,3.1-1.6c0.1,0.1,0.1,0.2,0.2,0.3c0.9,3,3.8,5,7,4.8
	c2.7-0.2,5.3-2.1,6.2-4.6c0.4,0.5,0.9,0.8,1.4,0.9c1.2,0.3,2.3-0.4,2.8-1.4c1.3,4.4,6,7,10.4,6.1c-0.7,2.8-1.2,5.7-1.5,8.7l0,0
	c-10.8,6.6-25,7.7-37.3,7.6c-12.3-0.2-25.6-2.1-36.3-8.5h-0.1c-0.1-0.8-0.3-1.6-0.4-2.4c1.6,1,3.3,2,4.9,3c0.2,0.1,0.4-0.2,0.2-0.3
	c-1.7-1.1-3.5-2.1-5.2-3.2C66.6,35.4,66.4,34.4,66.2,33.3z M74.5,64.8c-1.3-0.9-2.7-1.8-4.2-2.6c-0.1-1.2-0.3-2.3-0.4-3.5
	c0.5,0.3,1,0.6,1.5,0.9c0.2,0.5,0.6,0.9,1.2,0.9c0.1,0,0.1,0,0.2-0.1c0.3,0.2,0.6,0.4,1,0.5c0.3,0.2,0.6-0.3,0.3-0.5
	c-0.4-0.2-0.7-0.4-1.1-0.6c0-0.1-0.1-0.2-0.3-0.3c-0.2-0.1-0.1-0.7,0-0.8c0.5-0.5,1.1,0.7,1.1,1c0.1,0.4,0.6,0.3,0.7-0.1
	c0.2-1.4-1.6-2.8-2.8-1.8c-0.3,0.2-0.4,0.6-0.5,0.9c-0.5-0.3-1-0.6-1.6-0.9c-0.2-1.4-0.3-2.7-0.5-4.1c1.7,1,3.4,2,5.2,2.9
	c-0.1,0.6,0,1.3,0.4,1.8c0.9,1.2,2.6,1,3.8,0.4c0.6-0.3,0.3-1.3-0.3-1.3c-0.6,0-1.6,0.3-2.1-0.1C76,57.6,75.7,57.1,76,57
	c0.8-0.5,0.1-1.7-0.7-1.2c-0.3,0.1-0.5,0.4-0.6,0.6c-1.8-1.1-3.6-2.1-5.4-3.1c-0.1-1.2-0.3-2.5-0.5-3.7c1.5,1.3,3.2,2.4,5.1,3
	c0.2,0.1,0.3,0,0.3-0.2c8.1,3.8,18.4,4.1,26.8,4.4c12.9,0.4,26.4-1,38.7-5.2c-0.7,4.7-1.3,9.4-1.7,14c-0.1,0-0.1,0-0.2,0
	c-9.9,5-22.9,4.9-33.7,4.7C98.5,70.4,93,70,87.4,69.2c-5.2-0.7-12.4-0.9-16.8-4c-0.1-0.7-0.2-1.5-0.2-2.2c1.2,0.8,2.5,1.6,3.7,2.3
	C74.5,65.6,74.8,65.1,74.5,64.8z M103.7,55.6c-11.6,0-25-0.9-35-7.4h-0.1c-0.1-1.1-0.3-2.3-0.5-3.4c1.5,1.4,3.4,2.7,5.4,3.3
	c0.3,0.1,0.5-0.4,0.2-0.5c-1.9-1-3.7-2-5.4-3.3c-0.1-0.1-0.2,0-0.3,0c-0.2-1.2-0.4-2.4-0.5-3.6c9.4,7.2,23.9,8.2,35.3,8.6
	c12.6,0.3,27-0.9,38.1-7.4c-0.2,1.8-0.4,3.6-0.7,5.4c-0.1,0.9-0.3,1.9-0.4,2.8C128,53.3,116.2,55.6,103.7,55.6z M31.1,83
	c-2.6-4.6-1.2-10,2.1-13.7c0.5-0.2,0.8-0.6,0.6-1.1c-0.6-1.5-1.1-3.1-0.1-4.6c1.1-1.5,3-1.9,4.6-1.4c0.7,0.2,1.2-0.6,1-1.1
	c0.2-0.1,0.3-0.4,0.2-0.6c-1.4-8.2,12.5-5,16-4c0.3,0.1,0.4-0.3,0.2-0.5c0,0-0.1,0-0.1-0.1c0.1-0.1,0.2-0.1,0.2-0.3
	c0.5-2.8,1.1-5.2,4.3-5.9c2.5-0.5,4.8,0.8,6.6,2.4c0.7,4.6,1.5,9.1,2.2,13.6c0.1,0.7,0.9,0.7,1.4,0.4c3.4,3.2,8.6,3.6,13,4.3
	c6.5,1.1,13.1,1.7,19.7,1.8c11.4,0.3,25.1,0.4,35.3-5.3c0.2-0.1,0.2-0.2,0.3-0.3c0.3,0,0.7-0.1,0.8-0.5c0.7-3.9,1.2-7.8,1.7-11.8
	c0.1,0,0.2,0.1,0.3,0c2.3-0.3,3.9,0.7,5.6,2c0.1,0.3,0.4,0.4,0.7,0.3c0.1,0,0.2-0.1,0.2-0.1c1.1-0.7,2.2-1.2,3.5-0.9
	c1.7,0.4,2.8,1.9,2.9,3.6l0,0c0,0.1-0.1,0.2-0.2,0.3c-0.4,0.7,0.6,1.3,1.1,0.6c3.4-4.5,9.8-7.7,14.7-3.1c4.7,4.4,1.9,11.2-3.2,13.5
	c-0.2,0-0.3-0.1-0.5-0.1c-0.6-0.1-0.7,0.7-0.3,1c3.7,2.3,2.7,6.4,0.7,9.4c-1.5,2.4-3.5,3.5-5.7,4.9c-0.4-0.4-1.2,0-1,0.6
	c2.4,8.1-5.5,13.9-12.7,14.7c-2.9,0.3-5.8,0-8.6-1c-1.6-0.6-9.1-3.9-8.8-6.1c0-0.1-0.1-0.1-0.1-0.1c-0.1,0-0.2,0-0.4,0h-0.1
	c0-0.1,0-0.2,0-0.3c0-0.4-0.6-0.7-0.8-0.2c-0.7,1.4-1.5,2.8-3.2,2.9c-1.6,0.1-2.9-1-3.4-2.4c0.2-0.3,0.4-0.5,0.5-0.8
	c0.4-0.6-0.4-1.1-0.9-0.7c-2.8,2.5-5.2,5.5-8.9,6.5c-4.1,1.1-7.8-0.6-9.9-4.2c-0.1-0.1-0.2-0.2-0.3-0.2c-0.2-0.1-0.5-0.2-0.7,0
	c-2.6,2-5,4-8.5,3.7c-3.3-0.3-5.6-2.3-7-5.1c0-0.1,0-0.2,0-0.3c0-0.4-0.3-0.5-0.6-0.5c-0.2,0-0.4,0.1-0.5,0.3
	c-0.7,0.6-1.2,1.3-2.1,1.6c-0.4,0.2-3.7,0.4-3.2-0.8c0.2-0.4-0.4-0.6-0.7-0.4c-0.1,0-0.2,0.1-0.2,0.2c-0.6,1.9-1.8,4-3.8,4.7
	c-2.2,0.7-4.6-0.6-5.4-2.7c0.1-0.2,0.2-0.5,0.2-0.7c0.2-0.6-0.6-0.9-0.9-0.4c-2.6,3.9-4.7,7.8-10.1,7.6c-5.7-0.3-8.8-6-7.9-11.2
	c0.1-0.3-0.2-0.5-0.4-0.4c-0.2-0.1-0.3,0-0.5,0.1c-1.2,1.1-2.8,2.2-4.4,1.2c-1.7-1-1.7-3.2-0.9-4.7c0.1-0.3-0.1-0.5-0.4-0.4
	c0.1-0.1,0.2-0.3,0.3-0.4c0.2-0.4-0.2-1-0.7-0.7C39.3,87.8,34.1,88.3,31.1,83z M37.1,102.2c2.2,1.6,4.6,3.1,7.2,4.1
	c0.3,0.1,0.4-0.3,0.2-0.5c-2.5-1.2-5-2.5-7.3-4.1c-0.1,0-0.1,0-0.2,0c-0.3-1.5-0.5-3-0.8-4.5c2,2,4.3,3.6,6.9,4.8
	c0.4,0.2,0.8-0.4,0.4-0.6c-2.7-1.5-5.3-3.3-7.6-5.5c-0.3-1.3-0.5-2.5-0.8-3.8c1.2,0.7,2.4,1.4,3.5,2.1c-0.1,0.4,0,0.8,0.3,1.2
	c0.3,0.4,0.9,0,0.9-0.4c0.3,0.1,0.5-0.3,0.2-0.5c-0.1-0.1-0.2-0.1-0.3-0.2c0.2-0.2,0.7-0.3,0.9-0.2c0.7,0.3,1,1.2,1.3,1.8
	c0.2,0.4,0.7,0.1,0.6-0.3c-0.3-1.2-1.1-2.8-2.5-2.7c-0.5,0-1,0.3-1.3,0.7c-1.3-0.9-2.6-1.6-4-2.3c-0.3-1.1-0.5-2.3-0.8-3.4
	c0.6,0.3,1.2,0.5,1.8,0.7c1.9,1.5,3.9,2.8,6,3.9c0.3,0.1,0.5-0.2,0.2-0.4c-1.6-1.1-3.2-2.1-4.7-3.2c2.2,0.3,4.3-0.1,5.9-1.5
	c-0.8,1.7-0.2,4.2,1.5,5.2c1.4,0.8,3.5,0.7,4.8-0.3c-0.8,4.9,2.1,9.7,7.3,10.9c5.3,1.2,10-2,12.1-6.7c1,2.1,3.3,3.4,5.7,2.9
	c2.3-0.4,4.1-2.3,4.6-4.6c0.8,0.6,2,0.9,2.7,0.9c1.1,0,2.5-0.5,3.3-1.4c2.4,6.8,12.9,7.1,16.8,1.2c1,3.5,5,5.2,8.5,5.1
	c4.2-0.2,8-3,10.6-6.2c0.5,1.6,1.9,2.9,3.7,3c1.7,0.1,3.6-1.1,4.2-2.7c1,2.9,5.2,5.1,7.7,6.3c4.1,1.9,8.7,2.5,13.1,1.4
	c6.4-1.5,15.8-9,11.5-16.4c1.5,0.2,2.9-0.3,4.2-1.3c-2.2,7.8-3.3,16.1-4.5,24.2c-0.1,0-0.2,0-0.4,0c-20.9,4.5-42.2,6.7-63.6,6.3
	c-20.1-0.3-40.5-2.5-59.5-9.2C37.5,104.8,37.3,103.5,37.1,102.2z M39.2,115.8c0-0.3-0.1-0.6-0.1-0.9c2.1,1.5,4.3,2.9,6.7,3.9
	c0.3,0.1,0.7-0.4,0.3-0.5c-2.5-1.2-4.9-2.6-7.2-4.1c-0.3-1.8-0.6-3.7-0.8-5.5c2.6,1.8,5.3,3.5,8,5.2c0.4,0.2,0.7-0.3,0.3-0.6
	c-2.7-1.9-5.5-3.6-8.3-5.4c-0.1,0-0.1,0-0.2,0c0-0.2,0-0.3-0.1-0.5c17.7,8.1,39.2,9.1,58.3,9.6c21.7,0.5,43.3-1.5,64.6-6
	c-0.2,1-0.3,2-0.5,3c-0.3,1.6-0.5,3.2-0.7,4.8c-19.8,6.2-40.1,10.5-61,10.9c-20.6,0.4-39.7-3.8-58.9-10.7
	C39.5,117.9,39.4,116.8,39.2,115.8z M47.4,140.9c-1.6-1-3.3-1.9-4.9-2.8c-0.1-1.4-0.3-2.7-0.5-4.1c2,1.7,4.3,3,6.9,3.7
	c0.4,0.1,0.5-0.4,0.2-0.6c-2.6-1-5-2.2-7.1-3.9c-0.4-2.9-0.8-5.9-1.3-8.8c2.5,1.7,5.1,3.2,7.9,4.6c0.4,0.2,0.7-0.4,0.3-0.6
	c-2.8-1.5-5.6-3.1-8.3-4.8c-0.2-1.2-0.4-2.4-0.6-3.6c2.4,1.6,4.9,3,7.7,3.9c0.3,0.1,0.5-0.4,0.2-0.5c-1.5-0.6-3-1.3-4.5-2.1
	c16.8,7.5,36.3,10.2,54.4,10.2c20.9,0,41.7-4,61.5-10.4c-1.1,7.1-2,14.2-3,21.3c-8.3,4.9-18,6.4-27.4,7.7
	c-9.6,1.3-19.3,1.9-28.9,1.8c-9.7-0.1-19.4-0.9-28.9-2.5s-18.6-4.3-28-6.2c-0.1-1.5-0.2-3.1-0.4-4.6c1.5,0.9,3.1,1.8,4.6,2.6
	C47.4,141.4,47.7,141,47.4,140.9z M177.1,271.1c7.1-0.3,6.6,7.7,3.4,11.6c-1.3,1.5-3,2.6-4.6,3.7c-3.8,2.3-8,4.2-12.1,5.8
	c-7.1,2.9-14.4,5.2-21.9,6.9c-16,3.6-32.5,4.4-48.9,3.4c-17.4-1-34.6-4.1-51.6-7.9c-7.8-1.7-16.4-3-23.5-6.9
	c-4.3-2.3-9.4-7.1-7.6-12.6c1.3-4,5.4-5.9,9.1-7.1c0.4,3.2,0.8,6.3,1.2,9.5c0.1,0.6,0.5,0.9,1,1c-0.2,0.4-0.2,0.9,0.3,1.1
	c24.7,11.6,54.4,13.5,81.3,12.9c13.5-0.3,27.2-1.1,40.6-2.9c10.6-1.4,23.2-4,30.2-12.8c0.1-0.1,0.1-0.2,0.2-0.3
	c0.3-0.1,0.6-0.3,0.8-0.8c0.4-1.6,0.8-3.2,1.2-4.8C176.5,271,176.8,271.1,177.1,271.1z M173,275.1c0,0.2,0,0.4,0,0.6
	c-10.1,8-21.2,10.7-33.9,12c-12.8,1.3-25.6,2.2-38.4,2.4c-13.4,0.2-26.8-0.4-40-2.4c-13-1.9-25.3-5.6-37.8-9.6
	c0.1-0.2,0.2-0.4,0.1-0.6c-0.3-2.8-0.6-5.6-1-8.4c0.8,0.8,1.6,1.5,2.5,2.2c-0.1,0.1-0.2,0.3-0.3,0.4c-0.1,0.2,0.2,0.3,0.3,0.2
	c0.1-0.1,0.2-0.2,0.3-0.3c0.7,0.6,1.4,1.1,2.1,1.6c0,0.1,0,0.1,0,0.2c-0.1,0.4,0.4,0.8,0.8,0.4c0,0,0-0.1,0.1-0.1
	c1.1,0.7,2.2,1.4,3.4,2.1c0.3,0.2,0.6-0.3,0.3-0.5c-1.2-0.7-2.3-1.4-3.5-2.2c0.2-0.8-0.3-1.8-1.1-2.2c-0.6-0.3-1.3-0.3-1.9,0
	c-1.1-0.8-2.1-1.7-3.1-2.6c-0.2-1.4-0.3-2.8-0.5-4.2c2.7,2,5.7,3.7,8.8,5.2c0.3,0.2,0.6-0.3,0.3-0.5c-3.1-1.7-6-3.5-9-5.3h-0.1
	c-0.2-1.5-0.4-3-0.5-4.4c3.6,2.3,7.2,4.5,11,6.4c0.4,0.2,0.7-0.4,0.3-0.6c-3.8-2.2-7.6-4.2-11.4-6.4c-0.2-1.3-0.3-2.7-0.5-4
	c3.4,2.6,6.9,4.9,10.6,6.9c0.3,0.2,0.5-0.3,0.3-0.4c-3.7-2.3-7.4-4.7-11-7.3c-0.2-1.5-0.4-3-0.6-4.6c3.2,2.7,6.8,4.9,10.6,6.5
	c0.3,0.1,0.6-0.4,0.2-0.6c-3.9-1.8-7.5-4-11-6.6c-0.2-1.6-0.4-3.2-0.6-4.8c4.1,2.7,8.3,5.3,12.5,7.7c0.4,0.2,0.8-0.4,0.4-0.6
	c-4.2-2.7-8.6-5.2-13-7.7c-0.2-1.4-0.3-2.7-0.5-4.1c3.4,1.9,6.8,3.8,10.2,5.6c0.3,0.2,0.7-0.3,0.3-0.5c-3.5-2-7.1-3.9-10.6-5.8
	c-0.2-1.7-0.4-3.4-0.6-5.1l0,0c3.6,2.5,7.3,4.7,11.2,6.5c0.4,0.2,0.7-0.4,0.3-0.5c-3.8-2-7.6-4.1-11.2-6.5c-0.2-0.1-0.3,0-0.4,0.1
	c-0.1-0.4-0.1-0.9-0.2-1.3c10.5,7.5,25,9.9,37.2,12.1c14.9,2.7,30.1,4.2,45.3,3.7s30.4-2.6,45.5-4.3c12.5-1.4,25.2-3.3,36.5-9.1
	C179.3,247.5,176.3,261.3,173,275.1z M25.4,271.2c0.4-0.1,0.8,0,1.1,0.3c0.3,0.3,0.4,0.6,0.4,0.9C26.4,272,25.9,271.6,25.4,271.2z
	 M183.4,223.9c-0.4,2.5-0.8,5-1.2,7.5c-12.2,6.5-25.8,8.4-39.4,10c-13.9,1.6-27.9,3.7-41.9,4.2c-14.7,0.5-29.5-1-43.9-3.5
	c-6.6-1.2-13.3-2.5-19.8-4.3c-7-1.9-13.4-4.9-20-7.9c-0.1-0.7-0.2-1.5-0.3-2.2c-0.1-0.5-0.1-1-0.2-1.5c3.3,2,6.5,4,9.9,5.9
	c0.3,0.2,0.6-0.3,0.3-0.5c-3.4-2.1-6.8-4.1-10.2-6.1c-0.3-2.4-0.6-4.7-0.9-7.1c3.9,2.2,7.5,4.6,11.2,7.1c0.3,0.2,0.7-0.3,0.3-0.6
	c-3.7-2.7-7.6-5.1-11.6-7.2c-0.1-0.8-0.2-1.6-0.3-2.4c23.8,14.8,54,16.3,81.2,16.2c15.6,0,30.8-1,46.3-3.1c7.2-1,14.2-2.7,21.4-4
	c6.8-1.3,13.4-2.2,19.9-4.7C183.8,221.1,183.6,222.5,183.4,223.9z M184.3,217.7c-13.3,4.9-28,6.2-41.8,8.6c-15,2.5-29.9,3.2-45,3.2
	c-28.7,0.1-56.3-2.6-82.3-15.5c-0.1-1-0.2-1.9-0.4-2.9c3.2,1.5,6.1,3.4,8.7,5.8c0.3,0.2,0.7-0.1,0.4-0.4c-2.7-2.6-5.8-4.5-9.2-6
	c-0.2-1.4-0.4-2.9-0.6-4.3c0,0,0,0.1,0.1,0.1c4.1,2.6,8.1,5.3,12.3,7.7c0.4,0.2,0.7-0.3,0.3-0.6c-4.1-2.6-8.2-5.1-12.4-7.6
	c-0.2-0.1-0.3,0-0.4,0.2c-0.1-0.9-0.2-1.9-0.4-2.8c0-0.3-0.1-0.6-0.1-0.9l0,0l0,0c0.1,0.1,0.1,0.3,0.2,0.3c0.3,0.4,1.1,0.8,1.5,1.1
	c1.1,0.8,2.3,1.6,3.4,2.4c2.2,1.5,4.4,2.9,6.7,4.3c0.4,0.2,0.7-0.3,0.3-0.6c-4.2-2.6-8.1-5.6-12.3-8.2c-0.3-2.3-0.6-4.7-0.9-7
	c4.5,2.7,9.2,5.3,13.8,7.8c0.4,0.2,0.7-0.4,0.3-0.6c-4.7-2.8-9.4-5.5-14.3-8c-0.2-1.6-0.4-3.1-0.7-4.7c4,2.7,8.2,5.2,12.6,7.3
	c0.4,0.2,0.7-0.3,0.3-0.5c-4.3-2.3-8.6-4.7-12.7-7.3c-0.1-0.1-0.3,0-0.3,0c-0.3-1.7-0.6-3.4-1-5.1c6.2,4.2,12.8,7.9,19.7,11
	c0.4,0.2,0.8-0.4,0.4-0.7c-6.8-3.3-13.3-7-19.7-11c-0.2-0.1-0.4,0-0.5,0.1c-0.2-0.8-0.4-1.6-0.6-2.4c2.4,0.4,4.9,0,7.1-0.8
	c-0.5,2.4,0.3,4.9,2.4,6.5c1.4,1,2.9,1.3,4.6,1.4c2.5,0.1,1.8-0.7,3.8,1.3c5.2,5,13.3,6.3,18.3,0.6c3.1,3,7.9,1.4,8.8-2.7
	c2.2,0.8,4.9,0,5.5-2.3c0.7,5.5,8.7,10.4,12.8,6.1c3.1,3.9,12.5,5.5,13.7-0.1c1.2,5.8,12.8,8,17.5,7.7c5.1-0.4,10.7-3.5,12.4-8.5
	c1.5,1.5,3.4,2.2,5.7,2.1c1.5-0.1,2.3-1,3.6-1.3c2-0.5,1.4,0.1,3.1,1.7c0.6,0.6,1.2,1.1,1.9,1.6c4.8,3.4,14.9,2.3,14-4.9
	c1.7,1.6,3.8,2.5,6.4,1.9c1.2-0.2,2.6-1.8,3.7-1.6c0.6,0.1,2.9,2.4,3.7,2.7c5.6,2.3,12.2-2,11.9-7.9c2.9,3.9,8.5,2.5,11.6-0.5
	c2.4-2.4,7-8.6,4.3-12c0.8,0,1.6-0.1,2.4-0.2C187.4,186.7,186.4,202.2,184.3,217.7z M186.2,170.4c-0.1,0-0.2,0.1-0.2,0.2
	c-0.5-0.2-1.1,0.1-0.9,0.7c1,3.9-0.8,7-3.3,10c-3.1,3.6-6.6,4.2-10.7,1.7c-0.1,0-0.2,0-0.2,0c0-0.1,0-0.2,0-0.3
	c-0.1-0.4-0.8-0.4-0.8,0c-0.4,2.5-1,4.5-2.9,6.2c-3.6,3.2-8.4,2.2-11-1.7c-0.3-0.4-0.9-0.5-1.2-0.2c-2.8,3.1-6.1,3.3-9.8,0.4
	c-0.3-0.5-1.2-0.2-1.2,0.4c-0.7,7.3-8.8,6.9-13,2.9c-0.9-0.8-1.6-2.6-2.8-2.9c-0.8-0.2-0.7,0-1.5,0.2c-1.1,0.3-2,1.5-3,1.9
	c-2.1,0.7-4.4,0-6.1-1.4c0.1-0.3,0.1-0.7,0.2-1.1c0.1-0.9-1.2-0.9-1.4-0.2c-2,5-5.4,8.2-10.8,8.8c-4.5,0.5-15.6-1.4-17.1-6.8
	c-0.1-0.4-0.6-0.5-0.9-0.2c-0.2-0.3-0.9-0.3-1.1,0.2c-2.1,5.3-10.1,3.1-11.9-0.6c-0.3-0.6-1.1-0.5-1.4,0c-3.7,5.7-11-2.2-11.4-5.6
	c0-0.4-0.6-0.5-0.8-0.2c-0.2-0.2-0.5-0.3-0.7,0c-1,2.1-2.8,3.6-5.1,2.2c-0.3-0.2-0.9,0-1,0.4c-0.6,3.5-4.1,5.1-6.9,3.1
	c0.4-0.5-0.4-1-0.8-0.6c-6.1,5.2-14.3,5.1-18.5-2.4c-0.2-0.4-0.7-0.4-1.1-0.3c-6.3,2.7-8.3-2.1-8.4-6h0.1c0.5-0.3,0.3-1.2-0.3-1.1
	c-3.5,0.4-7.4,1.6-10.7-0.5c-4.8-3.1-4.9-12.7-0.6-16.1c0.7-0.5-0.1-1.6-0.8-1.4c-3.8-2.3-4.9-4.6-3.3-6.8c0.3-0.6,0.8-1.2,1.2-1.7
	c0.4,0,0.9-0.4,0.7-0.8c0.2-0.3,0-0.7-0.3-0.6c-1.6-2.5-1.6-5.6,0.4-8c2.5-3,6.8-3.2,10.3-2.1c0.5,0.2,0.9-0.4,0.7-0.9
	c-1.9-3.2,3.6-3.2,5.3-2c0.2,0.1,0.4-0.1,0.3-0.3c0.2-0.1,0.3-0.2,0.4-0.3c1-2.8,1.3-4.9,4.5-6.3c1.7-0.7,3.7-0.7,5.5-0.5
	c3.1,0.3,5.6,1.5,8.2,3.1c0.5,3.8,1.1,7.6,1.8,11.4c0.1,0.7,1.2,0.7,1.4,0.1c17.5,7.8,39,9.6,57.8,9.8c9.9,0.1,19.7-0.6,29.5-2
	c9.5-1.4,19.3-2.9,27.4-8.3c0.5-0.3,0.5-0.8,0.3-1.2c0.4-3,0.8-6.1,1.2-9.1c2.2,0.2,4.1-0.3,6.2,0.8c1.7,0.9,2.5,2.4,3.8,3.6
	c-0.2,0.7,0.8,1.1,1.3,0.5c4.5-1.6,7-0.7,7.4,2.8c0.1,0.6,0.9,0.7,1.3,0.3c2.3-2.1,6.4-5.9,9.8-2.7c2.3,2.2,1.5,5.6,0.5,8.1
	c-0.1,0.3,0.1,0.5,0.4,0.6c-0.4,0.2-0.6,0.8-0.1,1c5.2,2.5,8.5,5.9,6.8,12.2C195.4,166.2,191.1,168.8,186.2,170.4z"/>
</svg>
