<?xml version="1.0" encoding="utf-8"?>
<!-- Generator: Adobe Illustrator 19.2.0, SVG Export Plug-In . SVG Version: 6.00 Build 0)  -->
<svg version="1.1" id="Слой_1" xmlns="http://www.w3.org/2000/svg" xmlns:xlink="http://www.w3.org/1999/xlink" x="0px" y="0px"
	 viewBox="0 0 15 16.6" style="enable-background:new 0 0 15 16.6;" xml:space="preserve">
<g>
	<rect x="6.4" width="2.1" height="1.8"/>
	<path d="M8.6,4.1V2.4H6.4v1.7C5.5,4.5,4.9,5.4,4.9,6.5v10.1h5.1V6.5C10.1,5.4,9.5,4.5,8.6,4.1z M9.6,14H5.4V9h4.2V14z"/>
</g>
<g>
	<rect x="11.9" y="2.6" width="1.8" height="1.5"/>
	<path d="M13.7,6.1V4.6h-1.8v1.4c-0.8,0.3-1.3,1.1-1.3,2v8.5H15V8.1C15,7.2,14.5,6.4,13.7,6.1z M14.6,14.4h-3.5v-4.2h3.5V14.4z"/>
</g>
<g>
	<rect x="1.3" y="2.6" width="1.8" height="1.5"/>
	<path d="M3.1,6.1V4.6H1.3v1.4C0.5,6.4,0,7.2,0,8.1v8.5h4.3V8.1C4.3,7.2,3.8,6.4,3.1,6.1z M4,14.4H0.4v-4.2H4V14.4z"/>
</g>
</svg>
