<?xml version="1.0" encoding="utf-8"?>
<!-- Generator: Adobe Illustrator 19.2.0, SVG Export Plug-In . SVG Version: 6.00 Build 0)  -->
<svg version="1.1" id="Слой_1" xmlns="http://www.w3.org/2000/svg" xmlns:xlink="http://www.w3.org/1999/xlink" x="0px" y="0px"
	 viewBox="0 0 12.6 16.6" style="enable-background:new 0 0 12.6 16.6;" xml:space="preserve">
<g>
	<g>
		<rect x="8.9" width="2.1" height="1.8"/>
		<path d="M11,4.1V2.4H8.9v1.7C8,4.5,7.4,5.4,7.4,6.5v10.1h5.1V6.5C12.6,5.4,11.9,4.5,11,4.1z M12.1,14H7.9V9h4.2V14z"/>
	</g>
	<g>
		<path d="M3.4,15.9v-4.1c1.4-0.3,2.5-1.7,2.5-3.4c0-0.7-0.2-1.3-0.5-1.9L5.4,6.3H0.6L0.5,6.5C0.2,7,0,7.7,0,8.4
			c0,1.7,1.1,3.2,2.6,3.4v4.1c-0.8,0-1.4,0.2-1.4,0.3c0,0.2,0.8,0.3,1.9,0.3c1,0,1.9-0.1,1.9-0.3C4.9,16,4.3,15.9,3.4,15.9z M3,11.3
			c-1.3,0-2.4-1.3-2.4-2.9c0-0.5,0.1-1.1,0.4-1.5h4.2c0.2,0.5,0.4,1,0.4,1.5C5.4,10,4.3,11.3,3,11.3z"/>
		<path d="M5.2,8.4c0,0-0.1,2.7-2.2,2.7S0.7,8.4,0.7,8.4H5.2z"/>
	</g>
</g>
</svg>
