<?xml version="1.0" encoding="utf-8"?>
<!-- Generator: Adobe Illustrator 19.2.0, SVG Export Plug-In . SVG Version: 6.00 Build 0)  -->
<svg version="1.1" id="Слой_1" xmlns="http://www.w3.org/2000/svg" xmlns:xlink="http://www.w3.org/1999/xlink" x="0px" y="0px"
	 viewBox="0 0 5.9 10.2" style="enable-background:new 0 0 5.9 10.2;" xml:space="preserve">
<g>
	<path d="M3.4,9.6V5.5C4.9,5.2,5.9,3.8,5.9,2c0-0.7-0.2-1.3-0.5-1.9L5.4,0H0.6L0.5,0.1C0.2,0.7,0,1.4,0,2c0,1.7,1.1,3.2,2.6,3.4v4.1
		c-0.8,0-1.4,0.2-1.4,0.3c0,0.2,0.8,0.3,1.9,0.3c1,0,1.9-0.1,1.9-0.3C4.9,9.7,4.3,9.6,3.4,9.6z M3,5C1.6,5,0.5,3.7,0.5,2
		c0-0.5,0.1-1.1,0.4-1.5h4.2C5.3,1,5.4,1.5,5.4,2C5.4,3.7,4.3,5,3,5z"/>
	<path d="M5.2,2.1c0,0-0.1,2.7-2.2,2.7S0.7,2.1,0.7,2.1H5.2z"/>
</g>
</svg>
